<?xml version="1.0" standalone="no"?>
<!DOCTYPE svg PUBLIC "-//W3C//DTD SVG 1.1//EN" "http://www.w3.org/Graphics/SVG/1.1/DTD/svg11.dtd" >
<svg xmlns="http://www.w3.org/2000/svg" xmlns:xlink="http://www.w3.org/1999/xlink" version="1.1">
<metadata>
Created by FontForge 20160405 at Thu Jan 18 04:43:32 2018
 By www-data
Copyright (c) The Font Bureau, Inc., 2006, 2017. All rights reserved.
</metadata>
<defs>
<font id="AntennaforFord" horiz-adv-x="1536" >
  <font-face 
    font-family="Antenna for Ford"
    font-weight="400"
    font-stretch="normal"
    units-per-em="2048"
    panose-1="2 11 5 3 2 2 2 2 2 3"
    ascent="1638"
    descent="-410"
    x-height="1139"
    cap-height="1518"
    bbox="-979 -547 3205 2322"
    underline-thickness="50"
    underline-position="-150"
    unicode-range="U+000D-FB04"
  />
<missing-glyph horiz-adv-x="1024" 
d="M0 1434h1024v-1434h-1024v1434zM102 102h820v1229h-820v-1229z" />
    <glyph glyph-name="f_f" unicode="ff" horiz-adv-x="1493" 
d="M948 1219q0 89 17 156t57 113q43 50 113 75.5t176 25.5h133v-174h-109q-106 0 -150 -55q-21 -26 -29.5 -60.5t-8.5 -80.5v-80h297v-181h-297v-958h-199v958h-475v-958h-199v958h-215v181h215v80q0 89 17.5 156t57.5 113q43 50 113.5 75.5t174.5 25.5h131v-174h-106
q-107 0 -151 -55q-21 -26 -29.5 -60.5t-8.5 -80.5v-80h475v80z" />
    <glyph glyph-name="fi" unicode="fi" horiz-adv-x="1307" 
d="M59 1139h215v80q0 89 17.5 156t57.5 113q43 50 113.5 75.5t174.5 25.5h131v-174h-106q-107 0 -151 -55q-21 -26 -29.5 -60.5t-8.5 -80.5v-80h295v-181h-295v-958h-199v958h-215v181zM948 1518h200v-242h-200v242zM950 1139h196v-1139h-196v1139z" />
    <glyph glyph-name="fl" unicode="fl" horiz-adv-x="1413" 
d="M59 1139h215v80q0 89 17.5 156t57.5 113q43 50 113.5 75.5t174.5 25.5h131v-174h-106q-107 0 -151 -55q-21 -26 -29.5 -60.5t-8.5 -80.5v-80h295v-181h-295v-958h-199v958h-215v181zM1007 65q-29 35 -42.5 91t-13.5 139v1294h196v-1272q0 -43 5 -68.5t17 -41.5
q13 -16 38 -23.5t67 -7.5h45v-174q-25 -4 -112 -4q-73 0 -122 16t-78 51z" />
    <glyph glyph-name="f_f_i" unicode="ffi" horiz-adv-x="1978" 
d="M948 1219q0 89 17 156t57 113q43 50 113 75.5t176 25.5h133v-174h-109q-106 0 -150 -55q-21 -26 -29.5 -60.5t-8.5 -80.5v-80h297v-181h-297v-958h-199v958h-475v-958h-199v958h-215v181h215v80q0 89 17.5 156t57.5 113q43 50 113.5 75.5t174.5 25.5h131v-174h-106
q-107 0 -151 -55q-21 -26 -29.5 -60.5t-8.5 -80.5v-80h475v80zM1620 1518h200v-242h-200v242zM1622 1139h196v-1139h-196v1139z" />
    <glyph glyph-name="f_f_l" unicode="ffl" horiz-adv-x="2087" 
d="M948 1219q0 89 17 156t57 113q43 50 113 75.5t176 25.5h133v-174h-109q-106 0 -150 -55q-21 -26 -29.5 -60.5t-8.5 -80.5v-80h297v-181h-297v-958h-199v958h-475v-958h-199v958h-215v181h215v80q0 89 17.5 156t57.5 113q43 50 113.5 75.5t174.5 25.5h131v-174h-106
q-107 0 -151 -55q-21 -26 -29.5 -60.5t-8.5 -80.5v-80h475v80zM1678 65q-29 35 -42.5 91t-13.5 139v1294h196v-1272q0 -43 5 -68.5t17 -41.5q13 -16 38 -23.5t67 -7.5h45v-174q-25 -4 -112 -4q-73 0 -122 16t-78 51z" />
    <glyph glyph-name=".notdef" horiz-adv-x="1024" 
d="M0 1434h1024v-1434h-1024v1434zM102 102h820v1229h-820v-1229z" />
    <glyph glyph-name=".null" horiz-adv-x="0" 
 />
    <glyph glyph-name="nonmarkingreturn" unicode="&#xd;" horiz-adv-x="471" 
 />
    <glyph glyph-name="space" unicode=" " horiz-adv-x="471" 
 />
    <glyph glyph-name="exclam" unicode="!" horiz-adv-x="758" 
d="M268 1518h219l-22 -1084h-174zM254 266h248v-266h-248v266z" />
    <glyph glyph-name="quotedbl" unicode="&#x22;" horiz-adv-x="1034" 
d="M195 1518h204l-12 -621h-178zM635 1518h207l-15 -621h-178z" />
    <glyph glyph-name="numbersign" unicode="#" horiz-adv-x="1542" 
d="M371 428h-242v182h274l54 279h-328v184h363l88 445h190l-88 -445h297l86 445h190l-84 -445h244v-184h-278l-56 -279h334v-182h-366l-84 -428h-191l82 428h-295l-82 -428h-192zM901 600l60 301h-322l-59 -301h321z" />
    <glyph glyph-name="dollar" unicode="$" horiz-adv-x="1372" 
d="M117 152l94 147q112 -71 203.5 -97t195.5 -32v541q-92 19 -155.5 37.5t-122.5 56.5q-72 45 -111 119t-39 186q0 140 50 227t142 128.5t228 51.5v138h182v-139q102 -7 199 -34t174 -77l-94 -156q-107 71 -285 87v-475q104 -20 177 -42.5t133 -63.5q71 -48 109 -123.5
t38 -187.5q0 -209 -116 -316t-335 -125v-196h-182v195q-109 6 -209 28q-148 32 -276 122zM391 1215q-16 -39 -16 -97q0 -62 24 -103t72 -68q46 -27 115 -45l24 -6v442q-50 -6 -73 -11q-115 -27 -146 -112zM1044 430q0 68 -23.5 112.5t-72.5 75.5q-49 30 -117 46
q-22 6 -53 13v-505q125 14 184 62q82 67 82 196z" />
    <glyph glyph-name="percent" unicode="%" horiz-adv-x="2347" 
d="M186 703q-102 122 -102 352q0 226 102 353q108 134 328 134q215 0 323 -134q101 -126 101 -353q0 -231 -101 -352q-110 -134 -323 -134q-218 0 -328 134zM1501 1520h189l-848 -1520h-189zM707 821q53 80 53 234q0 152 -53 231q-60 90 -193 90q-70 0 -117.5 -23t-77.5 -67
q-55 -78 -55 -231t54 -234q61 -92 196 -92q132 0 193 92zM1509 113q-102 122 -102 354q0 227 102 352q110 135 324 135q215 0 325 -135q103 -127 103 -352q0 -230 -103 -354q-110 -133 -325 -133q-214 0 -324 133zM2027 232q52 85 52 235q0 147 -52 229q-58 90 -194 90
q-132 0 -192 -90q-54 -81 -54 -229q0 -151 54 -235q60 -93 192 -93q136 0 194 93z" />
    <glyph glyph-name="ampersand" unicode="&#x26;" horiz-adv-x="1647" 
d="M211 81q-63 51 -92 131.5t-29 197.5q0 170 116 298q46 50 94 83.5t109 67.5q-34 82 -55.5 166t-21.5 175q0 173 92.5 257.5t259.5 84.5q166 0 246 -82t80 -260q0 -83 -33.5 -149t-94.5 -121q-50 -45 -101.5 -76.5t-120.5 -67.5q48 -82 112.5 -165t140.5 -156
q63 -61 133 -115q59 84 108 213.5t101 327.5l170 -41q-55 -216 -111 -360t-121 -236q25 -14 68 -32q64 -25 121 -33.5t117 -8.5h21v-180h-27q-96 0 -174.5 12.5t-158.5 45.5q-52 22 -102 52q-60 -46 -128 -75q-128 -55 -314 -55q-142 0 -242 25t-163 76zM810 1109
q24 42 24 91q0 89 -33 127.5t-117 38.5q-86 0 -124 -39.5t-38 -126.5q0 -83 31 -179q15 -46 35 -94l26 15q13 7 39 23q56 34 95 68.5t62 75.5zM485 707q-24 -16 -50 -35q-92 -69 -130 -157q-20 -48 -20 -101q0 -68 13 -115t46 -80q36 -36 102 -54t170 -18q147 0 246 46
q24 11 45 24q-77 65 -145 133q-160 152 -277 357z" />
    <glyph glyph-name="quotesingle" unicode="'" horiz-adv-x="596" 
d="M195 1520h204l-12 -623h-178z" />
    <glyph glyph-name="parenleft" unicode="(" horiz-adv-x="1001" 
d="M662 -381q-82 68 -158 163t-134 213q-145 290 -145 621q0 166 39 321.5t106 294.5q60 124 137 225t155 165l143 -104q-158 -149 -252 -345q-123 -258 -123 -557t127 -560q96 -198 248 -335z" />
    <glyph glyph-name="parenright" unicode=")" horiz-adv-x="1001" 
d="M199 -279q155 153 248 342q122 251 122 553q0 301 -125 565q-93 193 -245 337l139 104q79 -65 154.5 -161.5t136.5 -218.5q145 -295 145 -626q0 -165 -39 -319.5t-106 -291.5q-61 -123 -137 -221.5t-154 -164.5z" />
    <glyph glyph-name="asterisk" unicode="*" horiz-adv-x="1196" 
d="M537 907l-324 -200l-80 143l338 174l-338 176l80 143l324 -204l-19 381h158l-17 -381l324 204l80 -143l-340 -176l340 -174l-80 -143l-324 202l17 -377h-158z" />
    <glyph glyph-name="plus" unicode="+" horiz-adv-x="1440" 
d="M621 627h-410v190h410v408h196v-408h412v-190h-412v-408h-196v408z" />
    <glyph glyph-name="comma" unicode="," horiz-adv-x="518" 
d="M129 -162q43 23 66 38.5t37 33.5q14 17 19 37.5t5 52.5h-123v270h250v-200q0 -74 -8.5 -123.5t-28.5 -86.5q-21 -37 -59.5 -66t-104.5 -60z" />
    <glyph glyph-name="hyphen" unicode="-" horiz-adv-x="911" 
d="M98 735h711v-186h-711v186z" />
    <glyph glyph-name="period" unicode="." horiz-adv-x="518" 
d="M133 270h250v-270h-250v270z" />
    <glyph glyph-name="slash" unicode="/" horiz-adv-x="1055" 
d="M850 1518h205l-850 -1518h-205z" />
    <glyph glyph-name="zero" unicode="0" horiz-adv-x="1518" 
d="M278 191q-66 98 -95 239.5t-29 329.5q0 187 29 329t95 241q70 105 188 158.5t294 53.5q174 0 290.5 -53.5t187.5 -158.5q66 -99 95 -241t29 -329q0 -188 -29 -329.5t-95 -239.5q-71 -106 -187.5 -160t-290.5 -54q-176 0 -294 54.5t-188 159.5zM1085 330q41 76 57.5 182.5
t16.5 247.5q0 143 -16.5 248.5t-57.5 179.5q-44 80 -123.5 122t-201.5 42q-123 0 -203.5 -42t-124.5 -122q-41 -74 -57.5 -179.5t-16.5 -248.5q0 -141 16.5 -247.5t57.5 -182.5q44 -83 124 -125.5t204 -42.5q122 0 201.5 42.5t123.5 125.5z" />
    <glyph glyph-name="one" unicode="1" horiz-adv-x="786" 
d="M354 1327h-282v191h477v-1518h-195v1327z" />
    <glyph glyph-name="two" unicode="2" horiz-adv-x="1237" 
d="M74 166l508 487q98 93 153.5 151t89.5 109q38 55 55 107t17 117q0 79 -29.5 127t-96 71t-179.5 23q-118 0 -227 -25.5t-185 -66.5l-88 164q103 55 220 84q121 28 296 28q248 0 368 -91.5t120 -295.5q0 -86 -19.5 -156t-61.5 -139q-40 -66 -104 -137.5t-163 -165.5
l-398 -381h768v-176h-1044v166z" />
    <glyph glyph-name="three" unicode="3" horiz-adv-x="1274" 
d="M35 123l100 160q126 -68 233.5 -98.5t231.5 -30.5q95 0 160.5 14.5t106.5 47.5q42 34 62.5 90.5t20.5 142.5q0 76 -16 128t-57 86q-43 36 -118.5 53t-191.5 17h-225v178h221q100 0 165.5 13t104.5 41t56.5 72.5t17.5 111.5q0 80 -30.5 126t-97.5 66.5t-183 20.5
q-107 0 -219.5 -28t-196.5 -79l-106 154q107 66 247.5 99.5t290.5 33.5q167 0 274.5 -35t161.5 -114t54 -209q0 -152 -46.5 -236t-140.5 -112q122 -29 176 -124t54 -278q0 -254 -142 -363q-67 -51 -165.5 -73.5t-229.5 -22.5q-171 0 -304 34.5t-269 113.5z" />
    <glyph glyph-name="four" unicode="4" horiz-adv-x="1384" 
d="M98 522l676 996h217l-672 -986h541l41 482h143v-482h273v-172h-273v-360h-186v360h-760v162z" />
    <glyph glyph-name="five" unicode="5" horiz-adv-x="1323" 
d="M104 125l103 160q112 -63 213 -97t227 -34q87 0 154.5 14t117.5 48q113 77 113 271q0 190 -103 272q-45 36 -111 51t-152 15q-108 0 -185.5 -16.5t-152.5 -52.5l-168 51l39 711h921v-181h-741l-23 -399q59 29 150 47.5t207 18.5q118 0 211 -22t159 -76
q73 -60 111.5 -160.5t38.5 -251.5q0 -299 -165 -419q-73 -54 -177 -76t-240 -22q-169 0 -299.5 39.5t-247.5 108.5z" />
    <glyph glyph-name="six" unicode="6" horiz-adv-x="1434" 
d="M145 627q0 247 41 413t137 270q99 107 270 157.5t433 50.5h84v-181h-90q-202 0 -330.5 -34t-202.5 -99q-66 -59 -97 -138.5t-42 -184.5q60 72 174.5 106.5t290.5 34.5q274 0 397 -137q56 -64 81.5 -158t25.5 -219q0 -127 -29.5 -224.5t-93.5 -163.5q-137 -143 -440 -143
q-210 0 -344 67.5t-199.5 210.5t-65.5 372zM1047 247q39 44 56 107.5t17 147.5t-18 147.5t-59 107.5q-89 97 -287 97q-91 0 -165.5 -19.5t-127.5 -58.5q-54 -40 -83.5 -100t-29.5 -137q0 -209 108 -303q50 -44 124 -64t174 -20q207 0 291 95z" />
    <glyph glyph-name="seven" unicode="7" horiz-adv-x="1122" 
d="M868 1337h-829v181h1046v-158l-596 -1360h-208z" />
    <glyph glyph-name="eight" unicode="8" horiz-adv-x="1448" 
d="M266 97q-137 115 -137 329q0 160 61 266.5t189 141.5q-199 65 -199 329q0 180 114 272q133 107 429 107q301 0 430 -107q113 -95 113 -272q0 -125 -47 -211.5t-150 -117.5q132 -40 191 -144t59 -264q0 -215 -137 -329q-151 -126 -459 -126q-309 0 -457 126zM1073 1141
q0 116 -80.5 173.5t-269.5 57.5t-269.5 -57.5t-80.5 -173.5q0 -119 80.5 -177.5t269.5 -58.5t269.5 58.5t80.5 177.5zM1118 440q0 150 -94.5 223.5t-300.5 73.5t-299.5 -73.5t-93.5 -223.5t93.5 -223.5t299.5 -73.5t300.5 73.5t94.5 223.5z" />
    <glyph glyph-name="nine" unicode="9" horiz-adv-x="1434" 
d="M330 176h90q202 0 331.5 35.5t205.5 101.5q65 57 94.5 135t42.5 187q-59 -73 -173.5 -107t-291.5 -34q-142 0 -239 35.5t-157 104.5q-108 122 -108 374q0 261 123 391q135 143 440 143q209 0 342.5 -67t199.5 -210t66 -372q0 -248 -40.5 -415t-135.5 -270
q-99 -108 -270 -158t-434 -50h-86v176zM979 735q54 40 83.5 99.5t29.5 136.5q0 208 -107 304q-95 85 -297 85q-108 0 -179.5 -24t-113.5 -71q-39 -44 -56 -107t-17 -148q0 -174 75 -257q87 -96 287 -96q189 0 295 78z" />
    <glyph glyph-name="colon" unicode=":" horiz-adv-x="559" 
d="M154 1139h249v-262h-249v262zM154 262h249v-262h-249v262z" />
    <glyph glyph-name="semicolon" unicode=";" horiz-adv-x="559" 
d="M154 1139h249v-262h-249v262zM150 -162q43 24 66 39.5t36 32.5q14 17 19 37.5t5 52.5h-122v262h249v-192q0 -71 -8.5 -120t-28.5 -87q-21 -38 -59.5 -68t-103.5 -61z" />
    <glyph glyph-name="less" unicode="&#x3c;" horiz-adv-x="1440" 
d="M217 635v147l924 461v-186l-719 -348l719 -347v-192z" />
    <glyph glyph-name="equal" unicode="=" horiz-adv-x="1440" 
d="M223 1042h996v-184h-996v184zM223 586h996v-187h-996v187z" />
    <glyph glyph-name="greater" unicode="&#x3e;" horiz-adv-x="1440" 
d="M299 362l719 345l-719 348v188l924 -463v-147l-924 -463v192z" />
    <glyph glyph-name="question" unicode="?" horiz-adv-x="1380" 
d="M551 414q-8 63 -8 126q0 105 32 173q25 52 74.5 94t132.5 86q76 40 119 67t68 53q26 27 37.5 60t11.5 80q0 51 -12.5 86.5t-43.5 61.5q-34 27 -99 40t-169 13q-119 0 -231.5 -28t-210.5 -77l-84 174q101 56 247 87.5t294 31.5q143 0 241.5 -22.5t158.5 -68.5
q59 -45 85.5 -114.5t26.5 -167.5q0 -78 -18.5 -135.5t-55.5 -102.5q-35 -42 -85 -77.5t-124 -75.5q-77 -39 -115.5 -68.5t-57.5 -66.5q-13 -25 -18.5 -57t-5.5 -76q0 -48 4 -96h-194zM522 242h250v-242h-250v242z" />
    <glyph glyph-name="at" unicode="@" horiz-adv-x="2210" 
d="M174 598q0 478 242 715q235 231 688 231q458 0 697 -234t239 -712q0 -156 -17 -256.5t-56 -160.5q-39 -61 -108 -88t-176 -27q-156 0 -217 54q-47 40 -53 109q-50 -80 -142.5 -117.5t-254.5 -37.5q-236 0 -344 149q-97 134 -97 385q0 249 101 383q112 148 348 148
q160 0 244 -34q79 -33 123 -110l43 133l125 -10v-766q0 -39 6 -68.5t21 -51.5q36 -54 132 -54q67 0 107 22t61 72q20 47 26.5 122t6.5 204q0 421 -203.5 624t-611.5 203q-809 0 -809 -827q0 -415 205.5 -616t621.5 -201q160 0 305.5 31.5t255.5 85.5l52 -105
q-267 -131 -611 -131q-479 0 -714.5 229.5t-235.5 706.5zM1378 608q0 102 -19.5 171t-58.5 111q-39 41 -100 60t-147 19q-158 0 -227.5 -92.5t-69.5 -268.5q0 -90 15.5 -157.5t50.5 -114.5q76 -103 231 -103q112 0 183 37t106.5 119t35.5 219z" />
    <glyph glyph-name="A" unicode="A" horiz-adv-x="1518" 
d="M653 1528h211l609 -1528h-213l-125 319h-758l-125 -319h-207zM1061 510l-307 770l-308 -770h615z" />
    <glyph glyph-name="B" unicode="B" horiz-adv-x="1468" 
d="M172 1518h670q178 0 289.5 -40.5t165 -123t53.5 -211.5q0 -139 -45 -227t-146 -119q126 -32 178 -122t52 -255q0 -117 -35.5 -197.5t-105.5 -130.5q-132 -92 -419 -92h-657v1518zM848 877q164 0 234 65q59 56 59 172q0 110 -68.5 162.5t-224.5 52.5h-473v-452h473z
M852 186q172 0 250 59t78 193q0 88 -34.5 142t-107.5 79t-190 25h-473v-498h477z" />
    <glyph glyph-name="C" unicode="C" horiz-adv-x="1497" 
d="M84 760q0 396 201 592q194 190 567 190q173 0 308 -49.5t241 -149.5l-150 -149q-160 149 -401 149q-557 0 -557 -585q0 -294 135 -440t424 -146q151 0 255 47q45 19 81 45.5t76 63.5l147 -142q-95 -95 -210 -145q-148 -64 -359 -64q-390 0 -574 196.5t-184 586.5z" />
    <glyph glyph-name="D" unicode="D" horiz-adv-x="1559" 
d="M172 1518h508q223 0 372.5 -37t243.5 -121q94 -85 137.5 -231t43.5 -369q0 -218 -46.5 -364.5t-145.5 -233.5q-97 -86 -251 -124t-377 -38h-485v1518zM668 190q174 0 289 30.5t184 97.5q68 66 97.5 173t29.5 269q0 166 -26.5 271.5t-90.5 169.5q-65 64 -177 92t-292 28
h-303v-1131h289z" />
    <glyph glyph-name="E" unicode="E" horiz-adv-x="1335" 
d="M172 1518h1038v-199h-831v-436h811v-197h-811v-496h840v-190h-1047v1518z" />
    <glyph glyph-name="F" unicode="F" horiz-adv-x="1257" 
d="M172 1518h1010v-199h-803v-457h784v-196h-784v-666h-207v1518z" />
    <glyph glyph-name="G" unicode="G" horiz-adv-x="1604" 
d="M253 176q-87 96 -128 241.5t-41 342.5q0 406 199 597q191 185 567 185q200 0 357 -59q120 -47 212 -137l-147 -152q-41 36 -80 62t-86 44q-112 43 -256 43q-287 0 -423 -142.5t-136 -442.5q0 -156 29.5 -266t94.5 -182q67 -74 173.5 -111t259.5 -37q139 0 230 28t144 86
q50 54 71.5 137t21.5 201v43h-490v185h695v-191q0 -167 -30 -288t-101 -205q-78 -90 -211 -135.5t-338 -45.5q-207 0 -352 50t-235 149z" />
    <glyph glyph-name="H" unicode="H" horiz-adv-x="1612" 
d="M172 1518h207v-627h854v627h207v-1518h-207v686h-854v-686h-207v1518z" />
    <glyph glyph-name="I" unicode="I" horiz-adv-x="582" 
d="M188 1518h205v-1518h-205v1518z" />
    <glyph glyph-name="J" unicode="J" horiz-adv-x="848" 
d="M133 -2q-24 0 -35 1q-12 1 -41 1v190h150q101 0 160.5 27t86.5 83.5t27 150.5v1067h205v-1076q0 -124 -29 -209.5t-88 -137.5q-57 -51 -141.5 -74t-198.5 -23h-96z" />
    <glyph glyph-name="K" unicode="K" horiz-adv-x="1473" 
d="M655 768l-280 -313v-455h-203v1518h203v-797l715 797h237l-536 -598l610 -920h-236z" />
    <glyph glyph-name="L" unicode="L" horiz-adv-x="1219" 
d="M172 1518h207v-1328h790v-190h-997v1518z" />
    <glyph glyph-name="M" unicode="M" horiz-adv-x="1907" 
d="M172 1518h270l512 -1227l514 1227h267v-1518h-203v1171l-496 -1171h-172l-493 1169v-1169h-199v1518z" />
    <glyph glyph-name="N" unicode="N" horiz-adv-x="1620" 
d="M172 1518h225l850 -1170v1170h201v-1518h-191l-884 1214v-1214h-201v1518z" />
    <glyph glyph-name="O" unicode="O" horiz-adv-x="1718" 
d="M289 161q-205 194 -205 599q0 403 205 597q195 185 569 185q375 0 570 -185q204 -193 204 -597q0 -406 -204 -599q-196 -186 -570 -186q-373 0 -569 186zM1425 756q0 289 -138 438t-429 149t-428 -149t-137 -438q0 -290 137 -439t428 -149t429 149.5t138 438.5z" />
    <glyph glyph-name="P" unicode="P" horiz-adv-x="1475" 
d="M172 1518h682q190 0 308.5 -52t173.5 -155.5t55 -261.5q0 -244 -124 -368q-132 -132 -419 -132h-473v-549h-203v1518zM854 741q167 0 248.5 68.5t81.5 228.5q0 84 -20.5 139.5t-62.5 88.5q-41 31 -102.5 45t-148.5 14h-475v-584h479z" />
    <glyph glyph-name="Q" unicode="Q" horiz-adv-x="1718" 
d="M1108 -383q-130 0 -212 21.5t-127 69.5q-36 38 -51.5 93.5t-15.5 130.5q0 20 2 64q-119 12 -225.5 49.5t-195.5 121.5q-100 94 -149.5 240.5t-49.5 352.5q0 406 199 597q191 185 575 185q191 0 334.5 -45.5t241.5 -139.5q198 -192 198 -597q0 -206 -49.5 -352.5
t-148.5 -240.5q-95 -89 -228.5 -131.5t-303.5 -46.5q-1 -12 -1 -35q0 -79 30 -113q21 -24 62 -34t115 -10h168v-178h-29q-28 0 -44 -1q-17 -1 -51 -1h-44zM1296 321q67 73 98 181.5t31 253.5t-31 253.5t-98 181.5q-70 76 -178 114t-260 38q-299 0 -436 -152
q-129 -143 -129 -435q0 -293 129 -435q138 -153 436 -153q152 0 260 38.5t178 114.5z" />
    <glyph glyph-name="R" unicode="R" horiz-adv-x="1499" 
d="M172 1518h676q281 0 411 -118q63 -57 92 -142t29 -199q0 -231 -123 -348q-65 -62 -168 -95q-34 -10 -75 -18l344 -598h-221l-339 584h-423v-584h-203v1518zM846 774q81 0 140 13.5t100 43.5q43 32 64 85.5t21 134.5t-21 134.5t-64 84.5q-41 29 -101.5 42t-144.5 13h-465
v-551h471z" />
    <glyph glyph-name="S" unicode="S" horiz-adv-x="1460" 
d="M74 160l104 159q128 -83 262.5 -120t280.5 -37q227 0 329 63q50 31 73.5 81t23.5 120q0 68 -29 112.5t-87 73.5q-51 25 -123 41t-189 35q-147 24 -246 50.5t-168 69.5q-76 47 -113.5 121.5t-37.5 190.5q0 152 62 245t186.5 135t320.5 42q337 0 553 -139l-113 -170
q-80 54 -196.5 86.5t-243.5 32.5q-132 0 -212 -24t-116.5 -73.5t-36.5 -130.5q0 -63 27 -103.5t81 -67.5q47 -25 116.5 -41.5t187.5 -37.5q158 -27 253.5 -51.5t165.5 -65.5q80 -48 121.5 -125t41.5 -196q0 -154 -65 -255t-203 -151t-357 -50q-192 0 -354 43t-299 137z" />
    <glyph glyph-name="T" unicode="T" horiz-adv-x="1419" 
d="M606 1319h-557v199h1323v-199h-557v-1319h-209v1319z" />
    <glyph glyph-name="U" unicode="U" horiz-adv-x="1614" 
d="M271 154q-62 75 -85.5 175.5t-23.5 227.5v961h207v-936q0 -101 18.5 -175t64.5 -125q49 -56 136 -85t219 -29q134 0 222 28.5t139 84.5q47 50 66 124t19 177v936h201v-961q0 -171 -43 -283q-55 -143 -186 -216q-154 -85 -420 -85q-204 0 -333 47t-201 134z" />
    <glyph glyph-name="V" unicode="V" horiz-adv-x="1513" 
d="M47 1518h217l496 -1268l491 1268h217l-606 -1528h-211z" />
    <glyph glyph-name="W" unicode="W" horiz-adv-x="2218" 
d="M63 1518h216l368 -1182l377 1182h182l377 -1182l369 1182h202l-481 -1528h-182l-381 1190l-379 -1190h-184z" />
    <glyph glyph-name="X" unicode="X" horiz-adv-x="1491" 
d="M125 1518h229l398 -568l387 568h229l-507 -723l558 -795h-233l-447 640l-436 -640h-229l556 795z" />
    <glyph glyph-name="Y" unicode="Y" horiz-adv-x="1466" 
d="M20 1518h226l489 -756l494 756h215l-608 -939v-579h-205v574z" />
    <glyph glyph-name="Z" unicode="Z" horiz-adv-x="1376" 
d="M86 164l918 1155h-883v199h1143v-181l-914 -1147h936v-190h-1200v164z" />
    <glyph glyph-name="bracketleft" unicode="[" horiz-adv-x="975" 
d="M244 1589h532v-182h-330v-1569h336v-176h-538v1927z" />
    <glyph glyph-name="backslash" unicode="\" horiz-adv-x="1055" 
d="M0 1518h205l850 -1518h-205z" />
    <glyph glyph-name="bracketright" unicode="]" horiz-adv-x="975" 
d="M197 -162h331v1569h-333v182h534v-1927h-532v176z" />
    <glyph glyph-name="asciicircum" unicode="^" horiz-adv-x="1208" 
d="M496 1540h215l313 -336h-193l-231 207l-227 -207h-191z" />
    <glyph glyph-name="underscore" unicode="_" horiz-adv-x="928" 
d="M-76 -109h1080v-161h-1080v161z" />
    <glyph glyph-name="grave" unicode="`" horiz-adv-x="1208" 
d="M229 1591h244l303 -336h-184z" />
    <glyph glyph-name="a" unicode="a" horiz-adv-x="1284" 
d="M161 79q-81 81 -81 245q0 123 38 203t124 127t228 67t361 20h61q-1 61 -9.5 102t-35.5 71q-31 33 -87.5 49t-151.5 16q-99 0 -186.5 -27.5t-149.5 -68.5l-104 155q80 51 182 84q132 43 277 43t235 -25.5t140 -80.5q47 -52 65 -136.5t18 -213.5v-406q0 -44 3.5 -68
t14.5 -37t32.5 -17.5t62.5 -4.5v-174q-9 -4 -31 -4h-51q-47 0 -78 7t-54 23q-42 28 -62 99q-54 -75 -155.5 -111t-279.5 -36q-227 0 -326 99zM294 451q-24 -45 -24 -113q0 -63 23 -103.5t78 -61.5t149 -21q133 0 215 36t120 112.5t38 201.5v69h-51q-170 0 -288 -11
q-111 -11 -174 -37.5t-86 -71.5z" />
    <glyph glyph-name="b" unicode="b" horiz-adv-x="1343" 
d="M324 121l-37 -129l-140 14v1583h199v-563q47 72 147 105.5t271 33.5q270 0 387 -166q100 -144 100 -428q0 -137 -24.5 -244t-78.5 -182q-118 -165 -394 -165q-181 0 -279.5 33t-150.5 108zM981 267q68 96 68 296q0 99 -15.5 173.5t-50.5 127.5q-38 55 -102 83t-160 28
q-102 0 -172.5 -22t-114.5 -70t-65 -126.5t-21 -193.5q0 -114 20 -191.5t63 -123.5q44 -47 115 -68.5t175 -21.5q183 0 260 109z" />
    <glyph glyph-name="c" unicode="c" horiz-adv-x="1165" 
d="M206 144q-61 74 -87.5 180.5t-26.5 246.5q0 139 27 247t88 183q65 80 174.5 122t273.5 42q275 0 424 -170l-145 -137q-52 52 -115.5 83.5t-163.5 31.5q-202 0 -286 -107q-40 -51 -58 -125.5t-18 -173.5q0 -101 17.5 -175.5t57.5 -124.5q88 -109 287 -109q90 0 155.5 27.5
t133.5 88.5l133 -127q-85 -82 -183 -123q-102 -44 -247 -44q-310 0 -441 164z" />
    <glyph glyph-name="d" unicode="d" horiz-adv-x="1343" 
d="M194 147q-54 75 -78 182t-24 246q0 283 104 425q58 80 154 121.5t238 41.5q175 0 270 -33t137 -104v563h201v-1581l-154 -14l-22 133q-54 -77 -156 -112t-282 -35q-140 0 -235 42.5t-153 124.5zM910 256q44 48 64.5 127t20.5 192q0 115 -19.5 191t-63.5 123
q-43 46 -113 67t-174 21q-97 0 -161 -26.5t-102 -80.5q-36 -50 -51.5 -123.5t-15.5 -171.5q0 -99 15.5 -174t51.5 -126q39 -56 103 -84.5t160 -28.5q101 0 171 23t114 71z" />
    <glyph glyph-name="e" unicode="e" horiz-adv-x="1229" 
d="M197 151q-58 75 -81.5 180.5t-23.5 239.5q0 133 24.5 238.5t82.5 181.5q133 174 448 174q168 0 268 -53t150 -152q41 -82 52 -176.5t11 -212.5q0 -37 -2 -77h-841q4 -69 16.5 -123.5t47.5 -103.5q41 -58 114 -87.5t188 -29.5q127 0 207 28t156 84l106 -139
q-94 -75 -203 -110.5t-266 -35.5q-170 0 -280 44.5t-174 129.5zM938 670q-5 81 -15 134.5t-36 92.5q-61 92 -246 92q-112 0 -182.5 -29.5t-110.5 -87.5q-38 -56 -52 -135q-6 -31 -9 -67h651z" />
    <glyph glyph-name="f" unicode="f" horiz-adv-x="819" 
d="M59 1139h215v80q0 89 17.5 156t57.5 113q43 50 113.5 75.5t174.5 25.5h131v-174h-106q-107 0 -151 -55q-21 -26 -29.5 -60.5t-8.5 -80.5v-80h295v-181h-295v-958h-199v958h-215v181z" />
    <glyph glyph-name="g" unicode="g" horiz-adv-x="1251" 
d="M417 431l-13 -19q-15 -22 -15 -52q0 -25 11 -40t36 -23q24 -8 66.5 -11t113.5 -3q165 0 270 -15t168 -50q64 -36 92 -92.5t28 -143.5q0 -94 -31.5 -159.5t-99.5 -106.5q-70 -42 -179.5 -62.5t-265.5 -20.5q-148 0 -249 13t-165 43q-67 30 -98 85t-31 142q0 106 46 174
q53 81 171 105q-63 44 -63 137q0 61 25 112q12 23 26 44q-8 5 -24 17q-115 88 -115 277q0 195 115 289t368 94q24 0 72 -2l450 64v-164h-183q70 -39 108.5 -101t38.5 -180q0 -127 -51 -207.5t-158 -119.5t-277 -39q-105 0 -187 15zM893 782q0 109 -69.5 156t-219.5 47
q-108 0 -171 -20t-91.5 -64t-28.5 -119q0 -72 28.5 -116t92 -65t170.5 -21q106 0 169 21t91.5 65t28.5 116zM901 -162q39 22 55.5 54.5t16.5 78.5t-19 73.5t-61 42.5t-112 21.5t-177 6.5q-114 0 -183.5 -12t-105.5 -35q-34 -21 -46.5 -50.5t-12.5 -68.5q0 -45 19.5 -76
t61.5 -49q40 -18 104.5 -25.5t162.5 -7.5q113 0 184 11.5t113 35.5z" />
    <glyph glyph-name="h" unicode="h" horiz-adv-x="1294" 
d="M147 1589h199v-549q35 55 124 88q103 37 271 37q132 0 214 -32.5t126 -96.5q40 -59 55 -142.5t15 -199.5v-694h-199v655q0 84 -7 136.5t-32 89.5q-29 43 -85.5 65.5t-149.5 22.5q-196 0 -270 -95q-33 -43 -46.5 -103t-13.5 -140v-631h-201v1589z" />
    <glyph glyph-name="i" unicode="i" horiz-adv-x="516" 
d="M158 1518h200v-242h-200v242zM160 1139h196v-1139h-196v1139z" />
    <glyph glyph-name="j" unicode="j" horiz-adv-x="516" 
d="M158 1518h200v-242h-200v242zM4 -180h16q46 0 73.5 8.5t42.5 27.5q14 19 19 49.5t5 82.5v1151h196v-1149q0 -101 -13.5 -164t-47.5 -99q-35 -37 -96 -54t-158 -17h-37v164z" />
    <glyph glyph-name="k" unicode="k" horiz-adv-x="1143" 
d="M147 1589h197v-1035l504 585h221l-404 -473l445 -666h-221l-356 521l-189 -215v-306h-197v1589z" />
    <glyph glyph-name="l" unicode="l" horiz-adv-x="625" 
d="M216 65q-29 35 -42.5 91t-13.5 139v1294h196v-1272q0 -43 5 -68.5t17 -41.5q13 -16 38 -23.5t67 -7.5h45v-174q-25 -4 -112 -4q-73 0 -122 16t-78 51z" />
    <glyph glyph-name="m" unicode="m" horiz-adv-x="2052" 
d="M147 1128l158 11l17 -109q35 60 127 95q110 40 280 40q174 0 253 -39q37 -18 59.5 -44t35.5 -60q97 143 436 143q132 0 212 -32.5t123 -96.5q39 -58 52 -139.5t13 -202.5v-694h-201v655q0 85 -6 137t-28 89q-26 43 -80.5 65.5t-147.5 22.5q-193 0 -265 -95
q-32 -42 -44.5 -102t-12.5 -141v-631h-196v655q0 87 -6 138t-30 88q-28 43 -82 65.5t-146 22.5q-194 0 -265 -95q-31 -42 -43 -101t-12 -142v-631h-201v1128z" />
    <glyph glyph-name="n" unicode="n" horiz-adv-x="1294" 
d="M147 1128l158 11l17 -109q46 62 133 95q108 40 286 40q132 0 214 -32.5t126 -96.5q40 -59 55 -142.5t15 -199.5v-694h-199v655q0 84 -7 136.5t-32 89.5q-29 43 -85.5 65.5t-149.5 22.5q-196 0 -270 -95q-33 -43 -46.5 -103t-13.5 -140v-631h-201v1128z" />
    <glyph glyph-name="o" unicode="o" horiz-adv-x="1309" 
d="M222 128q-130 144 -130 443q0 300 130 444q68 75 174.5 112.5t256.5 37.5q151 0 258 -37.5t175 -112.5q131 -146 131 -444q0 -297 -131 -443q-68 -76 -175 -113.5t-258 -37.5q-150 0 -256.5 37.5t-174.5 113.5zM934 263q80 97 80 304q0 205 -83.5 306.5t-277.5 101.5
t-277 -101.5t-83 -306.5q0 -207 80 -304q87 -105 280 -105q100 0 169 26t112 79z" />
    <glyph glyph-name="p" unicode="p" horiz-adv-x="1343" 
d="M147 1128l158 11l17 -121q46 74 151 110.5t291 36.5q270 0 387 -165q100 -142 100 -429q0 -137 -24 -243.5t-78 -180.5q-59 -81 -155.5 -123t-237.5 -42q-175 0 -269.5 33t-138.5 104v-457h-201v1466zM981 270q68 97 68 295q0 99 -15.5 173.5t-50.5 126.5q-38 54 -102 82
t-160 28q-101 0 -172 -22t-115 -69t-65 -125.5t-21 -193.5q0 -114 19.5 -190.5t63.5 -123.5q43 -47 114 -68t176 -21q184 0 260 108z" />
    <glyph glyph-name="q" unicode="q" horiz-adv-x="1343" 
d="M995 115q-54 -72 -149 -104q-92 -31 -264 -31q-140 0 -235 42.5t-153 124.5q-55 75 -78.5 181t-23.5 245q0 138 24.5 245t79.5 182q58 80 154 122.5t238 42.5q184 0 283 -33q50 -18 85.5 -43t63.5 -61l37 125l139 -12v-1479h-201v453zM910 256q44 48 64.5 126t20.5 191
q0 115 -19.5 191.5t-63.5 123.5q-43 47 -113 68t-174 21q-97 0 -161 -26.5t-102 -80.5q-36 -50 -51.5 -123.5t-15.5 -173.5q0 -99 15.5 -173t51.5 -126q38 -56 102 -84t161 -28q101 0 171 23t114 71z" />
    <glyph glyph-name="r" unicode="r" horiz-adv-x="760" 
d="M147 1128l158 11l21 -140q35 65 136.5 107.5t248.5 46.5v-201q-193 0 -284 -99q-79 -86 -79 -253v-600h-201v1128z" />
    <glyph glyph-name="s" unicode="s" horiz-adv-x="1098" 
d="M51 113l103 155q93 -59 197 -86.5t204 -27.5q102 0 160 14t86 50t28 104q0 40 -14 66t-47 45q-31 17 -80.5 29t-132.5 25q-123 23 -197 43.5t-127 53.5q-61 38 -91.5 99t-30.5 157q0 161 105 243t341 82q130 0 240.5 -26t193.5 -74l-94 -164q-70 37 -155 58.5t-181 21.5
q-143 0 -200 -36q-52 -34 -52 -105q0 -41 13.5 -66.5t44.5 -43.5q28 -18 75 -30.5t123 -25.5q126 -23 203 -43t132 -52q62 -37 93 -96.5t31 -152.5q0 -99 -27.5 -165.5t-85.5 -107.5q-57 -40 -147.5 -58.5t-218.5 -18.5q-136 0 -259.5 30t-232.5 103z" />
    <glyph glyph-name="t" unicode="t" horiz-adv-x="856" 
d="M59 1139h207l35 323l158 31v-354h301v-181h-301v-620q0 -43 5 -71t20 -47q17 -22 50 -33t89 -11h137v-176q-18 0 -34 -1t-51 -1h-87q-101 0 -165 19t-100 59q-35 37 -49 94t-14 141v647h-201v181z" />
    <glyph glyph-name="u" unicode="u" horiz-adv-x="1280" 
d="M228 110q-50 60 -68.5 150.5t-18.5 226.5v652h199v-656q0 -87 6.5 -137.5t32.5 -90.5q31 -46 93 -69.5t171 -23.5t172 23.5t93 69.5q25 39 30.5 89.5t5.5 144.5v650h195v-645q0 -140 -17.5 -231t-65.5 -152q-52 -67 -151.5 -99t-261.5 -32q-161 0 -261 32t-154 98z" />
    <glyph glyph-name="v" unicode="v" horiz-adv-x="1151" 
d="M14 1139h213l351 -912l350 912h207l-453 -1149h-215z" />
    <glyph glyph-name="w" unicode="w" horiz-adv-x="1819" 
d="M27 1139h209l294 -860l283 860h197l282 -858l297 858h203l-401 -1149h-199l-283 848l-282 -848h-201z" />
    <glyph glyph-name="x" unicode="x" horiz-adv-x="1139" 
d="M70 1139h221l286 -400l279 400h215l-390 -546l425 -593h-223l-322 450l-311 -450h-217l425 595z" />
    <glyph glyph-name="y" unicode="y" horiz-adv-x="1114" 
d="M14 1139h213l335 -889l331 889h209l-484 -1235q-48 -133 -126 -189q-80 -59 -230 -59h-51q-29 0 -53 2v162h88q57 0 90 9t52.5 31t33.5 64l34 89z" />
    <glyph glyph-name="z" unicode="z" horiz-adv-x="1049" 
d="M61 145l650 813h-617v181h877v-150l-652 -819h674v-170h-932v145z" />
    <glyph glyph-name="braceleft" unicode="{" horiz-adv-x="1051" 
d="M674 -338q-131 0 -210.5 29.5t-116 89.5t-36.5 153q0 45 14 103.5t42 156.5l9 33q23 79 34.5 127.5t11.5 79.5q0 66 -59 86q-58 19 -203 19v172q135 0 200 17q62 17 62 91q0 31 -11.5 79.5t-34.5 127.5l-9 33q-27 92 -41.5 153t-14.5 105q0 93 36.5 153t116 89.5
t210.5 29.5h184v-182h-143q-79 0 -122 -14t-60 -44.5t-17 -84.5q0 -27 10 -69t33 -124q3 -8 10 -34q24 -86 38 -149t14 -104q0 -124 -121 -157q64 -23 92.5 -62t28.5 -98q0 -42 -13.5 -102t-38.5 -153l-11 -41q-22 -78 -32 -120t-10 -67q0 -54 17 -85.5t60 -46t122 -14.5
h143v-176h-184z" />
    <glyph glyph-name="bar" unicode="|" horiz-adv-x="692" 
d="M244 1589h202v-1927h-202v1927z" />
    <glyph glyph-name="braceright" unicode="}" horiz-adv-x="1051" 
d="M193 -162h145q79 0 122 14.5t60 46t17 85.5q0 29 -13 80t-40 148q-25 86 -39.5 149t-14.5 106q0 120 121 160q-64 20 -92.5 59t-28.5 98q0 74 54 253q27 92 40 144t13 83q0 54 -17 84.5t-60 44.5t-122 14h-145v182h186q131 0 210 -29.5t114.5 -89t35.5 -153.5
q0 -44 -14 -105t-40 -153l-6 -19q-25 -86 -37.5 -137t-12.5 -84q0 -35 14 -55.5t45 -31.5q29 -11 77.5 -15t125.5 -4v-172q-136 0 -199 -17q-63 -18 -63 -90q0 -33 12.5 -84t37.5 -137l6 -19q27 -98 40.5 -156.5t13.5 -103.5q0 -94 -35.5 -153.5t-114.5 -89t-210 -29.5h-186
v176z" />
    <glyph glyph-name="asciitilde" unicode="~" horiz-adv-x="1208" 
d="M184 936q63 78 134.5 124t140.5 46q47 0 81.5 -13t76.5 -38q45 -28 70 -40t56 -12q36 0 76.5 29.5t87.5 83.5l117 -94q-65 -83 -136.5 -134t-139.5 -51q-42 0 -75 13t-79 39l-21 12q-36 20 -59.5 29.5t-50.5 9.5q-36 0 -76.5 -26t-79.5 -74z" />
    <glyph glyph-name="uni00A0" unicode="&#xa0;" horiz-adv-x="471" 
 />
    <glyph glyph-name="exclamdown" unicode="&#xa1;" horiz-adv-x="758" 
d="M254 1518h250v-267h-250v267zM291 1083h176l20 -1083h-219z" />
    <glyph glyph-name="cent" unicode="&#xa2;" horiz-adv-x="1159" 
d="M551 1286h188v-129q100 -10 185 -50.5t149 -111.5l-141 -133q-95 95 -205 110v-814q54 7 103.5 31.5t111.5 80.5l131 -123q-47 -42 -90.5 -71.5t-91.5 -48.5q-49 -20 -111 -31q-25 -4 -41 -5v-184h-188v183q-230 20 -342 157q-61 73 -87 178.5t-26 245.5t26 246.5
t87 180.5q110 135 342 158v130zM308 740q-19 -75 -19 -173q0 -100 18 -175t59 -127q67 -86 197 -105v810q-45 -6 -83 -21q-134 -52 -172 -209z" />
    <glyph glyph-name="sterling" unicode="&#xa3;" horiz-adv-x="1284" 
d="M66 864h195l-22 94q-22 98 -22 183q0 190 102 291q114 112 363 112q124 0 222.5 -19t193.5 -61l-78 -174q-142 66 -342 66q-145 0 -210 -65q-54 -55 -54 -175q0 -58 10.5 -113t30.5 -139h446v-164h-407l7 -28q20 -86 31 -149.5t11 -125.5q0 -92 -16 -160q94 -43 198 -63
q62 -12 125 -12q57 0 93.5 11t55.5 35q18 22 24.5 57.5t6.5 94.5v54h174v-60q0 -103 -18 -172.5t-58 -112.5q-41 -44 -108 -64.5t-166 -20.5q-153 0 -301 52q-63 23 -117 51q-52 -42 -136 -64.5t-220 -22.5v172q98 0 155.5 12.5t85.5 40.5q25 25 33 63.5t8 104.5
q0 58 -13 122.5t-38 156.5l-7 28h-238v164z" />
    <glyph glyph-name="currency" unicode="&#xa4;" horiz-adv-x="1187" 
d="M239 1028l-100 100l104 103l99 -101q114 82 254 82q138 0 251 -80l97 97l104 -105l-96 -96q80 -118 80 -252q0 -138 -82 -252l100 -100l-102 -105l-101 101q-115 -78 -251 -78q-71 0 -135.5 20.5t-116.5 59.5l-105 -105l-102 105l102 102q-78 115 -78 252t78 252z
M398 580q39 -39 90 -60.5t108 -21.5q56 0 107 21.5t91 60.5q39 39 60.5 90t21.5 108t-21.5 108t-60.5 90q-40 39 -91 61t-107 22q-57 0 -108 -22t-90 -61q-40 -39 -61.5 -90t-21.5 -108t21.5 -108t61.5 -90z" />
    <glyph glyph-name="yen" unicode="&#xa5;" horiz-adv-x="1311" 
d="M139 324h418v149h-418v170h418v14l-528 861h211l415 -689l416 689h211l-528 -856v-19h417v-170h-417v-149h417v-168h-417v-156h-197v156h-418v168z" />
    <glyph glyph-name="brokenbar" unicode="&#xa6;" horiz-adv-x="692" 
d="M244 1589h202v-803h-202v803zM244 465h202v-803h-202v803z" />
    <glyph glyph-name="section" unicode="&#xa7;" horiz-adv-x="1147" 
d="M455 1159q0 90 12.5 154.5t48.5 111.5q41 52 113.5 79.5t189.5 27.5q105 0 133 -4v-172h-110q-64 0 -101.5 -14t-57.5 -41q-17 -25 -23.5 -58.5t-6.5 -81.5v-93q182 -12 280.5 -83.5t98.5 -226.5q0 -149 -92.5 -217t-259.5 -84v-101q0 -88 -12.5 -152.5t-47.5 -111.5
q-79 -108 -305 -108q-100 0 -131 4v166h111q62 0 99.5 13.5t57.5 41.5q18 25 23.5 57t5.5 82v108q-176 13 -271 82t-95 220q0 153 89.5 222t250.5 85v94zM868 754q0 88 -71 126t-226 38q-152 0 -221 -37.5t-69 -126.5q0 -87 69.5 -125.5t220.5 -38.5q154 0 225.5 38.5
t71.5 125.5z" />
    <glyph glyph-name="dieresis" unicode="&#xa8;" horiz-adv-x="1208" 
d="M293 1491h182v-229h-182v229zM735 1491h180v-229h-180v229z" />
    <glyph glyph-name="copyright" unicode="&#xa9;" horiz-adv-x="1692" 
d="M273 197q-94 103 -141.5 247t-47.5 316t47.5 316t141.5 247q97 107 239.5 164t329.5 57q186 0 330.5 -57t241.5 -164q94 -103 142 -247t48 -316t-48 -316t-142 -247q-97 -107 -241.5 -164.5t-330.5 -57.5q-187 0 -329.5 57t-239.5 165zM1354 260q81 91 121.5 218.5
t40.5 281.5q0 153 -40.5 280.5t-121.5 219.5q-84 94 -213 145t-299 51q-337 0 -509 -196q-80 -91 -119.5 -218.5t-39.5 -281.5q0 -155 39.5 -282t119.5 -218q83 -95 210 -146t299 -51q170 0 299 51t213 146zM356 768q0 259 139 392q65 62 159 93t210 31q230 0 363 -129
l-94 -100q-112 98 -271 98q-176 0 -270 -97t-94 -288q0 -190 92 -288.5t274 -98.5q97 0 162.5 26.5t116.5 73.5l90 -92q-64 -64 -152.5 -101.5t-222.5 -37.5q-249 0 -375.5 131t-126.5 387z" />
    <glyph glyph-name="ordfeminine" unicode="&#xaa;" horiz-adv-x="1221" 
d="M200 658q-71 67 -71 202q0 99 36.5 165t111.5 103q73 37 188 53.5t276 16.5h42q-1 49 -8 82.5t-27 56.5q-22 25 -67.5 37t-119.5 12q-77 0 -147.5 -22t-118.5 -53l-88 127q48 35 146 67q112 35 225 35q118 0 190 -20.5t112 -65.5q38 -43 52 -110.5t14 -174.5v-321
q0 -37 3.5 -56.5t12.5 -30.5t26.5 -14.5t51.5 -3.5v-149q-15 0 -24 -1q-10 -1 -39 -1q-47 0 -77.5 5.5t-49.5 20.5q-21 15 -32 41t-17 72q-22 -41 -49.5 -68.5t-67.5 -46.5q-80 -38 -231 -38q-170 0 -253 80zM311 967q-22 -37 -22 -95q0 -74 47.5 -112.5t152.5 -38.5
q150 0 222.5 68.5t72.5 216.5v59h-32q-136 0 -225 -9q-90 -9 -142.5 -30.5t-73.5 -58.5zM215 438h735v-151h-735v151z" />
    <glyph glyph-name="guillemotleft" unicode="&#xab;" horiz-adv-x="1436" 
d="M199 567l309 572h176l-297 -572l297 -567h-176zM698 567l310 572h178l-295 -572l295 -567h-178z" />
    <glyph glyph-name="logicalnot" unicode="&#xac;" horiz-adv-x="1440" 
d="M1229 813v-592h-201v410h-817v182h1018z" />
    <glyph glyph-name="uni00AD" unicode="&#xad;" horiz-adv-x="911" 
d="M98 735h711v-186h-711v186z" />
    <glyph glyph-name="registered" unicode="&#xae;" horiz-adv-x="1692" 
d="M273 197q-94 103 -141.5 247t-47.5 316t47.5 316t141.5 247q97 107 239.5 164t329.5 57q186 0 330.5 -57t241.5 -164q94 -103 142 -247t48 -316t-48 -316t-142 -247q-97 -107 -241.5 -164.5t-330.5 -57.5q-187 0 -329.5 57t-239.5 165zM1354 260q81 91 121.5 218.5
t40.5 281.5q0 153 -40.5 280.5t-121.5 219.5q-84 94 -213 145t-299 51q-337 0 -509 -196q-80 -91 -119.5 -218.5t-39.5 -281.5q0 -155 39.5 -282t119.5 -218q83 -95 210 -146t299 -51q170 0 299 51t213 146zM477 1249h438q188 0 269 -75q38 -35 54.5 -90t16.5 -130t-17 -130
t-55 -92q-42 -39 -107 -59q-33 -10 -55 -13l232 -398h-141l-223 391h-281v-391h-131v987zM913 770q75 0 120.5 16.5t68 55.5t22.5 108q0 68 -21.5 107t-67.5 55t-124 16h-303v-358h305z" />
    <glyph glyph-name="macron" unicode="&#xaf;" horiz-adv-x="1208" 
d="M219 1413h770v-170h-770v170z" />
    <glyph glyph-name="degree" unicode="&#xb0;" horiz-adv-x="1165" 
d="M232 703q-54 64 -80.5 153t-26.5 197q0 107 26.5 196.5t80.5 153.5q57 67 144.5 103t205.5 36q117 0 205.5 -36t144.5 -103q54 -65 81 -154.5t27 -195.5q0 -107 -27 -196.5t-81 -153.5q-56 -67 -144 -103.5t-206 -36.5q-232 0 -350 140zM810 813q67 80 67 236
q0 155 -67 235q-77 92 -228 92q-152 0 -228 -92q-65 -79 -65 -235q0 -157 65 -236q76 -92 228 -92q151 0 228 92z" />
    <glyph glyph-name="plusminus" unicode="&#xb1;" horiz-adv-x="1440" 
d="M621 627h-410v190h410v408h196v-408h412v-190h-412v-408h-196v408zM211 215h1018v-186h-1018v186z" />
    <glyph glyph-name="uni00B2" unicode="&#xb2;" horiz-adv-x="942" 
d="M129 688l301 285q70 67 102.5 100.5t51.5 62.5q20 31 28.5 61t8.5 69q0 68 -41.5 99.5t-143.5 31.5q-71 0 -136 -15.5t-110 -40.5l-69 121q67 35 144.5 52.5t189.5 17.5q163 0 242 -59t79 -191q0 -57 -12 -101t-40 -86q-26 -40 -67.5 -84.5t-107.5 -107.5l-209 -201h446
v-131h-657v117z" />
    <glyph glyph-name="uni00B3" unicode="&#xb3;" horiz-adv-x="979" 
d="M102 653l80 117q69 -41 134.5 -58.5t144.5 -17.5q78 0 123 14.5t66.5 51t21.5 102.5q0 45 -10 74.5t-35 48.5q-27 19 -72 28t-115 9h-141v127h137q62 0 100 5.5t62 19.5t34.5 38t10.5 64q0 46 -18.5 72t-58.5 36.5t-109 10.5q-71 0 -138.5 -17t-119.5 -47l-76 117
q66 41 160.5 63.5t193.5 22.5q172 0 249 -54.5t77 -172.5q0 -87 -31 -138t-98 -73q81 -23 118 -83.5t37 -166.5q0 -105 -38.5 -168t-116.5 -91t-201 -28q-113 0 -198 22t-173 72z" />
    <glyph glyph-name="acute" unicode="&#xb4;" horiz-adv-x="1208" 
d="M735 1591h244l-363 -336h-184z" />
    <glyph glyph-name="uni00B5" unicode="&#xb5;" horiz-adv-x="1298" 
d="M334 17v-355h-187v1477h199v-652q0 -81 9 -137t35 -96q29 -45 84.5 -68.5t145.5 -23.5q192 0 270 99q33 42 45.5 102.5t12.5 144.5v631h199v-1131l-152 -14l-22 125q-46 -65 -148.5 -103.5t-263.5 -38.5q-134 0 -227 40z" />
    <glyph glyph-name="paragraph" unicode="&#xb6;" horiz-adv-x="1300" 
d="M928 565h-230v-565h-188v572q-85 10 -160 36.5t-131 82.5q-61 60 -88 148t-27 210q0 120 28 207t89 144q63 59 166.5 88.5t255.5 29.5h473v-1518h-188v565zM928 733v600h-289q-95 0 -157.5 -14.5t-101.5 -47.5t-57 -90.5t-18 -142.5q0 -113 33.5 -179t105.5 -96t191 -30
h293z" />
    <glyph glyph-name="periodcentered" unicode="&#xb7;" horiz-adv-x="518" 
d="M133 836h250v-275h-250v275z" />
    <glyph glyph-name="cedilla" unicode="&#xb8;" horiz-adv-x="1208" 
d="M369 -414l55 105q83 -47 184 -47q87 0 120.5 26t33.5 74q0 54 -42 74q-30 13 -98 13q-31 0 -49 -1l-49 35l29 149h121l-19 -104q13 1 38 1q85 0 132 -25q74 -42 74 -154q0 -104 -67 -155.5t-216 -51.5q-140 0 -247 61z" />
    <glyph glyph-name="uni00B9" unicode="&#xb9;" horiz-adv-x="696" 
d="M307 1378h-182v140h340v-947h-158v807z" />
    <glyph glyph-name="ordmasculine" unicode="&#xba;" horiz-adv-x="1223" 
d="M158 1063q0 238 111 358.5t343 120.5q453 0 453 -479q0 -239 -112 -360t-341 -121q-232 0 -343 121t-111 360zM897 1059q0 161 -69.5 242t-215.5 81q-147 0 -216.5 -81t-69.5 -242t69.5 -242.5t216.5 -81.5q146 0 215.5 81.5t69.5 242.5zM215 438h793v-155h-793v155z" />
    <glyph glyph-name="guillemotright" unicode="&#xbb;" horiz-adv-x="1436" 
d="M547 569l-295 570h176l309 -570l-309 -569h-176zM1047 569l-295 570h178l309 -570l-309 -569h-178z" />
    <glyph glyph-name="onequarter" unicode="&#xbc;" horiz-adv-x="1878" 
d="M1228 1518h182l-852 -1518h-180zM1022 328l420 619h170l-418 -615h302l28 285h121v-285h158v-127h-158v-205h-150v205h-473v123zM291 1378h-182v140h340v-947h-158v807z" />
    <glyph glyph-name="onehalf" unicode="&#xbd;" horiz-adv-x="2009" 
d="M1228 1518h182l-852 -1518h-180zM292 1378h-182v140h340v-947h-158v807zM1204 115l301 285q70 67 102.5 100.5t51.5 62.5q20 31 28.5 61t8.5 69q0 68 -41.5 99.5t-143.5 31.5q-71 0 -136 -15.5t-110 -40.5l-69 121q67 35 144.5 52.5t189.5 17.5q163 0 242 -59t79 -191
q0 -57 -12 -101t-40 -86q-26 -40 -67.5 -84.5t-107.5 -107.5l-209 -201h446v-131h-657v117z" />
    <glyph glyph-name="threequarters" unicode="&#xbe;" horiz-adv-x="2093" 
d="M1442 1518h182l-852 -1518h-180zM1233 328l420 619h170l-418 -615h302l28 285h121v-285h158v-127h-158v-205h-150v205h-473v123zM77 653l80 117q69 -41 134.5 -58.5t144.5 -17.5q78 0 123 14.5t66.5 51t21.5 102.5q0 45 -10 74.5t-35 48.5q-27 19 -72 28t-115 9h-141v127
h137q62 0 100 5.5t62 19.5t34.5 38t10.5 64q0 46 -18.5 72t-58.5 36.5t-109 10.5q-71 0 -138.5 -17t-119.5 -47l-76 117q66 41 160.5 63.5t193.5 22.5q172 0 249 -54.5t77 -172.5q0 -87 -31 -138t-98 -73q81 -23 118 -83.5t37 -166.5q0 -105 -38.5 -168t-116.5 -91t-201 -28
q-113 0 -198 22t-173 72z" />
    <glyph glyph-name="questiondown" unicode="&#xbf;" horiz-adv-x="1380" 
d="M606 1522h250v-242h-250v242zM270 72q-59 46 -85.5 114.5t-26.5 167.5q0 77 18.5 134.5t55.5 103.5q34 43 85 79t123 72q75 40 115.5 70.5t58.5 67.5q12 25 17.5 55.5t5.5 72.5q0 48 -4 99h194q10 -85 10 -135q0 -99 -32 -164q-26 -52 -75 -93t-134 -85
q-76 -41 -117.5 -67.5t-66.5 -52.5q-27 -28 -38.5 -60.5t-11.5 -79.5q0 -51 12.5 -87.5t44.5 -60.5q73 -55 265 -55q120 0 233.5 27.5t208.5 76.5l84 -174q-101 -54 -247.5 -86t-292.5 -32t-243 22.5t-157 69.5z" />
    <glyph glyph-name="Agrave" unicode="&#xc0;" horiz-adv-x="1518" 
d="M653 1528h211l609 -1528h-213l-125 319h-758l-125 -319h-207zM1061 510l-307 770l-308 -770h615zM381 1941h244l303 -336h-184z" />
    <glyph glyph-name="Aacute" unicode="&#xc1;" horiz-adv-x="1518" 
d="M653 1528h211l609 -1528h-213l-125 319h-758l-125 -319h-207zM1061 510l-307 770l-308 -770h615zM887 1941h244l-363 -336h-184z" />
    <glyph glyph-name="Acircumflex" unicode="&#xc2;" horiz-adv-x="1518" 
d="M653 1528h211l609 -1528h-213l-125 319h-758l-125 -319h-207zM1061 510l-307 770l-308 -770h615zM648 1941h215l313 -336h-193l-231 207l-227 -207h-191z" />
    <glyph glyph-name="Atilde" unicode="&#xc3;" horiz-adv-x="1518" 
d="M653 1528h211l609 -1528h-213l-125 319h-758l-125 -319h-207zM1061 510l-307 770l-308 -770h615zM336 1706q63 78 134.5 124t140.5 46q47 0 81.5 -13t76.5 -38q45 -28 70 -40t56 -12q36 0 76.5 29.5t87.5 83.5l117 -94q-65 -83 -136.5 -134t-139.5 -51q-42 0 -75 13
t-79 39l-21 12q-36 20 -59.5 29.5t-50.5 9.5q-36 0 -76.5 -26t-79.5 -74z" />
    <glyph glyph-name="Adieresis" unicode="&#xc4;" horiz-adv-x="1518" 
d="M653 1528h211l609 -1528h-213l-125 319h-758l-125 -319h-207zM1061 510l-307 770l-308 -770h615zM445 1841h182v-229h-182v229zM887 1841h180v-229h-180v229z" />
    <glyph glyph-name="Aring" unicode="&#xc5;" horiz-adv-x="1520" 
d="M616 1434q-114 65 -114 231q0 118 63.5 191t192.5 73q85 0 143 -34.5t86.5 -94t28.5 -135.5q0 -79 -28.5 -138.5t-86.5 -90.5l574 -1436h-211l-127 317h-762l-123 -317h-207zM905 1665q0 71 -35.5 113.5t-111.5 42.5q-74 0 -111 -43t-37 -113t36.5 -112t111.5 -42
q76 0 111.5 41.5t35.5 112.5zM1063 508l-307 772l-307 -772h614z" />
    <glyph glyph-name="AE" unicode="&#xc6;" horiz-adv-x="2234" 
d="M985 1518h1126v-199h-833v-440h813v-191h-813v-498h842v-190h-1041v319h-639l-204 -319h-205zM1079 498v835l-534 -835h534z" />
    <glyph glyph-name="Ccedilla" unicode="&#xc7;" horiz-adv-x="1497" 
d="M510 -414l55 105q83 -47 185 -47q87 0 120 26t33 74t-31.5 68t-106.5 20q-14 0 -50 -2l-49 35l22 121q-309 36 -456.5 230.5t-147.5 543.5q0 396 201 592q194 190 567 190q173 0 308 -49.5t241 -149.5l-150 -149q-160 149 -401 149q-557 0 -557 -585q0 -294 135 -440
t424 -146q151 0 255 47q45 19 81 45.5t76 63.5l147 -142q-95 -95 -210 -145q-148 -64 -359 -64h-33l-12 -67q13 1 37 1q85 0 132 -25q74 -42 74 -154q0 -104 -67 -155.5t-215 -51.5q-141 0 -248 61z" />
    <glyph glyph-name="Egrave" unicode="&#xc8;" horiz-adv-x="1335" 
d="M172 1518h1038v-199h-831v-436h811v-197h-811v-496h840v-190h-1047v1518zM288 1941h244l303 -336h-184z" />
    <glyph glyph-name="Eacute" unicode="&#xc9;" horiz-adv-x="1335" 
d="M172 1518h1038v-199h-831v-436h811v-197h-811v-496h840v-190h-1047v1518zM794 1941h244l-363 -336h-184z" />
    <glyph glyph-name="Ecircumflex" unicode="&#xca;" horiz-adv-x="1335" 
d="M172 1518h1038v-199h-831v-436h811v-197h-811v-496h840v-190h-1047v1518zM555 1941h215l313 -336h-193l-231 207l-227 -207h-191z" />
    <glyph glyph-name="Edieresis" unicode="&#xcb;" horiz-adv-x="1335" 
d="M172 1518h1038v-199h-831v-436h811v-197h-811v-496h840v-190h-1047v1518zM352 1841h182v-229h-182v229zM794 1841h180v-229h-180v229z" />
    <glyph glyph-name="Igrave" unicode="&#xcc;" horiz-adv-x="582" 
d="M-127 1939h250l270 -333h-188zM188 1518h205v-1518h-205v1518z" />
    <glyph glyph-name="Iacute" unicode="&#xcd;" horiz-adv-x="582" 
d="M457 1939h250l-330 -333h-189zM188 1518h205v-1518h-205v1518z" />
    <glyph glyph-name="Icircumflex" unicode="&#xce;" horiz-adv-x="582" 
d="M184 1939h211l271 -333h-195l-184 211l-183 -211h-190zM188 1518h205v-1518h-205v1518z" />
    <glyph glyph-name="Idieresis" unicode="&#xcf;" horiz-adv-x="582" 
d="M188 1518h205v-1518h-205v1518zM-14 1841h182v-229h-182v229zM428 1841h180v-229h-180v229z" />
    <glyph glyph-name="Eth" unicode="&#xd0;" horiz-adv-x="1559" 
d="M0 866h172v652h508q223 0 372.5 -37t243.5 -121q94 -85 137.5 -231t43.5 -369q0 -216 -48.5 -363t-148.5 -235q-97 -86 -250.5 -124t-372.5 -38h-485v694h-172v172zM668 190q174 0 289 30.5t184 97.5q68 66 97.5 173t29.5 269q0 166 -26.5 271.5t-90.5 169.5
q-65 64 -177 92t-292 28h-303v-455h328v-172h-328v-504h289z" />
    <glyph glyph-name="Ntilde" unicode="&#xd1;" horiz-adv-x="1620" 
d="M172 1518h225l850 -1170v1170h201v-1518h-191l-884 1214v-1214h-201v1518zM385 1706q63 78 134.5 124t140.5 46q47 0 81.5 -13t76.5 -38q45 -28 70 -40t56 -12q36 0 76.5 29.5t87.5 83.5l117 -94q-65 -83 -136.5 -134t-139.5 -51q-42 0 -75 13t-79 39l-21 12
q-36 20 -59.5 29.5t-50.5 9.5q-36 0 -76.5 -26t-79.5 -74z" />
    <glyph glyph-name="Ograve" unicode="&#xd2;" horiz-adv-x="1718" 
d="M289 161q-205 194 -205 599q0 403 205 597q195 185 569 185q375 0 570 -185q204 -193 204 -597q0 -406 -204 -599q-196 -186 -570 -186q-373 0 -569 186zM1425 756q0 289 -138 438t-429 149t-428 -149t-137 -438q0 -290 137 -439t428 -149t429 149.5t138 438.5zM481 1941
h244l303 -336h-184z" />
    <glyph glyph-name="Oacute" unicode="&#xd3;" horiz-adv-x="1718" 
d="M289 161q-205 194 -205 599q0 403 205 597q195 185 569 185q375 0 570 -185q204 -193 204 -597q0 -406 -204 -599q-196 -186 -570 -186q-373 0 -569 186zM1425 756q0 289 -138 438t-429 149t-428 -149t-137 -438q0 -290 137 -439t428 -149t429 149.5t138 438.5zM987 1941
h244l-363 -336h-184z" />
    <glyph glyph-name="Ocircumflex" unicode="&#xd4;" horiz-adv-x="1718" 
d="M289 161q-205 194 -205 599q0 403 205 597q195 185 569 185q375 0 570 -185q204 -193 204 -597q0 -406 -204 -599q-196 -186 -570 -186q-373 0 -569 186zM1425 756q0 289 -138 438t-429 149t-428 -149t-137 -438q0 -290 137 -439t428 -149t429 149.5t138 438.5zM748 1941
h215l313 -336h-193l-231 207l-227 -207h-191z" />
    <glyph glyph-name="Otilde" unicode="&#xd5;" horiz-adv-x="1718" 
d="M289 161q-205 194 -205 599q0 403 205 597q195 185 569 185q375 0 570 -185q204 -193 204 -597q0 -406 -204 -599q-196 -186 -570 -186q-373 0 -569 186zM1425 756q0 289 -138 438t-429 149t-428 -149t-137 -438q0 -290 137 -439t428 -149t429 149.5t138 438.5zM436 1706
q63 78 134.5 124t140.5 46q47 0 81.5 -13t76.5 -38q45 -28 70 -40t56 -12q36 0 76.5 29.5t87.5 83.5l117 -94q-65 -83 -136.5 -134t-139.5 -51q-42 0 -75 13t-79 39l-21 12q-36 20 -59.5 29.5t-50.5 9.5q-36 0 -76.5 -26t-79.5 -74z" />
    <glyph glyph-name="Odieresis" unicode="&#xd6;" horiz-adv-x="1718" 
d="M289 161q-205 194 -205 599q0 403 205 597q195 185 569 185q375 0 570 -185q204 -193 204 -597q0 -406 -204 -599q-196 -186 -570 -186q-373 0 -569 186zM1425 756q0 289 -138 438t-429 149t-428 -149t-137 -438q0 -290 137 -439t428 -149t429 149.5t138 438.5zM545 1841
h182v-229h-182v229zM987 1841h180v-229h-180v229z" />
    <glyph glyph-name="multiply" unicode="&#xd7;" horiz-adv-x="1440" 
d="M276 401l320 320l-320 319l123 129l322 -321l317 321l123 -129l-319 -319l319 -318l-123 -127l-317 320l-324 -320z" />
    <glyph glyph-name="Oslash" unicode="&#xd8;" horiz-adv-x="1718" 
d="M526 20l-59 -104h-199l101 176q-47 32 -87 69q-198 192 -198 599q0 406 199 597q191 185 575 185q176 0 313 -39l58 101h196l-96 -168q60 -36 104 -79q199 -191 199 -597q0 -407 -198 -599q-193 -186 -576 -186q-188 0 -332 45zM417 1196q-67 -74 -98.5 -183.5
t-31.5 -256.5t31 -257t98 -184q27 -29 59 -53l604 1063q-94 25 -221 25q-154 0 -263 -38.5t-178 -115.5zM1302 316q67 74 98.5 183.5t31.5 256.5t-31.5 256.5t-99.5 183.5q-35 38 -78 66l-607 -1069q100 -31 242 -31q304 0 444 154z" />
    <glyph glyph-name="Ugrave" unicode="&#xd9;" horiz-adv-x="1614" 
d="M271 154q-62 75 -85.5 175.5t-23.5 227.5v961h207v-936q0 -101 18.5 -175t64.5 -125q49 -56 136 -85t219 -29q134 0 222 28.5t139 84.5q47 50 66 124t19 177v936h201v-961q0 -171 -43 -283q-55 -143 -186 -216q-154 -85 -420 -85q-204 0 -333 47t-201 134zM428 1941h244
l303 -336h-184z" />
    <glyph glyph-name="Uacute" unicode="&#xda;" horiz-adv-x="1614" 
d="M271 154q-62 75 -85.5 175.5t-23.5 227.5v961h207v-936q0 -101 18.5 -175t64.5 -125q49 -56 136 -85t219 -29q134 0 222 28.5t139 84.5q47 50 66 124t19 177v936h201v-961q0 -171 -43 -283q-55 -143 -186 -216q-154 -85 -420 -85q-204 0 -333 47t-201 134zM934 1941h244
l-363 -336h-184z" />
    <glyph glyph-name="Ucircumflex" unicode="&#xdb;" horiz-adv-x="1614" 
d="M271 154q-62 75 -85.5 175.5t-23.5 227.5v961h207v-936q0 -101 18.5 -175t64.5 -125q49 -56 136 -85t219 -29q134 0 222 28.5t139 84.5q47 50 66 124t19 177v936h201v-961q0 -171 -43 -283q-55 -143 -186 -216q-154 -85 -420 -85q-204 0 -333 47t-201 134zM695 1941h215
l313 -336h-193l-231 207l-227 -207h-191z" />
    <glyph glyph-name="Udieresis" unicode="&#xdc;" horiz-adv-x="1614" 
d="M271 154q-62 75 -85.5 175.5t-23.5 227.5v961h207v-936q0 -101 18.5 -175t64.5 -125q49 -56 136 -85t219 -29q134 0 222 28.5t139 84.5q47 50 66 124t19 177v936h201v-961q0 -171 -43 -283q-55 -143 -186 -216q-154 -85 -420 -85q-204 0 -333 47t-201 134zM492 1841h182
v-229h-182v229zM934 1841h180v-229h-180v229z" />
    <glyph glyph-name="Yacute" unicode="&#xdd;" horiz-adv-x="1466" 
d="M20 1518h226l489 -756l494 756h215l-608 -939v-579h-205v574zM860 1941h244l-363 -336h-184z" />
    <glyph glyph-name="Thorn" unicode="&#xde;" horiz-adv-x="1475" 
d="M172 1518h203v-236h479q153 0 256.5 -29t166.5 -89q60 -58 87 -146t27 -209q0 -122 -27 -212.5t-87 -151.5q-65 -65 -169.5 -98.5t-259.5 -33.5h-473v-313h-203v1518zM854 504q119 0 191 29.5t105.5 94.5t33.5 175q0 85 -18 140t-57 88t-102 48t-157 15h-475v-590h479z
" />
    <glyph glyph-name="germandbls" unicode="&#xdf;" horiz-adv-x="1352" 
d="M147 1098q0 225 110 351q130 150 417 150q252 0 369.5 -99t117.5 -302q0 -152 -52 -237.5t-157 -122.5q167 -32 247.5 -124t80.5 -272q0 -115 -24 -195t-85 -133q-65 -58 -183 -86t-302 -28h-129v180h125q127 0 207.5 20t124.5 58q40 34 54.5 82t14.5 115q0 71 -21.5 122
t-68.5 83q-49 32 -133 47.5t-213 15.5v166q166 0 242 62.5t76 197.5q0 128 -68.5 188t-224.5 60q-328 0 -328 -307v-1090h-197v1098z" />
    <glyph glyph-name="agrave" unicode="&#xe0;" horiz-adv-x="1284" 
d="M161 79q-81 81 -81 245q0 123 38 203t124 127t228 67t361 20h61q-1 61 -9.5 102t-35.5 71q-31 33 -87.5 49t-151.5 16q-99 0 -186.5 -27.5t-149.5 -68.5l-104 155q80 51 182 84q132 43 277 43t235 -25.5t140 -80.5q47 -52 65 -136.5t18 -213.5v-406q0 -44 3.5 -68
t14.5 -37t32.5 -17.5t62.5 -4.5v-174q-9 -4 -31 -4h-51q-47 0 -78 7t-54 23q-42 28 -62 99q-54 -75 -155.5 -111t-279.5 -36q-227 0 -326 99zM294 451q-24 -45 -24 -113q0 -63 23 -103.5t78 -61.5t149 -21q133 0 215 36t120 112.5t38 201.5v69h-51q-170 0 -288 -11
q-111 -11 -174 -37.5t-86 -71.5zM268 1591h244l303 -336h-184z" />
    <glyph glyph-name="aacute" unicode="&#xe1;" horiz-adv-x="1284" 
d="M161 79q-81 81 -81 245q0 123 38 203t124 127t228 67t361 20h61q-1 61 -9.5 102t-35.5 71q-31 33 -87.5 49t-151.5 16q-99 0 -186.5 -27.5t-149.5 -68.5l-104 155q80 51 182 84q132 43 277 43t235 -25.5t140 -80.5q47 -52 65 -136.5t18 -213.5v-406q0 -44 3.5 -68
t14.5 -37t32.5 -17.5t62.5 -4.5v-174q-9 -4 -31 -4h-51q-47 0 -78 7t-54 23q-42 28 -62 99q-54 -75 -155.5 -111t-279.5 -36q-227 0 -326 99zM294 451q-24 -45 -24 -113q0 -63 23 -103.5t78 -61.5t149 -21q133 0 215 36t120 112.5t38 201.5v69h-51q-170 0 -288 -11
q-111 -11 -174 -37.5t-86 -71.5zM774 1591h244l-363 -336h-184z" />
    <glyph glyph-name="acircumflex" unicode="&#xe2;" horiz-adv-x="1284" 
d="M161 79q-81 81 -81 245q0 123 38 203t124 127t228 67t361 20h61q-1 61 -9.5 102t-35.5 71q-31 33 -87.5 49t-151.5 16q-99 0 -186.5 -27.5t-149.5 -68.5l-104 155q80 51 182 84q132 43 277 43t235 -25.5t140 -80.5q47 -52 65 -136.5t18 -213.5v-406q0 -44 3.5 -68
t14.5 -37t32.5 -17.5t62.5 -4.5v-174q-9 -4 -31 -4h-51q-47 0 -78 7t-54 23q-42 28 -62 99q-54 -75 -155.5 -111t-279.5 -36q-227 0 -326 99zM294 451q-24 -45 -24 -113q0 -63 23 -103.5t78 -61.5t149 -21q133 0 215 36t120 112.5t38 201.5v69h-51q-170 0 -288 -11
q-111 -11 -174 -37.5t-86 -71.5zM535 1591h215l313 -336h-193l-231 207l-227 -207h-191z" />
    <glyph glyph-name="atilde" unicode="&#xe3;" horiz-adv-x="1284" 
d="M161 79q-81 81 -81 245q0 123 38 203t124 127t228 67t361 20h61q-1 61 -9.5 102t-35.5 71q-31 33 -87.5 49t-151.5 16q-99 0 -186.5 -27.5t-149.5 -68.5l-104 155q80 51 182 84q132 43 277 43t235 -25.5t140 -80.5q47 -52 65 -136.5t18 -213.5v-406q0 -44 3.5 -68
t14.5 -37t32.5 -17.5t62.5 -4.5v-174q-9 -4 -31 -4h-51q-47 0 -78 7t-54 23q-42 28 -62 99q-54 -75 -155.5 -111t-279.5 -36q-227 0 -326 99zM294 451q-24 -45 -24 -113q0 -63 23 -103.5t78 -61.5t149 -21q133 0 215 36t120 112.5t38 201.5v69h-51q-170 0 -288 -11
q-111 -11 -174 -37.5t-86 -71.5zM223 1356q63 78 134.5 124t140.5 46q47 0 81.5 -13t76.5 -38q45 -28 70 -40t56 -12q36 0 76.5 29.5t87.5 83.5l117 -94q-65 -83 -136.5 -134t-139.5 -51q-42 0 -75 13t-79 39l-21 12q-36 20 -59.5 29.5t-50.5 9.5q-36 0 -76.5 -26t-79.5 -74
z" />
    <glyph glyph-name="adieresis" unicode="&#xe4;" horiz-adv-x="1284" 
d="M161 79q-81 81 -81 245q0 123 38 203t124 127t228 67t361 20h61q-1 61 -9.5 102t-35.5 71q-31 33 -87.5 49t-151.5 16q-99 0 -186.5 -27.5t-149.5 -68.5l-104 155q80 51 182 84q132 43 277 43t235 -25.5t140 -80.5q47 -52 65 -136.5t18 -213.5v-406q0 -44 3.5 -68
t14.5 -37t32.5 -17.5t62.5 -4.5v-174q-9 -4 -31 -4h-51q-47 0 -78 7t-54 23q-42 28 -62 99q-54 -75 -155.5 -111t-279.5 -36q-227 0 -326 99zM294 451q-24 -45 -24 -113q0 -63 23 -103.5t78 -61.5t149 -21q133 0 215 36t120 112.5t38 201.5v69h-51q-170 0 -288 -11
q-111 -11 -174 -37.5t-86 -71.5zM332 1491h182v-229h-182v229zM774 1491h180v-229h-180v229z" />
    <glyph glyph-name="aring" unicode="&#xe5;" horiz-adv-x="1284" 
d="M161 79q-81 81 -81 245q0 123 38 203t124 127t228 67t361 20h61q-1 61 -9.5 102t-35.5 71q-31 33 -87.5 49t-151.5 16q-99 0 -186.5 -27.5t-149.5 -68.5l-104 155q80 51 182 84q132 43 277 43t235 -25.5t140 -80.5q47 -52 65 -136.5t18 -213.5v-406q0 -44 3.5 -68
t14.5 -37t32.5 -17.5t62.5 -4.5v-174q-9 -4 -31 -4h-51q-47 0 -78 7t-54 23q-42 28 -62 99q-54 -75 -155.5 -111t-279.5 -36q-227 0 -326 99zM294 451q-24 -45 -24 -113q0 -63 23 -103.5t78 -61.5t149 -21q133 0 215 36t120 112.5t38 201.5v69h-51q-170 0 -288 -11
q-111 -11 -174 -37.5t-86 -71.5zM446 1307q-31 33 -46 82t-15 106q0 122 61 192q32 36 82 56t115 20q126 0 194 -76q31 -35 46.5 -84.5t15.5 -107.5q0 -119 -65 -191.5t-191 -72.5q-65 0 -114.5 20t-82.5 56zM789 1495q0 70 -36 112t-110 42q-76 0 -111.5 -41.5
t-35.5 -112.5q0 -70 35.5 -112t111.5 -42q74 0 110 42t36 112z" />
    <glyph glyph-name="ae" unicode="&#xe6;" horiz-adv-x="2019" 
d="M994 154l-20 31q-11 -21 -29 -46q-94 -123 -263 -147q-84 -12 -190 -12q-147 0 -237.5 37.5t-132.5 113t-42 193.5q0 122 40.5 202.5t128.5 127.5q87 47 228 67t354 20h61q-1 61 -9.5 102t-35.5 71q-31 33 -87.5 49t-151.5 16q-99 0 -187.5 -27.5t-152.5 -66.5l-100 153
q80 51 182 84q132 43 277 43q142 0 229 -29t132 -88q14 -18 24 -39q61 73 162 114.5t264 41.5q225 0 341 -97q52 -44 81 -105.5t45 -151.5q14 -89 14 -236q0 -27 -2 -81h-840q4 -68 16.5 -123t47.5 -104q40 -58 113.5 -87.5t189.5 -29.5q131 0 216 32q70 25 144 80l109 -139
q-102 -76 -199 -108q-111 -38 -270 -38q-173 0 -281.5 45.5t-168.5 131.5zM1729 668q-7 94 -15.5 142.5t-34.5 86.5q-32 45 -90.5 68.5t-154.5 23.5q-112 0 -183.5 -29.5t-110.5 -87.5q-39 -59 -52 -135l-9 -69h650zM295 453q-25 -44 -25 -115q0 -64 23 -104.5t78 -61
t151 -20.5q132 0 213.5 36.5t119.5 113.5t38 200v69h-51q-177 0 -284 -10q-111 -10 -175 -36.5t-88 -71.5z" />
    <glyph glyph-name="ccedilla" unicode="&#xe7;" horiz-adv-x="1165" 
d="M350 -414l56 105q39 -23 87 -35t97 -12q87 0 120 26t33 74t-31.5 68t-106.5 20q-14 0 -50 -2l-49 35l22 123q-239 27 -345 186q-48 73 -69.5 172t-21.5 225q0 139 27 247t88 183q65 80 174.5 122t273.5 42q275 0 424 -170l-145 -137q-52 52 -115.5 83.5t-163.5 31.5
q-202 0 -286 -107q-40 -51 -58 -125.5t-18 -173.5q0 -101 17.5 -175.5t57.5 -124.5q88 -109 287 -109q90 0 155.5 27.5t133.5 88.5l133 -127q-85 -82 -183 -123q-102 -44 -245 -44l-12 -70q13 1 37 1q85 0 132 -25q75 -42 75 -154q0 -104 -67 -155.5t-216 -51.5
q-141 0 -248 61z" />
    <glyph glyph-name="egrave" unicode="&#xe8;" horiz-adv-x="1229" 
d="M197 151q-58 75 -81.5 180.5t-23.5 239.5q0 133 24.5 238.5t82.5 181.5q133 174 448 174q168 0 268 -53t150 -152q41 -82 52 -176.5t11 -212.5q0 -37 -2 -77h-841q4 -69 16.5 -123.5t47.5 -103.5q41 -58 114 -87.5t188 -29.5q127 0 207 28t156 84l106 -139
q-94 -75 -203 -110.5t-266 -35.5q-170 0 -280 44.5t-174 129.5zM938 670q-5 81 -15 134.5t-36 92.5q-61 92 -246 92q-112 0 -182.5 -29.5t-110.5 -87.5q-38 -56 -52 -135q-6 -31 -9 -67h651zM235 1591h244l303 -336h-184z" />
    <glyph glyph-name="eacute" unicode="&#xe9;" horiz-adv-x="1229" 
d="M197 151q-58 75 -81.5 180.5t-23.5 239.5q0 133 24.5 238.5t82.5 181.5q133 174 448 174q168 0 268 -53t150 -152q41 -82 52 -176.5t11 -212.5q0 -37 -2 -77h-841q4 -69 16.5 -123.5t47.5 -103.5q41 -58 114 -87.5t188 -29.5q127 0 207 28t156 84l106 -139
q-94 -75 -203 -110.5t-266 -35.5q-170 0 -280 44.5t-174 129.5zM938 670q-5 81 -15 134.5t-36 92.5q-61 92 -246 92q-112 0 -182.5 -29.5t-110.5 -87.5q-38 -56 -52 -135q-6 -31 -9 -67h651zM741 1591h244l-363 -336h-184z" />
    <glyph glyph-name="ecircumflex" unicode="&#xea;" horiz-adv-x="1229" 
d="M197 151q-58 75 -81.5 180.5t-23.5 239.5q0 133 24.5 238.5t82.5 181.5q133 174 448 174q168 0 268 -53t150 -152q41 -82 52 -176.5t11 -212.5q0 -37 -2 -77h-841q4 -69 16.5 -123.5t47.5 -103.5q41 -58 114 -87.5t188 -29.5q127 0 207 28t156 84l106 -139
q-94 -75 -203 -110.5t-266 -35.5q-170 0 -280 44.5t-174 129.5zM938 670q-5 81 -15 134.5t-36 92.5q-61 92 -246 92q-112 0 -182.5 -29.5t-110.5 -87.5q-38 -56 -52 -135q-6 -31 -9 -67h651zM502 1591h215l313 -336h-193l-231 207l-227 -207h-191z" />
    <glyph glyph-name="edieresis" unicode="&#xeb;" horiz-adv-x="1229" 
d="M197 151q-58 75 -81.5 180.5t-23.5 239.5q0 133 24.5 238.5t82.5 181.5q133 174 448 174q168 0 268 -53t150 -152q41 -82 52 -176.5t11 -212.5q0 -37 -2 -77h-841q4 -69 16.5 -123.5t47.5 -103.5q41 -58 114 -87.5t188 -29.5q127 0 207 28t156 84l106 -139
q-94 -75 -203 -110.5t-266 -35.5q-170 0 -280 44.5t-174 129.5zM938 670q-5 81 -15 134.5t-36 92.5q-61 92 -246 92q-112 0 -182.5 -29.5t-110.5 -87.5q-38 -56 -52 -135q-6 -31 -9 -67h651zM299 1491h182v-229h-182v229zM741 1491h180v-229h-180v229z" />
    <glyph glyph-name="igrave" unicode="&#xec;" horiz-adv-x="516" 
d="M-109 1587h242l223 -332h-184zM160 1139h196v-1139h-196v1139z" />
    <glyph glyph-name="iacute" unicode="&#xed;" horiz-adv-x="516" 
d="M383 1587h244l-281 -332h-182zM160 1139h196v-1139h-196v1139z" />
    <glyph glyph-name="icircumflex" unicode="&#xee;" horiz-adv-x="516" 
d="M156 1587h202l250 -332h-190l-162 209l-166 -209h-182zM160 1139h196v-1139h-196v1139z" />
    <glyph glyph-name="idieresis" unicode="&#xef;" horiz-adv-x="516" 
d="M-18 1505h163v-227h-163v227zM373 1505h164v-227h-164v227zM160 1139h196v-1139h-196v1139z" />
    <glyph glyph-name="eth" unicode="&#xf0;" horiz-adv-x="1309" 
d="M604 1352l154 39q-66 75 -148 147l185 78q87 -71 166 -167l4 -5l280 72v-144l-196 -50q22 -39 46 -88q122 -258 122 -636q0 -218 -60.5 -354.5t-185 -201.5t-320.5 -65q-295 0 -430 152q-129 143 -129 418q0 276 113 414q125 155 395 155q148 0 234.5 -28t138.5 -89
q-33 138 -121 271l-2 2l-246 -62v142zM1014 551q0 198 -84.5 294.5t-278.5 96.5q-190 0 -274 -97t-84 -294t84.5 -295t273.5 -98q193 0 278 97.5t85 295.5z" />
    <glyph glyph-name="ntilde" unicode="&#xf1;" horiz-adv-x="1294" 
d="M147 1128l158 11l17 -109q46 62 133 95q108 40 286 40q132 0 214 -32.5t126 -96.5q40 -59 55 -142.5t15 -199.5v-694h-199v655q0 84 -7 136.5t-32 89.5q-29 43 -85.5 65.5t-149.5 22.5q-196 0 -270 -95q-33 -43 -46.5 -103t-13.5 -140v-631h-201v1128zM223 1356
q63 78 134.5 124t140.5 46q47 0 81.5 -13t76.5 -38q45 -28 70 -40t56 -12q36 0 76.5 29.5t87.5 83.5l117 -94q-65 -83 -136.5 -134t-139.5 -51q-42 0 -75 13t-79 39l-21 12q-36 20 -59.5 29.5t-50.5 9.5q-36 0 -76.5 -26t-79.5 -74z" />
    <glyph glyph-name="ograve" unicode="&#xf2;" horiz-adv-x="1309" 
d="M222 128q-130 144 -130 443q0 300 130 444q68 75 174.5 112.5t256.5 37.5q151 0 258 -37.5t175 -112.5q131 -146 131 -444q0 -297 -131 -443q-68 -76 -175 -113.5t-258 -37.5q-150 0 -256.5 37.5t-174.5 113.5zM934 263q80 97 80 304q0 205 -83.5 306.5t-277.5 101.5
t-277 -101.5t-83 -306.5q0 -207 80 -304q87 -105 280 -105q100 0 169 26t112 79zM276 1591h244l303 -336h-184z" />
    <glyph glyph-name="oacute" unicode="&#xf3;" horiz-adv-x="1309" 
d="M222 128q-130 144 -130 443q0 300 130 444q68 75 174.5 112.5t256.5 37.5q151 0 258 -37.5t175 -112.5q131 -146 131 -444q0 -297 -131 -443q-68 -76 -175 -113.5t-258 -37.5q-150 0 -256.5 37.5t-174.5 113.5zM934 263q80 97 80 304q0 205 -83.5 306.5t-277.5 101.5
t-277 -101.5t-83 -306.5q0 -207 80 -304q87 -105 280 -105q100 0 169 26t112 79zM782 1591h244l-363 -336h-184z" />
    <glyph glyph-name="ocircumflex" unicode="&#xf4;" horiz-adv-x="1309" 
d="M222 128q-130 144 -130 443q0 300 130 444q68 75 174.5 112.5t256.5 37.5q151 0 258 -37.5t175 -112.5q131 -146 131 -444q0 -297 -131 -443q-68 -76 -175 -113.5t-258 -37.5q-150 0 -256.5 37.5t-174.5 113.5zM934 263q80 97 80 304q0 205 -83.5 306.5t-277.5 101.5
t-277 -101.5t-83 -306.5q0 -207 80 -304q87 -105 280 -105q100 0 169 26t112 79zM543 1591h215l313 -336h-193l-231 207l-227 -207h-191z" />
    <glyph glyph-name="otilde" unicode="&#xf5;" horiz-adv-x="1309" 
d="M222 128q-130 144 -130 443q0 300 130 444q68 75 174.5 112.5t256.5 37.5q151 0 258 -37.5t175 -112.5q131 -146 131 -444q0 -297 -131 -443q-68 -76 -175 -113.5t-258 -37.5q-150 0 -256.5 37.5t-174.5 113.5zM934 263q80 97 80 304q0 205 -83.5 306.5t-277.5 101.5
t-277 -101.5t-83 -306.5q0 -207 80 -304q87 -105 280 -105q100 0 169 26t112 79zM231 1356q63 78 134.5 124t140.5 46q47 0 81.5 -13t76.5 -38q45 -28 70 -40t56 -12q36 0 76.5 29.5t87.5 83.5l117 -94q-65 -83 -136.5 -134t-139.5 -51q-42 0 -75 13t-79 39l-21 12
q-36 20 -59.5 29.5t-50.5 9.5q-36 0 -76.5 -26t-79.5 -74z" />
    <glyph glyph-name="odieresis" unicode="&#xf6;" horiz-adv-x="1309" 
d="M222 128q-130 144 -130 443q0 300 130 444q68 75 174.5 112.5t256.5 37.5q151 0 258 -37.5t175 -112.5q131 -146 131 -444q0 -297 -131 -443q-68 -76 -175 -113.5t-258 -37.5q-150 0 -256.5 37.5t-174.5 113.5zM934 263q80 97 80 304q0 205 -83.5 306.5t-277.5 101.5
t-277 -101.5t-83 -306.5q0 -207 80 -304q87 -105 280 -105q100 0 169 26t112 79zM340 1491h182v-229h-182v229zM782 1491h180v-229h-180v229z" />
    <glyph glyph-name="divide" unicode="&#xf7;" horiz-adv-x="1440" 
d="M608 1241h223v-215h-223v215zM211 817h1018v-190h-1018v190zM608 420h223v-215h-223v215z" />
    <glyph glyph-name="oslash" unicode="&#xf8;" horiz-adv-x="1309" 
d="M411 9l-59 -95h-182l100 166q-27 21 -52 48q-126 143 -126 443q0 149 31 259.5t96 184.5q132 150 434 150q139 0 244 -32l57 96h183l-98 -168q30 -23 50 -46q67 -73 97.5 -183.5t30.5 -260.5q0 -149 -30.5 -259.5t-96.5 -183.5q-136 -151 -437 -151q-138 0 -242 32z
M369 872q-42 -51 -61 -127t-19 -178q0 -209 80 -306l12 -14l420 713q-60 19 -148 19q-197 0 -284 -107zM938 261q80 97 80 306q0 207 -80 304l-14 16l-424 -713q66 -20 153 -20q197 0 285 107z" />
    <glyph glyph-name="ugrave" unicode="&#xf9;" horiz-adv-x="1280" 
d="M228 110q-50 60 -68.5 150.5t-18.5 226.5v652h199v-656q0 -87 6.5 -137.5t32.5 -90.5q31 -46 93 -69.5t171 -23.5t172 23.5t93 69.5q25 39 30.5 89.5t5.5 144.5v650h195v-645q0 -140 -17.5 -231t-65.5 -152q-52 -67 -151.5 -99t-261.5 -32q-161 0 -261 32t-154 98z
M262 1591h244l303 -336h-184z" />
    <glyph glyph-name="uacute" unicode="&#xfa;" horiz-adv-x="1280" 
d="M228 110q-50 60 -68.5 150.5t-18.5 226.5v652h199v-656q0 -87 6.5 -137.5t32.5 -90.5q31 -46 93 -69.5t171 -23.5t172 23.5t93 69.5q25 39 30.5 89.5t5.5 144.5v650h195v-645q0 -140 -17.5 -231t-65.5 -152q-52 -67 -151.5 -99t-261.5 -32q-161 0 -261 32t-154 98z
M768 1591h244l-363 -336h-184z" />
    <glyph glyph-name="ucircumflex" unicode="&#xfb;" horiz-adv-x="1280" 
d="M228 110q-50 60 -68.5 150.5t-18.5 226.5v652h199v-656q0 -87 6.5 -137.5t32.5 -90.5q31 -46 93 -69.5t171 -23.5t172 23.5t93 69.5q25 39 30.5 89.5t5.5 144.5v650h195v-645q0 -140 -17.5 -231t-65.5 -152q-52 -67 -151.5 -99t-261.5 -32q-161 0 -261 32t-154 98z
M529 1591h215l313 -336h-193l-231 207l-227 -207h-191z" />
    <glyph glyph-name="udieresis" unicode="&#xfc;" horiz-adv-x="1280" 
d="M228 110q-50 60 -68.5 150.5t-18.5 226.5v652h199v-656q0 -87 6.5 -137.5t32.5 -90.5q31 -46 93 -69.5t171 -23.5t172 23.5t93 69.5q25 39 30.5 89.5t5.5 144.5v650h195v-645q0 -140 -17.5 -231t-65.5 -152q-52 -67 -151.5 -99t-261.5 -32q-161 0 -261 32t-154 98z
M326 1491h182v-229h-182v229zM768 1491h180v-229h-180v229z" />
    <glyph glyph-name="yacute" unicode="&#xfd;" horiz-adv-x="1114" 
d="M14 1139h213l335 -889l331 889h209l-484 -1235q-48 -133 -126 -189q-80 -59 -230 -59h-51q-29 0 -53 2v162h88q57 0 90 9t52.5 31t33.5 64l34 89zM694 1591h244l-363 -336h-184z" />
    <glyph glyph-name="thorn" unicode="&#xfe;" horiz-adv-x="1343" 
d="M147 1589h199v-563q47 72 147 105.5t271 33.5q270 0 387 -165q100 -142 100 -429q0 -137 -24 -244t-78 -181q-121 -166 -393 -166q-175 0 -270 33t-138 106v-457h-201v1927zM981 270q68 97 68 295q0 99 -15.5 173.5t-50.5 126.5q-38 54 -102 82t-160 28q-101 0 -172 -22
t-115 -69t-65 -125.5t-21 -193.5q0 -114 19.5 -190.5t63.5 -123.5q43 -47 114 -68t176 -21q184 0 260 108z" />
    <glyph glyph-name="ydieresis" unicode="&#xff;" horiz-adv-x="1114" 
d="M14 1139h213l335 -889l331 889h209l-484 -1235q-48 -133 -126 -189q-80 -59 -230 -59h-51q-29 0 -53 2v162h88q57 0 90 9t52.5 31t33.5 64l34 89zM252 1491h182v-229h-182v229zM694 1491h180v-229h-180v229z" />
    <glyph glyph-name="Amacron" unicode="&#x100;" horiz-adv-x="1518" 
d="M653 1528h211l609 -1528h-213l-125 319h-758l-125 -319h-207zM1061 510l-307 770l-308 -770h615zM371 1763h770v-170h-770v170z" />
    <glyph glyph-name="amacron" unicode="&#x101;" horiz-adv-x="1284" 
d="M161 79q-81 81 -81 245q0 123 38 203t124 127t228 67t361 20h61q-1 61 -9.5 102t-35.5 71q-31 33 -87.5 49t-151.5 16q-99 0 -186.5 -27.5t-149.5 -68.5l-104 155q80 51 182 84q132 43 277 43t235 -25.5t140 -80.5q47 -52 65 -136.5t18 -213.5v-406q0 -44 3.5 -68
t14.5 -37t32.5 -17.5t62.5 -4.5v-174q-9 -4 -31 -4h-51q-47 0 -78 7t-54 23q-42 28 -62 99q-54 -75 -155.5 -111t-279.5 -36q-227 0 -326 99zM294 451q-24 -45 -24 -113q0 -63 23 -103.5t78 -61.5t149 -21q133 0 215 36t120 112.5t38 201.5v69h-51q-170 0 -288 -11
q-111 -11 -174 -37.5t-86 -71.5zM258 1413h770v-170h-770v170z" />
    <glyph glyph-name="Abreve" unicode="&#x102;" horiz-adv-x="1518" 
d="M653 1528h211l609 -1528h-213l-125 319h-758l-125 -319h-207zM1061 510l-307 770l-308 -770h615zM467 1679q-42 42 -67 100.5t-41 135.5l147 30q13 -52 28 -86t42 -58q30 -27 73 -40.5t107 -13.5q123 0 180 54q49 48 70 144l150 -28q-20 -82 -44.5 -139t-66.5 -99
q-47 -47 -117.5 -71.5t-171.5 -24.5q-193 0 -289 96z" />
    <glyph glyph-name="abreve" unicode="&#x103;" horiz-adv-x="1284" 
d="M161 79q-81 81 -81 245q0 123 38 203t124 127t228 67t361 20h61q-1 61 -9.5 102t-35.5 71q-31 33 -87.5 49t-151.5 16q-99 0 -186.5 -27.5t-149.5 -68.5l-104 155q80 51 182 84q132 43 277 43t235 -25.5t140 -80.5q47 -52 65 -136.5t18 -213.5v-406q0 -44 3.5 -68
t14.5 -37t32.5 -17.5t62.5 -4.5v-174q-9 -4 -31 -4h-51q-47 0 -78 7t-54 23q-42 28 -62 99q-54 -75 -155.5 -111t-279.5 -36q-227 0 -326 99zM294 451q-24 -45 -24 -113q0 -63 23 -103.5t78 -61.5t149 -21q133 0 215 36t120 112.5t38 201.5v69h-51q-170 0 -288 -11
q-111 -11 -174 -37.5t-86 -71.5zM354 1329q-42 42 -67 100.5t-41 135.5l147 30q13 -52 28 -86t42 -58q30 -27 73 -40.5t107 -13.5q123 0 180 54q49 48 70 144l150 -28q-20 -82 -44.5 -139t-66.5 -99q-47 -47 -117.5 -71.5t-171.5 -24.5q-193 0 -289 96z" />
    <glyph glyph-name="Aogonek" unicode="&#x104;" horiz-adv-x="1520" 
d="M653 1528h211l609 -1528h-64q-92 -56 -139 -112.5t-47 -106.5q0 -44 21 -66q28 -30 99 -30q76 0 148 24l45 -121q-88 -43 -217 -43q-145 0 -207 59q-53 49 -53 146q0 87 61 164q51 66 129 113l-114 292h-758l-125 -319h-207zM1061 510l-307 770l-308 -770h615z" />
    <glyph glyph-name="aogonek" unicode="&#x105;" horiz-adv-x="1284" 
d="M161 79q-81 81 -81 245q0 123 38 203t124 127t228 67t361 20h62q-2 69 -13.5 111.5t-39.5 69.5q-31 29 -87 43t-145 14q-99 0 -186.5 -27.5t-149.5 -68.5l-104 155q80 51 182 84q132 43 277 43t235 -25.5t140 -80.5q47 -52 65 -136.5t18 -213.5v-406q0 -44 3.5 -68
t14.5 -37t32.5 -17.5t62.5 -4.5v-174q-213 -121 -213 -221q0 -22 4.5 -38t18.5 -28q32 -30 104 -30q74 0 152 26l49 -121q-42 -21 -101.5 -33t-124.5 -12q-149 0 -211 59q-53 48 -53 146q0 87 66 163q55 63 125 99q-36 13 -58 40.5t-34 74.5q-54 -75 -155.5 -111t-279.5 -36
q-227 0 -326 99zM893 502v69h-51q-180 0 -290.5 -11t-171.5 -37t-85.5 -70t-24.5 -115q0 -63 23 -103.5t78 -61.5t149 -21q133 0 215 36t120 112.5t38 201.5z" />
    <glyph glyph-name="Cacute" unicode="&#x106;" horiz-adv-x="1497" 
d="M84 760q0 396 201 592q194 190 567 190q173 0 308 -49.5t241 -149.5l-150 -149q-160 149 -401 149q-557 0 -557 -585q0 -294 135 -440t424 -146q151 0 255 47q45 19 81 45.5t76 63.5l147 -142q-95 -95 -210 -145q-148 -64 -359 -64q-390 0 -574 196.5t-184 586.5z
M876 1941h244l-363 -336h-184z" />
    <glyph glyph-name="cacute" unicode="&#x107;" horiz-adv-x="1165" 
d="M206 144q-61 74 -87.5 180.5t-26.5 246.5q0 139 27 247t88 183q65 80 174.5 122t273.5 42q275 0 424 -170l-145 -137q-52 52 -115.5 83.5t-163.5 31.5q-202 0 -286 -107q-40 -51 -58 -125.5t-18 -173.5q0 -101 17.5 -175.5t57.5 -124.5q88 -109 287 -109q90 0 155.5 27.5
t133.5 88.5l133 -127q-85 -82 -183 -123q-102 -44 -247 -44q-310 0 -441 164zM719 1591h244l-363 -336h-184z" />
    <glyph glyph-name="Ccircumflex" unicode="&#x108;" horiz-adv-x="1497" 
d="M84 760q0 396 201 592q194 190 567 190q173 0 308 -49.5t241 -149.5l-150 -149q-160 149 -401 149q-557 0 -557 -585q0 -294 135 -440t424 -146q151 0 255 47q45 19 81 45.5t76 63.5l147 -142q-95 -95 -210 -145q-148 -64 -359 -64q-390 0 -574 196.5t-184 586.5z
M689 1941h215l313 -336h-193l-231 207l-227 -207h-191z" />
    <glyph glyph-name="ccircumflex" unicode="&#x109;" horiz-adv-x="1165" 
d="M206 144q-61 74 -87.5 180.5t-26.5 246.5q0 139 27 247t88 183q65 80 174.5 122t273.5 42q275 0 424 -170l-145 -137q-52 52 -115.5 83.5t-163.5 31.5q-202 0 -286 -107q-40 -51 -58 -125.5t-18 -173.5q0 -101 17.5 -175.5t57.5 -124.5q88 -109 287 -109q90 0 155.5 27.5
t133.5 88.5l133 -127q-85 -82 -183 -123q-102 -44 -247 -44q-310 0 -441 164zM496 1591h215l313 -336h-193l-231 207l-227 -207h-191z" />
    <glyph glyph-name="Cdotaccent" unicode="&#x10a;" horiz-adv-x="1497" 
d="M84 760q0 396 201 592q194 190 567 190q173 0 308 -49.5t241 -149.5l-150 -149q-160 149 -401 149q-557 0 -557 -585q0 -294 135 -440t424 -146q151 0 255 47q45 19 81 45.5t76 63.5l147 -142q-95 -95 -210 -145q-148 -64 -359 -64q-390 0 -574 196.5t-184 586.5z
M692 1841h201v-238h-201v238z" />
    <glyph glyph-name="cdotaccent" unicode="&#x10b;" horiz-adv-x="1165" 
d="M206 144q-61 74 -87.5 180.5t-26.5 246.5q0 139 27 247t88 183q65 80 174.5 122t273.5 42q275 0 424 -170l-145 -137q-52 52 -115.5 83.5t-163.5 31.5q-202 0 -286 -107q-40 -51 -58 -125.5t-18 -173.5q0 -101 17.5 -175.5t57.5 -124.5q88 -109 287 -109q90 0 155.5 27.5
t133.5 88.5l133 -127q-85 -82 -183 -123q-102 -44 -247 -44q-310 0 -441 164zM516 1491h201v-238h-201v238z" />
    <glyph glyph-name="Ccaron" unicode="&#x10c;" horiz-adv-x="1497" 
d="M84 760q0 396 201 592q194 190 567 190q173 0 308 -49.5t241 -149.5l-150 -149q-160 149 -401 149q-557 0 -557 -585q0 -294 135 -440t424 -146q151 0 255 47q45 19 81 45.5t76 63.5l147 -142q-95 -95 -210 -145q-148 -64 -359 -64q-390 0 -574 196.5t-184 586.5z
M323 1941h195l229 -207l230 207h188l-313 -336h-215z" />
    <glyph glyph-name="ccaron" unicode="&#x10d;" horiz-adv-x="1165" 
d="M206 144q-61 74 -87.5 180.5t-26.5 246.5q0 139 27 247t88 183q65 80 174.5 122t273.5 42q275 0 424 -170l-145 -137q-52 52 -115.5 83.5t-163.5 31.5q-202 0 -286 -107q-40 -51 -58 -125.5t-18 -173.5q0 -101 17.5 -175.5t57.5 -124.5q88 -109 287 -109q90 0 155.5 27.5
t133.5 88.5l133 -127q-85 -82 -183 -123q-102 -44 -247 -44q-310 0 -441 164zM166 1591h195l229 -207l230 207h188l-313 -336h-215z" />
    <glyph glyph-name="Dcaron" unicode="&#x10e;" horiz-adv-x="1559" 
d="M172 1518h508q223 0 372.5 -37t243.5 -121q94 -85 137.5 -231t43.5 -369q0 -218 -46.5 -364.5t-145.5 -233.5q-97 -86 -251 -124t-377 -38h-485v1518zM668 190q174 0 289 30.5t184 97.5q68 66 97.5 173t29.5 269q0 166 -26.5 271.5t-90.5 169.5q-65 64 -177 92t-292 28
h-303v-1131h289zM354 1941h195l229 -207l230 207h188l-313 -336h-215z" />
    <glyph glyph-name="dcaron" unicode="&#x10f;" horiz-adv-x="1581" 
d="M194 147q-54 75 -78 182t-24 246q0 283 104 425q58 80 154 121.5t238 41.5q175 0 270 -33t137 -104v563h201v-1581l-154 -14l-22 133q-54 -77 -156 -112t-282 -35q-140 0 -235 42.5t-153 124.5zM910 256q44 48 64.5 127t20.5 192q0 115 -19.5 191t-63.5 123
q-43 46 -113 67t-174 21q-97 0 -161 -26.5t-102 -80.5q-36 -50 -51.5 -123.5t-15.5 -171.5q0 -99 15.5 -174t51.5 -126q39 -56 103 -84.5t160 -28.5q101 0 171 23t114 71zM1346 1212q48 25 72 45t33.5 43.5t9.5 61.5h-100v227h213v-168q0 -66 -7.5 -110t-26.5 -76
q-19 -33 -54 -59.5t-93 -53.5z" />
    <glyph glyph-name="Dcroat" unicode="&#x110;" horiz-adv-x="1559" 
d="M0 866h172v652h508q223 0 372.5 -37t243.5 -121q94 -85 137.5 -231t43.5 -369q0 -216 -48.5 -363t-148.5 -235q-97 -86 -250.5 -124t-372.5 -38h-485v694h-172v172zM668 190q174 0 289 30.5t184 97.5q68 66 97.5 173t29.5 269q0 166 -26.5 271.5t-90.5 169.5
q-65 64 -177 92t-292 28h-303v-455h328v-172h-328v-504h289z" />
    <glyph glyph-name="dcroat" unicode="&#x111;" horiz-adv-x="1343" 
d="M194 147q-54 75 -78 182t-24 246q0 283 104 425q58 80 154 121.5t238 41.5q175 0 270 -33t137 -104v234h-311v174h311v155h201v-155h147v-174h-147v-1252l-154 -14l-22 133q-54 -77 -156 -112t-282 -35q-140 0 -235 42.5t-153 124.5zM910 256q44 48 64.5 127t20.5 192
q0 115 -19.5 191t-63.5 123q-43 46 -113 67t-174 21q-97 0 -161 -26.5t-102 -80.5q-36 -50 -51.5 -123.5t-15.5 -171.5q0 -99 15.5 -174t51.5 -126q39 -56 103 -84.5t160 -28.5q101 0 171 23t114 71z" />
    <glyph glyph-name="Emacron" unicode="&#x112;" horiz-adv-x="1335" 
d="M172 1518h1038v-199h-831v-436h811v-197h-811v-496h840v-190h-1047v1518zM278 1763h770v-170h-770v170z" />
    <glyph glyph-name="emacron" unicode="&#x113;" horiz-adv-x="1229" 
d="M197 151q-58 75 -81.5 180.5t-23.5 239.5q0 133 24.5 238.5t82.5 181.5q133 174 448 174q168 0 268 -53t150 -152q41 -82 52 -176.5t11 -212.5q0 -37 -2 -77h-841q4 -69 16.5 -123.5t47.5 -103.5q41 -58 114 -87.5t188 -29.5q127 0 207 28t156 84l106 -139
q-94 -75 -203 -110.5t-266 -35.5q-170 0 -280 44.5t-174 129.5zM938 670q-5 81 -15 134.5t-36 92.5q-61 92 -246 92q-112 0 -182.5 -29.5t-110.5 -87.5q-38 -56 -52 -135q-6 -31 -9 -67h651zM225 1413h770v-170h-770v170z" />
    <glyph glyph-name="Ebreve" unicode="&#x114;" horiz-adv-x="1335" 
d="M172 1518h1038v-199h-831v-436h811v-197h-811v-496h840v-190h-1047v1518zM376 1679q-42 42 -67 100.5t-41 135.5l147 30q13 -52 28 -86t42 -58q30 -27 73 -40.5t107 -13.5q123 0 180 54q49 48 70 144l150 -28q-20 -82 -44.5 -139t-66.5 -99q-47 -47 -117.5 -71.5
t-171.5 -24.5q-193 0 -289 96z" />
    <glyph glyph-name="ebreve" unicode="&#x115;" horiz-adv-x="1229" 
d="M197 151q-58 75 -81.5 180.5t-23.5 239.5q0 133 24.5 238.5t82.5 181.5q133 174 448 174q168 0 268 -53t150 -152q41 -82 52 -176.5t11 -212.5q0 -37 -2 -77h-841q4 -69 16.5 -123.5t47.5 -103.5q41 -58 114 -87.5t188 -29.5q127 0 207 28t156 84l106 -139
q-94 -75 -203 -110.5t-266 -35.5q-170 0 -280 44.5t-174 129.5zM938 670q-5 81 -15 134.5t-36 92.5q-61 92 -246 92q-112 0 -182.5 -29.5t-110.5 -87.5q-38 -56 -52 -135q-6 -31 -9 -67h651zM323 1329q-42 42 -67 100.5t-41 135.5l147 30q13 -52 28 -86t42 -58
q30 -27 73 -40.5t107 -13.5q123 0 180 54q49 48 70 144l150 -28q-20 -82 -44.5 -139t-66.5 -99q-47 -47 -117.5 -71.5t-171.5 -24.5q-193 0 -289 96z" />
    <glyph glyph-name="Edotaccent" unicode="&#x116;" horiz-adv-x="1335" 
d="M172 1518h1038v-199h-831v-436h811v-197h-811v-496h840v-190h-1047v1518zM563 1841h201v-238h-201v238z" />
    <glyph glyph-name="edotaccent" unicode="&#x117;" horiz-adv-x="1229" 
d="M197 151q-58 75 -81.5 180.5t-23.5 239.5q0 133 24.5 238.5t82.5 181.5q133 174 448 174q168 0 268 -53t150 -152q41 -82 52 -176.5t11 -212.5q0 -37 -2 -77h-841q4 -69 16.5 -123.5t47.5 -103.5q41 -58 114 -87.5t188 -29.5q127 0 207 28t156 84l106 -139
q-94 -75 -203 -110.5t-266 -35.5q-170 0 -280 44.5t-174 129.5zM938 670q-5 81 -15 134.5t-36 92.5q-61 92 -246 92q-112 0 -182.5 -29.5t-110.5 -87.5q-38 -56 -52 -135q-6 -31 -9 -67h651zM510 1491h201v-238h-201v238z" />
    <glyph glyph-name="Eogonek" unicode="&#x118;" horiz-adv-x="1335" 
d="M172 1518h1038v-199h-831v-436h811v-197h-811v-496h840v-190h-166q-87 -53 -134 -111.5t-47 -107.5q0 -23 5 -39t18 -29q15 -14 39.5 -21t64.5 -7q48 0 97 10.5t80 25.5l49 -120q-48 -25 -115 -40.5t-135 -15.5q-147 0 -213 58q-53 45 -53 145q0 74 53 152q38 55 108 100
h-698v1518z" />
    <glyph glyph-name="eogonek" unicode="&#x119;" horiz-adv-x="1229" 
d="M651 -23q-170 0 -280 44.5t-174 129.5q-58 75 -81.5 180.5t-23.5 239.5q0 133 24.5 238.5t82.5 181.5q133 174 448 174q168 0 268 -53t150 -152q41 -82 52 -175.5t11 -205.5q0 -45 -2 -85h-841q4 -82 23 -144.5t59 -105.5q42 -46 111.5 -70t172.5 -24q127 0 207 28
t156 84l106 -139q-102 -76 -198 -109q-101 -55 -154 -117t-53 -116q0 -24 4.5 -40t18.5 -28q15 -14 39.5 -21t64.5 -7q47 0 96 10.5t80 25.5l49 -120q-48 -25 -115 -40.5t-135 -15.5q-147 0 -213 58q-53 45 -53 145q0 68 37 126.5t94 102.5h-31zM373 902q-39 -40 -59.5 -98
t-26.5 -134h651q-5 81 -15 134.5t-36 92.5q-61 92 -246 92q-96 0 -161 -22t-107 -65z" />
    <glyph glyph-name="Ecaron" unicode="&#x11a;" horiz-adv-x="1335" 
d="M172 1518h1038v-199h-831v-436h811v-197h-811v-496h840v-190h-1047v1518zM241 1941h195l229 -207l230 207h188l-313 -336h-215z" />
    <glyph glyph-name="ecaron" unicode="&#x11b;" horiz-adv-x="1229" 
d="M197 151q-58 75 -81.5 180.5t-23.5 239.5q0 133 24.5 238.5t82.5 181.5q133 174 448 174q168 0 268 -53t150 -152q41 -82 52 -176.5t11 -212.5q0 -37 -2 -77h-841q4 -69 16.5 -123.5t47.5 -103.5q41 -58 114 -87.5t188 -29.5q127 0 207 28t156 84l106 -139
q-94 -75 -203 -110.5t-266 -35.5q-170 0 -280 44.5t-174 129.5zM938 670q-5 81 -15 134.5t-36 92.5q-61 92 -246 92q-112 0 -182.5 -29.5t-110.5 -87.5q-38 -56 -52 -135q-6 -31 -9 -67h651zM188 1591h195l229 -207l230 207h188l-313 -336h-215z" />
    <glyph glyph-name="Gcircumflex" unicode="&#x11c;" horiz-adv-x="1604" 
d="M253 176q-87 96 -128 241.5t-41 342.5q0 406 199 597q191 185 567 185q200 0 357 -59q120 -47 212 -137l-147 -152q-41 36 -80 62t-86 44q-112 43 -256 43q-287 0 -423 -142.5t-136 -442.5q0 -156 29.5 -266t94.5 -182q67 -74 173.5 -111t259.5 -37q139 0 230 28t144 86
q50 54 71.5 137t21.5 201v43h-490v185h695v-191q0 -167 -30 -288t-101 -205q-78 -90 -211 -135.5t-338 -45.5q-207 0 -352 50t-235 149zM695 1941h215l313 -336h-193l-231 207l-227 -207h-191z" />
    <glyph glyph-name="gcircumflex" unicode="&#x11d;" horiz-adv-x="1251" 
d="M417 431l-13 -19q-15 -22 -15 -52q0 -25 11 -40t36 -23q24 -8 66.5 -11t113.5 -3q165 0 270 -15t168 -50q64 -36 92 -92.5t28 -143.5q0 -94 -31.5 -159.5t-99.5 -106.5q-70 -42 -179.5 -62.5t-265.5 -20.5q-148 0 -249 13t-165 43q-67 30 -98 85t-31 142q0 106 46 174
q53 81 171 105q-63 44 -63 137q0 61 25 112q12 23 26 44q-8 5 -24 17q-115 88 -115 277q0 195 115 289t368 94q24 0 72 -2l450 64v-164h-183q70 -39 108.5 -101t38.5 -180q0 -127 -51 -207.5t-158 -119.5t-277 -39q-105 0 -187 15zM893 782q0 109 -69.5 156t-219.5 47
q-108 0 -171 -20t-91.5 -64t-28.5 -119q0 -72 28.5 -116t92 -65t170.5 -21q106 0 169 21t91.5 65t28.5 116zM901 -162q39 22 55.5 54.5t16.5 78.5t-19 73.5t-61 42.5t-112 21.5t-177 6.5q-114 0 -183.5 -12t-105.5 -35q-34 -21 -46.5 -50.5t-12.5 -68.5q0 -45 19.5 -76
t61.5 -49q40 -18 104.5 -25.5t162.5 -7.5q113 0 184 11.5t113 35.5zM506 1618h215l313 -336h-193l-231 207l-227 -207h-191z" />
    <glyph glyph-name="Gbreve" unicode="&#x11e;" horiz-adv-x="1604" 
d="M253 176q-87 96 -128 241.5t-41 342.5q0 406 199 597q191 185 567 185q200 0 357 -59q120 -47 212 -137l-147 -152q-41 36 -80 62t-86 44q-112 43 -256 43q-287 0 -423 -142.5t-136 -442.5q0 -156 29.5 -266t94.5 -182q67 -74 173.5 -111t259.5 -37q139 0 230 28t144 86
q50 54 71.5 137t21.5 201v43h-490v185h695v-191q0 -167 -30 -288t-101 -205q-78 -90 -211 -135.5t-338 -45.5q-207 0 -352 50t-235 149zM510 1679q-42 42 -67 100.5t-41 135.5l147 30q13 -52 28 -86t42 -58q30 -27 73 -40.5t107 -13.5q123 0 180 54q49 48 70 144l150 -28
q-20 -82 -44.5 -139t-66.5 -99q-47 -47 -117.5 -71.5t-171.5 -24.5q-193 0 -289 96z" />
    <glyph glyph-name="gbreve" unicode="&#x11f;" horiz-adv-x="1251" 
d="M417 431l-13 -19q-15 -22 -15 -52q0 -25 11 -40t36 -23q24 -8 66.5 -11t113.5 -3q165 0 270 -15t168 -50q64 -36 92 -92.5t28 -143.5q0 -94 -31.5 -159.5t-99.5 -106.5q-70 -42 -179.5 -62.5t-265.5 -20.5q-148 0 -249 13t-165 43q-67 30 -98 85t-31 142q0 106 46 174
q53 81 171 105q-63 44 -63 137q0 61 25 112q12 23 26 44q-8 5 -24 17q-115 88 -115 277q0 195 115 289t368 94q24 0 72 -2l450 64v-164h-183q70 -39 108.5 -101t38.5 -180q0 -127 -51 -207.5t-158 -119.5t-277 -39q-105 0 -187 15zM893 782q0 109 -69.5 156t-219.5 47
q-108 0 -171 -20t-91.5 -64t-28.5 -119q0 -72 28.5 -116t92 -65t170.5 -21q106 0 169 21t91.5 65t28.5 116zM901 -162q39 22 55.5 54.5t16.5 78.5t-19 73.5t-61 42.5t-112 21.5t-177 6.5q-114 0 -183.5 -12t-105.5 -35q-34 -21 -46.5 -50.5t-12.5 -68.5q0 -45 19.5 -76
t61.5 -49q40 -18 104.5 -25.5t162.5 -7.5q113 0 184 11.5t113 35.5zM333 1329q-42 42 -67 100.5t-41 135.5l147 30q13 -52 28 -86t42 -58q30 -27 73 -40.5t107 -13.5q123 0 180 54q49 48 70 144l150 -28q-20 -82 -44.5 -139t-66.5 -99q-47 -47 -117.5 -71.5t-171.5 -24.5
q-193 0 -289 96z" />
    <glyph glyph-name="Gdotaccent" unicode="&#x120;" horiz-adv-x="1604" 
d="M253 176q-87 96 -128 241.5t-41 342.5q0 406 199 597q191 185 567 185q200 0 357 -59q120 -47 212 -137l-147 -152q-41 36 -80 62t-86 44q-112 43 -256 43q-287 0 -423 -142.5t-136 -442.5q0 -156 29.5 -266t94.5 -182q67 -74 173.5 -111t259.5 -37q139 0 230 28t144 86
q50 54 71.5 137t21.5 201v43h-490v185h695v-191q0 -167 -30 -288t-101 -205q-78 -90 -211 -135.5t-338 -45.5q-207 0 -352 50t-235 149zM705 1841h201v-238h-201v238z" />
    <glyph glyph-name="gdotaccent" unicode="&#x121;" horiz-adv-x="1251" 
d="M417 431l-13 -19q-15 -22 -15 -52q0 -25 11 -40t36 -23q24 -8 66.5 -11t113.5 -3q165 0 270 -15t168 -50q64 -36 92 -92.5t28 -143.5q0 -94 -31.5 -159.5t-99.5 -106.5q-70 -42 -179.5 -62.5t-265.5 -20.5q-148 0 -249 13t-165 43q-67 30 -98 85t-31 142q0 106 46 174
q53 81 171 105q-63 44 -63 137q0 61 25 112q12 23 26 44q-8 5 -24 17q-115 88 -115 277q0 195 115 289t368 94q24 0 72 -2l450 64v-164h-183q70 -39 108.5 -101t38.5 -180q0 -127 -51 -207.5t-158 -119.5t-277 -39q-105 0 -187 15zM893 782q0 109 -69.5 156t-219.5 47
q-108 0 -171 -20t-91.5 -64t-28.5 -119q0 -72 28.5 -116t92 -65t170.5 -21q106 0 169 21t91.5 65t28.5 116zM901 -162q39 22 55.5 54.5t16.5 78.5t-19 73.5t-61 42.5t-112 21.5t-177 6.5q-114 0 -183.5 -12t-105.5 -35q-34 -21 -46.5 -50.5t-12.5 -68.5q0 -45 19.5 -76
t61.5 -49q40 -18 104.5 -25.5t162.5 -7.5q113 0 184 11.5t113 35.5zM524 1491h201v-238h-201v238z" />
    <glyph glyph-name="Gcommaaccent" unicode="&#x122;" horiz-adv-x="1604" 
d="M253 176q-87 96 -128 241.5t-41 342.5q0 406 199 597q191 185 567 185q200 0 357 -59q120 -47 212 -137l-147 -152q-41 36 -80 62t-86 44q-112 43 -256 43q-287 0 -423 -142.5t-136 -442.5q0 -156 29.5 -266t94.5 -182q67 -74 173.5 -111t259.5 -37q139 0 230 28t144 86
q50 54 71.5 137t21.5 201v43h-490v185h695v-191q0 -167 -30 -288t-101 -205q-78 -90 -211 -135.5t-338 -45.5q-207 0 -352 50t-235 149zM682 -457q48 24 72 44t33.5 44t9.5 62h-109v227h224v-170q0 -66 -7.5 -109t-26.5 -75t-54 -58.5t-93 -54.5z" />
    <glyph glyph-name="gcommaaccent" unicode="&#x123;" horiz-adv-x="1251" 
d="M417 431l-13 -19q-15 -22 -15 -52q0 -25 11 -40t36 -23q24 -8 66.5 -11t113.5 -3q165 0 270 -15t168 -50q64 -36 92 -92.5t28 -143.5q0 -94 -31.5 -159.5t-99.5 -106.5q-70 -42 -179.5 -62.5t-265.5 -20.5q-148 0 -249 13t-165 43q-67 30 -98 85t-31 142q0 106 46 174
q53 81 171 105q-63 44 -63 137q0 61 25 112q12 23 26 44q-8 5 -24 17q-115 88 -115 277q0 195 115 289t368 94q24 0 72 -2l450 64v-164h-183q70 -39 108.5 -101t38.5 -180q0 -127 -51 -207.5t-158 -119.5t-277 -39q-105 0 -187 15zM893 782q0 109 -69.5 156t-219.5 47
q-108 0 -171 -20t-91.5 -64t-28.5 -119q0 -72 28.5 -116t92 -65t170.5 -21q106 0 169 21t91.5 65t28.5 116zM901 -162q39 22 55.5 54.5t16.5 78.5t-19 73.5t-61 42.5t-112 21.5t-177 6.5q-114 0 -183.5 -12t-105.5 -35q-34 -21 -46.5 -50.5t-12.5 -68.5q0 -45 19.5 -76
t61.5 -49q40 -18 104.5 -25.5t162.5 -7.5q113 0 184 11.5t113 35.5zM512 1405q0 65 8 110t27 77t54.5 58.5t93.5 53.5l47 -90q-41 -22 -61 -35t-31 -29q-13 -18 -18 -38t-5 -50h109v-209h-224v152z" />
    <glyph glyph-name="Hcircumflex" unicode="&#x124;" horiz-adv-x="1612" 
d="M172 1518h207v-627h854v627h207v-1518h-207v686h-854v-686h-207v1518zM695 1941h215l313 -336h-193l-231 207l-227 -207h-191z" />
    <glyph glyph-name="hcircumflex" unicode="&#x125;" horiz-adv-x="1294" 
d="M147 1589h199v-549q35 55 124 88q103 37 271 37q132 0 214 -32.5t126 -96.5q40 -59 55 -142.5t15 -199.5v-694h-199v655q0 84 -7 136.5t-32 89.5q-29 43 -85.5 65.5t-149.5 22.5q-196 0 -270 -95q-33 -43 -46.5 -103t-13.5 -140v-631h-201v1589zM144 1958h215l313 -336
h-193l-231 207l-227 -207h-191z" />
    <glyph glyph-name="Hbar" unicode="&#x126;" horiz-adv-x="1612" 
d="M45 1274h127v244h207v-244h854v244h207v-244h125v-160h-125v-1114h-207v686h-854v-686h-207v1114h-127v160zM1233 891v223h-854v-223h854z" />
    <glyph glyph-name="hbar" unicode="&#x127;" horiz-adv-x="1294" 
d="M147 1589h199v-168h313v-139h-313v-242q35 55 124 88q103 37 271 37q132 0 214 -32.5t126 -96.5q40 -59 55 -142.5t15 -199.5v-694h-199v655q0 84 -7 136.5t-32 89.5q-29 43 -85.5 65.5t-149.5 22.5q-196 0 -270 -95q-33 -43 -46.5 -103t-13.5 -140v-631h-201v1282h-147
v139h147v168z" />
    <glyph glyph-name="Itilde" unicode="&#x128;" horiz-adv-x="582" 
d="M188 1518h205v-1518h-205v1518zM-125 1706q63 78 134.5 124t140.5 46q47 0 81.5 -13t76.5 -38q45 -28 70 -40t56 -12q36 0 76.5 29.5t87.5 83.5l117 -94q-65 -83 -136.5 -134t-139.5 -51q-42 0 -75 13t-79 39l-21 12q-36 20 -59.5 29.5t-50.5 9.5q-36 0 -76.5 -26
t-79.5 -74z" />
    <glyph glyph-name="itilde" unicode="&#x129;" horiz-adv-x="516" 
d="M160 1139h196v-1139h-196v1139zM-158 1356q63 78 134.5 124t140.5 46q47 0 81.5 -13t76.5 -38q45 -28 70 -40t56 -12q36 0 76.5 29.5t87.5 83.5l117 -94q-65 -83 -136.5 -134t-139.5 -51q-42 0 -75 13t-79 39l-21 12q-36 20 -59.5 29.5t-50.5 9.5q-36 0 -76.5 -26
t-79.5 -74z" />
    <glyph glyph-name="Imacron" unicode="&#x12a;" horiz-adv-x="582" 
d="M188 1518h205v-1518h-205v1518zM-88 1763h770v-170h-770v170z" />
    <glyph glyph-name="imacron" unicode="&#x12b;" horiz-adv-x="516" 
d="M160 1139h196v-1139h-196v1139zM-121 1413h770v-170h-770v170z" />
    <glyph glyph-name="Ibreve" unicode="&#x12c;" horiz-adv-x="582" 
d="M188 1518h205v-1518h-205v1518zM8 1679q-42 42 -67 100.5t-41 135.5l147 30q13 -52 28 -86t42 -58q30 -27 73 -40.5t107 -13.5q123 0 180 54q49 48 70 144l150 -28q-20 -82 -44.5 -139t-66.5 -99q-47 -47 -117.5 -71.5t-171.5 -24.5q-193 0 -289 96z" />
    <glyph glyph-name="ibreve" unicode="&#x12d;" horiz-adv-x="516" 
d="M160 1139h196v-1139h-196v1139zM-25 1329q-42 42 -67 100.5t-41 135.5l147 30q13 -52 28 -86t42 -58q30 -27 73 -40.5t107 -13.5q123 0 180 54q49 48 70 144l150 -28q-20 -82 -44.5 -139t-66.5 -99q-47 -47 -117.5 -71.5t-171.5 -24.5q-193 0 -289 96z" />
    <glyph glyph-name="Iogonek" unicode="&#x12e;" horiz-adv-x="582" 
d="M85 -396q-54 49 -54 146q0 85 44 152t113 110v1506h205v-1518q-196 -114 -196 -219q0 -44 21 -66q28 -30 99 -30q72 0 156 28l49 -121q-43 -21 -104 -34t-127 -13q-142 0 -206 59z" />
    <glyph glyph-name="iogonek" unicode="&#x12f;" horiz-adv-x="516" 
d="M158 1518h200v-242h-200v242zM48 -396q-54 49 -54 146q0 86 46.5 152.5t119.5 109.5v1127h196v-1139q-196 -114 -196 -219q0 -44 22 -66q30 -30 99 -30q75 0 155 28l49 -121q-45 -21 -104.5 -34t-126.5 -13q-142 0 -206 59z" />
    <glyph glyph-name="Idotaccent" unicode="&#x130;" horiz-adv-x="582" 
d="M188 1518h205v-1518h-205v1518zM197 1841h201v-238h-201v238z" />
    <glyph glyph-name="dotlessi" unicode="&#x131;" horiz-adv-x="516" 
d="M160 1139h196v-1139h-196v1139z" />
    <glyph glyph-name="IJ" unicode="&#x132;" horiz-adv-x="1430" 
d="M713 -2q-24 0 -35 1q-12 1 -41 1v190h150q101 0 160.5 27t86.5 83.5t27 150.5v1067h205v-1076q0 -124 -29 -209.5t-88 -137.5q-57 -51 -141.5 -74t-198.5 -23h-96zM188 1518h205v-1518h-205v1518z" />
    <glyph glyph-name="ij" unicode="&#x133;" horiz-adv-x="1034" 
d="M672 1518h200v-242h-200v242zM518 -180h16q46 0 73.5 8.5t42.5 27.5q14 19 19 49.5t5 82.5v1151h196v-1149q0 -101 -13.5 -164t-47.5 -99q-35 -37 -96 -54t-158 -17h-37v164zM158 1518h200v-242h-200v242zM160 1139h196v-1139h-196v1139z" />
    <glyph glyph-name="Jcircumflex" unicode="&#x134;" horiz-adv-x="848" 
d="M133 -2q-24 0 -35 1q-12 1 -41 1v190h150q101 0 160.5 27t86.5 83.5t27 150.5v1067h205v-1076q0 -124 -29 -209.5t-88 -137.5q-57 -51 -141.5 -74t-198.5 -23h-96zM480 1941h215l313 -336h-193l-231 207l-227 -207h-191z" />
    <glyph glyph-name="jcircumflex" unicode="&#x135;" horiz-adv-x="516" 
d="M4 -180h16q46 0 73.5 8.5t42.5 27.5q14 19 19 49.5t5 82.5v1151h196v-1149q0 -101 -13.5 -164t-47.5 -99q-35 -37 -96 -54t-158 -17h-37v164zM154 1591h215l313 -336h-193l-231 207l-227 -207h-191z" />
    <glyph glyph-name="Kcommaaccent" unicode="&#x136;" horiz-adv-x="1473" 
d="M655 768l-280 -313v-455h-203v1518h203v-797l715 797h237l-536 -598l610 -920h-236zM616 -457q48 24 72 44t33.5 44t9.5 62h-109v227h224v-170q0 -66 -7.5 -109t-26.5 -75t-54 -58.5t-93 -54.5z" />
    <glyph glyph-name="kcommaaccent" unicode="&#x137;" horiz-adv-x="1143" 
d="M147 1589h197v-1035l504 585h221l-404 -473l445 -666h-221l-356 521l-189 -215v-306h-197v1589zM450 -457q48 24 72 44t33.5 44t9.5 62h-109v227h224v-170q0 -66 -7.5 -109t-26.5 -75t-54 -58.5t-93 -54.5z" />
    <glyph glyph-name="kgreenlandic" unicode="&#x138;" horiz-adv-x="1143" 
d="M147 1139h197v-585l504 585h221l-404 -473l445 -666h-221l-356 521l-189 -215v-306h-197v1139z" />
    <glyph glyph-name="Lacute" unicode="&#x139;" horiz-adv-x="1219" 
d="M172 1518h207v-1328h790v-190h-997v1518zM493 1941h244l-363 -336h-184z" />
    <glyph glyph-name="lacute" unicode="&#x13a;" horiz-adv-x="625" 
d="M216 65q-29 35 -42.5 91t-13.5 139v1294h196v-1272q0 -43 5 -68.5t17 -41.5q13 -16 38 -23.5t67 -7.5h45v-174q-25 -4 -112 -4q-73 0 -122 16t-78 51zM467 1997h244l-363 -336h-184z" />
    <glyph glyph-name="Lcommaaccent" unicode="&#x13b;" horiz-adv-x="1219" 
d="M172 1518h207v-1328h790v-190h-997v1518zM487 -457q48 24 72 44t33.5 44t9.5 62h-109v227h224v-170q0 -66 -7.5 -109t-26.5 -75t-54 -58.5t-93 -54.5z" />
    <glyph glyph-name="lcommaaccent" unicode="&#x13c;" horiz-adv-x="625" 
d="M216 65q-29 35 -42.5 91t-13.5 139v1294h196v-1272q0 -43 5 -68.5t17 -41.5q13 -16 38 -23.5t67 -7.5h45v-174q-25 -4 -112 -4q-73 0 -122 16t-78 51zM192 -457q48 24 72 44t33.5 44t9.5 62h-109v227h224v-170q0 -66 -7.5 -109t-26.5 -75t-54 -58.5t-93 -54.5z" />
    <glyph glyph-name="Lcaron" unicode="&#x13d;" horiz-adv-x="1219" 
d="M172 1518h207v-1328h790v-190h-997v1518zM569 1212q48 25 72 45t33.5 43.5t9.5 61.5h-100v227h213v-168q0 -66 -7.5 -110t-26.5 -76q-19 -33 -54 -59.5t-93 -53.5z" />
    <glyph glyph-name="lcaron" unicode="&#x13e;" horiz-adv-x="754" 
d="M216 65q-29 35 -42.5 91t-13.5 139v1294h196v-1272q0 -43 5 -68.5t17 -41.5q13 -16 38 -23.5t67 -7.5h45v-174q-25 -4 -112 -4q-73 0 -122 16t-78 51zM517 1212q48 25 72 45t33.5 43.5t9.5 61.5h-100v227h213v-168q0 -66 -7.5 -110t-26.5 -76q-19 -33 -54 -59.5
t-93 -53.5z" />
    <glyph glyph-name="Ldot" unicode="&#x13f;" horiz-adv-x="1313" 
d="M172 1518h207v-1328h790v-190h-997v1518zM811 916h250v-275h-250v275z" />
    <glyph glyph-name="ldot" unicode="&#x140;" horiz-adv-x="1067" 
d="M216 65q-29 35 -42.5 91t-13.5 139v1294h196v-1272q0 -43 5 -68.5t17 -41.5q13 -16 38 -23.5t67 -7.5h45v-174q-25 -4 -112 -4q-73 0 -122 16t-78 51zM668 836h250v-275h-250v275z" />
    <glyph glyph-name="Lslash" unicode="&#x141;" horiz-adv-x="1219" 
d="M0 776l172 96v646h207v-531l326 182v-178l-326 -182v-619h790v-190h-997v694l-172 -96v178z" />
    <glyph glyph-name="lslash" unicode="&#x142;" horiz-adv-x="752" 
d="M47 932l197 114v543h200v-427l218 126v-172l-218 -126v-679q0 -43 4.5 -69.5t16.5 -42.5t36 -23.5t66 -7.5h47v-166q-25 -4 -112 -4q-97 0 -153 29t-80.5 92.5t-24.5 171.5v584l-197 -113v170z" />
    <glyph glyph-name="Nacute" unicode="&#x143;" horiz-adv-x="1620" 
d="M172 1518h225l850 -1170v1170h201v-1518h-191l-884 1214v-1214h-201v1518zM936 1941h244l-363 -336h-184z" />
    <glyph glyph-name="nacute" unicode="&#x144;" horiz-adv-x="1294" 
d="M147 1128l158 11l17 -109q46 62 133 95q108 40 286 40q132 0 214 -32.5t126 -96.5q40 -59 55 -142.5t15 -199.5v-694h-199v655q0 84 -7 136.5t-32 89.5q-29 43 -85.5 65.5t-149.5 22.5q-196 0 -270 -95q-33 -43 -46.5 -103t-13.5 -140v-631h-201v1128zM774 1591h244
l-363 -336h-184z" />
    <glyph glyph-name="Ncommaaccent" unicode="&#x145;" horiz-adv-x="1620" 
d="M172 1518h225l850 -1170v1170h201v-1518h-191l-884 1214v-1214h-201v1518zM688 -457q48 24 72 44t33.5 44t9.5 62h-109v227h224v-170q0 -66 -7.5 -109t-26.5 -75t-54 -58.5t-93 -54.5z" />
    <glyph glyph-name="ncommaaccent" unicode="&#x146;" horiz-adv-x="1294" 
d="M147 1128l158 11l17 -109q46 62 133 95q108 40 286 40q132 0 214 -32.5t126 -96.5q40 -59 55 -142.5t15 -199.5v-694h-199v655q0 84 -7 136.5t-32 89.5q-29 43 -85.5 65.5t-149.5 22.5q-196 0 -270 -95q-33 -43 -46.5 -103t-13.5 -140v-631h-201v1128zM524 -457
q48 24 72 44t33.5 44t9.5 62h-109v227h224v-170q0 -66 -7.5 -109t-26.5 -75t-54 -58.5t-93 -54.5z" />
    <glyph glyph-name="Ncaron" unicode="&#x147;" horiz-adv-x="1620" 
d="M172 1518h225l850 -1170v1170h201v-1518h-191l-884 1214v-1214h-201v1518zM383 1941h195l229 -207l230 207h188l-313 -336h-215z" />
    <glyph glyph-name="ncaron" unicode="&#x148;" horiz-adv-x="1294" 
d="M147 1128l158 11l17 -109q46 62 133 95q108 40 286 40q132 0 214 -32.5t126 -96.5q40 -59 55 -142.5t15 -199.5v-694h-199v655q0 84 -7 136.5t-32 89.5q-29 43 -85.5 65.5t-149.5 22.5q-196 0 -270 -95q-33 -43 -46.5 -103t-13.5 -140v-631h-201v1128zM221 1591h195
l229 -207l230 207h188l-313 -336h-215z" />
    <glyph glyph-name="napostrophe" unicode="&#x149;" horiz-adv-x="1763" 
d="M616 1128l158 11l17 -109q46 62 133 95q108 40 286 40q132 0 214 -32.5t126 -96.5q40 -59 55 -142.5t15 -199.5v-694h-199v655q0 84 -7 136.5t-32 89.5q-29 43 -85.5 65.5t-149.5 22.5q-196 0 -270 -95q-33 -43 -46.5 -103t-13.5 -140v-631h-201v1128zM129 1069
q40 22 64 39t39 35q14 17 19 40t5 58h-123v277h250v-203q0 -77 -8.5 -129.5t-28.5 -90.5q-22 -39 -61 -70.5t-103 -61.5z" />
    <glyph glyph-name="Eng" unicode="&#x14a;" horiz-adv-x="1618" 
d="M172 1518h221l860 -1184v1184h191v-1444q0 -121 -29.5 -205.5t-88.5 -137.5q-57 -52 -140.5 -76t-196.5 -24q-129 0 -170 4v177h150q133 0 196.5 50.5t75.5 160.5l-876 1206v-1229h-193v1518z" />
    <glyph glyph-name="eng" unicode="&#x14b;" horiz-adv-x="1294" 
d="M799 -186h14q45 0 72.5 8t43.5 27q14 17 18.5 47t4.5 86v677q0 84 -7 137.5t-32 91.5q-29 44 -85.5 66.5t-149.5 22.5q-197 0 -270 -97q-33 -43 -46.5 -105t-13.5 -142v-633h-201v1126l158 11l17 -156q46 83 133 127q108 55 286 55q132 0 214 -32t126 -96
q40 -57 55 -140.5t15 -200.5v-723q0 -92 -14.5 -152t-48.5 -95q-34 -36 -96 -52t-158 -16h-35v158z" />
    <glyph glyph-name="Omacron" unicode="&#x14c;" horiz-adv-x="1718" 
d="M289 161q-205 194 -205 599q0 403 205 597q195 185 569 185q375 0 570 -185q204 -193 204 -597q0 -406 -204 -599q-196 -186 -570 -186q-373 0 -569 186zM1425 756q0 289 -138 438t-429 149t-428 -149t-137 -438q0 -290 137 -439t428 -149t429 149.5t138 438.5zM471 1763
h770v-170h-770v170z" />
    <glyph glyph-name="omacron" unicode="&#x14d;" horiz-adv-x="1309" 
d="M222 128q-130 144 -130 443q0 300 130 444q68 75 174.5 112.5t256.5 37.5q151 0 258 -37.5t175 -112.5q131 -146 131 -444q0 -297 -131 -443q-68 -76 -175 -113.5t-258 -37.5q-150 0 -256.5 37.5t-174.5 113.5zM934 263q80 97 80 304q0 205 -83.5 306.5t-277.5 101.5
t-277 -101.5t-83 -306.5q0 -207 80 -304q87 -105 280 -105q100 0 169 26t112 79zM266 1413h770v-170h-770v170z" />
    <glyph glyph-name="Obreve" unicode="&#x14e;" horiz-adv-x="1718" 
d="M289 161q-205 194 -205 599q0 403 205 597q195 185 569 185q375 0 570 -185q204 -193 204 -597q0 -406 -204 -599q-196 -186 -570 -186q-373 0 -569 186zM1425 756q0 289 -138 438t-429 149t-428 -149t-137 -438q0 -290 137 -439t428 -149t429 149.5t138 438.5zM567 1679
q-42 42 -67 100.5t-41 135.5l147 30q13 -52 28 -86t42 -58q30 -27 73 -40.5t107 -13.5q123 0 180 54q49 48 70 144l150 -28q-20 -82 -44.5 -139t-66.5 -99q-47 -47 -117.5 -71.5t-171.5 -24.5q-193 0 -289 96z" />
    <glyph glyph-name="obreve" unicode="&#x14f;" horiz-adv-x="1309" 
d="M222 128q-130 144 -130 443q0 300 130 444q68 75 174.5 112.5t256.5 37.5q151 0 258 -37.5t175 -112.5q131 -146 131 -444q0 -297 -131 -443q-68 -76 -175 -113.5t-258 -37.5q-150 0 -256.5 37.5t-174.5 113.5zM934 263q80 97 80 304q0 205 -83.5 306.5t-277.5 101.5
t-277 -101.5t-83 -306.5q0 -207 80 -304q87 -105 280 -105q100 0 169 26t112 79zM362 1329q-42 42 -67 100.5t-41 135.5l147 30q13 -52 28 -86t42 -58q30 -27 73 -40.5t107 -13.5q123 0 180 54q49 48 70 144l150 -28q-20 -82 -44.5 -139t-66.5 -99q-47 -47 -117.5 -71.5
t-171.5 -24.5q-193 0 -289 96z" />
    <glyph glyph-name="Ohungarumlaut" unicode="&#x150;" horiz-adv-x="1718" 
d="M289 161q-205 194 -205 599q0 403 205 597q195 185 569 185q375 0 570 -185q204 -193 204 -597q0 -406 -204 -599q-196 -186 -570 -186q-373 0 -569 186zM1425 756q0 289 -138 438t-429 149t-428 -149t-137 -438q0 -290 137 -439t428 -149t429 149.5t138 438.5zM707 1937
h233l-319 -332h-172zM1194 1937h232l-316 -332h-174z" />
    <glyph glyph-name="ohungarumlaut" unicode="&#x151;" horiz-adv-x="1309" 
d="M222 128q-130 144 -130 443q0 300 130 444q68 75 174.5 112.5t256.5 37.5q151 0 258 -37.5t175 -112.5q131 -146 131 -444q0 -297 -131 -443q-68 -76 -175 -113.5t-258 -37.5q-150 0 -256.5 37.5t-174.5 113.5zM934 263q80 97 80 304q0 205 -83.5 306.5t-277.5 101.5
t-277 -101.5t-83 -306.5q0 -207 80 -304q87 -105 280 -105q100 0 169 26t112 79zM502 1587h233l-319 -332h-172zM989 1587h232l-316 -332h-174z" />
    <glyph glyph-name="OE" unicode="&#x152;" horiz-adv-x="2583" 
d="M1438 1518h1020v-199h-832v-440h811v-191h-811v-498h840v-190h-1028v202l-26 -31q-177 -196 -554 -196q-383 0 -575 186q-199 191 -199 599q0 406 199 597q191 185 575 185q377 0 554 -195l26 -31v202zM1296 321q67 73 98 181.5t31 253.5t-31 253.5t-98 181.5
q-70 76 -178 114t-260 38q-299 0 -436 -152q-129 -143 -129 -435q0 -293 129 -435q138 -153 436 -153q152 0 260 38.5t178 114.5z" />
    <glyph glyph-name="oe" unicode="&#x153;" horiz-adv-x="2150" 
d="M1125 154l-14 22q-16 -24 -32 -43q-130 -156 -426 -156q-301 0 -434 151q-127 143 -127 443q0 149 31 259.5t96 184.5q132 150 434 150q296 0 426 -156q18 -21 33 -45l15 24q60 85 167.5 131t274.5 46q226 0 340 -97q52 -45 82 -107t45 -151q14 -90 14 -225q0 -45 -2 -91
h-840q4 -68 16.5 -123t47.5 -104q41 -58 113.5 -87.5t187.5 -29.5q127 0 207 28t155 84l109 -139q-97 -76 -204.5 -111t-266.5 -35q-171 0 -279.5 45.5t-168.5 131.5zM1860 668q-7 87 -16.5 138t-34.5 90q-29 46 -89 69.5t-157 23.5q-112 0 -182.5 -29.5t-109.5 -87.5
q-39 -59 -52 -135l-9 -69h650zM934 263q80 97 80 304q0 205 -83.5 306.5t-277.5 101.5t-277 -101.5t-83 -306.5q0 -207 80 -304q87 -105 280 -105q100 0 169 26t112 79z" />
    <glyph glyph-name="Racute" unicode="&#x154;" horiz-adv-x="1499" 
d="M172 1518h676q281 0 411 -118q63 -57 92 -142t29 -199q0 -231 -123 -348q-65 -62 -168 -95q-34 -10 -75 -18l344 -598h-221l-339 584h-423v-584h-203v1518zM846 774q81 0 140 13.5t100 43.5q43 32 64 85.5t21 134.5t-21 134.5t-64 84.5q-41 29 -101.5 42t-144.5 13h-465
v-551h471zM876 1941h244l-363 -336h-184z" />
    <glyph glyph-name="racute" unicode="&#x155;" horiz-adv-x="760" 
d="M147 1128l158 11l21 -140q35 65 136.5 107.5t248.5 46.5v-201q-193 0 -284 -99q-79 -86 -79 -253v-600h-201v1128zM530 1591h244l-363 -336h-184z" />
    <glyph glyph-name="Rcommaaccent" unicode="&#x156;" horiz-adv-x="1499" 
d="M172 1518h676q281 0 411 -118q63 -57 92 -142t29 -199q0 -231 -123 -348q-65 -62 -168 -95q-34 -10 -75 -18l344 -598h-221l-339 584h-423v-584h-203v1518zM846 774q81 0 140 13.5t100 43.5q43 32 64 85.5t21 134.5t-21 134.5t-64 84.5q-41 29 -101.5 42t-144.5 13h-465
v-551h471zM630 -457q48 24 72 44t33.5 44t9.5 62h-109v227h224v-170q0 -66 -7.5 -109t-26.5 -75t-54 -58.5t-93 -54.5z" />
    <glyph glyph-name="rcommaaccent" unicode="&#x157;" horiz-adv-x="760" 
d="M147 1128l158 11l21 -140q35 65 136.5 107.5t248.5 46.5v-201q-193 0 -284 -99q-79 -86 -79 -253v-600h-201v1128zM135 -457q48 24 72 44t33.5 44t9.5 62h-109v227h224v-170q0 -66 -7.5 -109t-26.5 -75t-54 -58.5t-93 -54.5z" />
    <glyph glyph-name="Rcaron" unicode="&#x158;" horiz-adv-x="1499" 
d="M172 1518h676q281 0 411 -118q63 -57 92 -142t29 -199q0 -231 -123 -348q-65 -62 -168 -95q-34 -10 -75 -18l344 -598h-221l-339 584h-423v-584h-203v1518zM846 774q81 0 140 13.5t100 43.5q43 32 64 85.5t21 134.5t-21 134.5t-64 84.5q-41 29 -101.5 42t-144.5 13h-465
v-551h471zM323 1941h195l229 -207l230 207h188l-313 -336h-215z" />
    <glyph glyph-name="rcaron" unicode="&#x159;" horiz-adv-x="760" 
d="M147 1128l158 11l21 -140q35 65 136.5 107.5t248.5 46.5v-201q-193 0 -284 -99q-79 -86 -79 -253v-600h-201v1128zM-45 1591h195l229 -207l230 207h188l-313 -336h-215z" />
    <glyph glyph-name="Sacute" unicode="&#x15a;" horiz-adv-x="1460" 
d="M74 160l104 159q128 -83 262.5 -120t280.5 -37q227 0 329 63q50 31 73.5 81t23.5 120q0 68 -29 112.5t-87 73.5q-51 25 -123 41t-189 35q-147 24 -246 50.5t-168 69.5q-76 47 -113.5 121.5t-37.5 190.5q0 152 62 245t186.5 135t320.5 42q337 0 553 -139l-113 -170
q-80 54 -196.5 86.5t-243.5 32.5q-132 0 -212 -24t-116.5 -73.5t-36.5 -130.5q0 -63 27 -103.5t81 -67.5q47 -25 116.5 -41.5t187.5 -37.5q158 -27 253.5 -51.5t165.5 -65.5q80 -48 121.5 -125t41.5 -196q0 -154 -65 -255t-203 -151t-357 -50q-192 0 -354 43t-299 137z
M858 1941h244l-363 -336h-184z" />
    <glyph glyph-name="sacute" unicode="&#x15b;" horiz-adv-x="1098" 
d="M51 113l103 155q93 -59 197 -86.5t204 -27.5q102 0 160 14t86 50t28 104q0 40 -14 66t-47 45q-31 17 -80.5 29t-132.5 25q-123 23 -197 43.5t-127 53.5q-61 38 -91.5 99t-30.5 157q0 161 105 243t341 82q130 0 240.5 -26t193.5 -74l-94 -164q-70 37 -155 58.5t-181 21.5
q-143 0 -200 -36q-52 -34 -52 -105q0 -41 13.5 -66.5t44.5 -43.5q28 -18 75 -30.5t123 -25.5q126 -23 203 -43t132 -52q62 -37 93 -96.5t31 -152.5q0 -99 -27.5 -165.5t-85.5 -107.5q-57 -40 -147.5 -58.5t-218.5 -18.5q-136 0 -259.5 30t-232.5 103zM682 1591h244
l-363 -336h-184z" />
    <glyph glyph-name="Scircumflex" unicode="&#x15c;" horiz-adv-x="1460" 
d="M74 160l104 159q128 -83 262.5 -120t280.5 -37q227 0 329 63q50 31 73.5 81t23.5 120q0 68 -29 112.5t-87 73.5q-51 25 -123 41t-189 35q-147 24 -246 50.5t-168 69.5q-76 47 -113.5 121.5t-37.5 190.5q0 152 62 245t186.5 135t320.5 42q337 0 553 -139l-113 -170
q-80 54 -196.5 86.5t-243.5 32.5q-132 0 -212 -24t-116.5 -73.5t-36.5 -130.5q0 -63 27 -103.5t81 -67.5q47 -25 116.5 -41.5t187.5 -37.5q158 -27 253.5 -51.5t165.5 -65.5q80 -48 121.5 -125t41.5 -196q0 -154 -65 -255t-203 -151t-357 -50q-192 0 -354 43t-299 137z
M594 1941h215l313 -336h-193l-231 207l-227 -207h-191z" />
    <glyph glyph-name="scircumflex" unicode="&#x15d;" horiz-adv-x="1098" 
d="M51 113l103 155q93 -59 197 -86.5t204 -27.5q102 0 160 14t86 50t28 104q0 40 -14 66t-47 45q-31 17 -80.5 29t-132.5 25q-123 23 -197 43.5t-127 53.5q-61 38 -91.5 99t-30.5 157q0 161 105 243t341 82q130 0 240.5 -26t193.5 -74l-94 -164q-70 37 -155 58.5t-181 21.5
q-143 0 -200 -36q-52 -34 -52 -105q0 -41 13.5 -66.5t44.5 -43.5q28 -18 75 -30.5t123 -25.5q126 -23 203 -43t132 -52q62 -37 93 -96.5t31 -152.5q0 -99 -27.5 -165.5t-85.5 -107.5q-57 -40 -147.5 -58.5t-218.5 -18.5q-136 0 -259.5 30t-232.5 103zM437 1591h215l313 -336
h-193l-231 207l-227 -207h-191z" />
    <glyph glyph-name="Scedilla" unicode="&#x15e;" horiz-adv-x="1460" 
d="M791 -19l-13 -71q13 1 38 1q85 0 132 -25q74 -42 74 -154q0 -104 -67 -155.5t-216 -51.5q-140 0 -247 61l55 105q83 -47 184 -47q87 0 120.5 26t33.5 74q0 54 -42 74q-30 13 -98 13q-31 0 -49 -1l-49 35l23 116q-173 5 -321 48.5t-275 130.5l104 159q128 -83 262.5 -120
t280.5 -37q227 0 329 63q50 31 73.5 81t23.5 120q0 68 -29 112.5t-87 73.5q-51 25 -123 41t-189 35q-147 24 -246 50.5t-168 69.5q-76 47 -113.5 121.5t-37.5 190.5q0 152 62 245t186.5 135t320.5 42q337 0 553 -139l-113 -170q-80 54 -196.5 86.5t-243.5 32.5
q-132 0 -212 -24t-116.5 -73.5t-36.5 -130.5q0 -63 27 -103.5t81 -67.5q47 -25 116.5 -41.5t187.5 -37.5q158 -27 253.5 -51.5t165.5 -65.5q80 -48 121.5 -125t41.5 -196q0 -220 -134.5 -332.5t-426.5 -122.5z" />
    <glyph glyph-name="scedilla" unicode="&#x15f;" horiz-adv-x="1098" 
d="M1022 330q0 -99 -27.5 -165.5t-85.5 -107.5q-95 -67 -294 -75l-13 -72q13 1 38 1q85 0 132 -25q74 -42 74 -154q0 -104 -67 -155.5t-216 -51.5q-140 0 -247 61l55 105q83 -47 184 -47q87 0 120.5 26t33.5 74q0 54 -42 74q-30 13 -98 13q-31 0 -49 -1l-49 35l23 116
q-123 5 -233.5 35.5t-209.5 96.5l103 155q93 -59 197 -86.5t204 -27.5q102 0 160 14t86 50t28 104q0 40 -14 66t-47 45q-31 17 -80.5 29t-132.5 25q-123 23 -197 43.5t-127 53.5q-61 38 -91.5 99t-30.5 157q0 161 105 243t341 82q130 0 240.5 -26t193.5 -74l-94 -164
q-70 37 -155 58.5t-181 21.5q-143 0 -200 -36q-52 -34 -52 -105q0 -41 13.5 -66.5t44.5 -43.5q28 -18 75 -30.5t123 -25.5q126 -23 203 -43t132 -52q62 -37 93 -96.5t31 -152.5z" />
    <glyph glyph-name="Scaron" unicode="&#x160;" horiz-adv-x="1460" 
d="M74 160l104 159q128 -83 262.5 -120t280.5 -37q227 0 329 63q50 31 73.5 81t23.5 120q0 68 -29 112.5t-87 73.5q-51 25 -123 41t-189 35q-147 24 -246 50.5t-168 69.5q-76 47 -113.5 121.5t-37.5 190.5q0 152 62 245t186.5 135t320.5 42q337 0 553 -139l-113 -170
q-80 54 -196.5 86.5t-243.5 32.5q-132 0 -212 -24t-116.5 -73.5t-36.5 -130.5q0 -63 27 -103.5t81 -67.5q47 -25 116.5 -41.5t187.5 -37.5q158 -27 253.5 -51.5t165.5 -65.5q80 -48 121.5 -125t41.5 -196q0 -154 -65 -255t-203 -151t-357 -50q-192 0 -354 43t-299 137z
M305 1941h195l229 -207l230 207h188l-313 -336h-215z" />
    <glyph glyph-name="scaron" unicode="&#x161;" horiz-adv-x="1098" 
d="M51 113l103 155q93 -59 197 -86.5t204 -27.5q102 0 160 14t86 50t28 104q0 40 -14 66t-47 45q-31 17 -80.5 29t-132.5 25q-123 23 -197 43.5t-127 53.5q-61 38 -91.5 99t-30.5 157q0 161 105 243t341 82q130 0 240.5 -26t193.5 -74l-94 -164q-70 37 -155 58.5t-181 21.5
q-143 0 -200 -36q-52 -34 -52 -105q0 -41 13.5 -66.5t44.5 -43.5q28 -18 75 -30.5t123 -25.5q126 -23 203 -43t132 -52q62 -37 93 -96.5t31 -152.5q0 -99 -27.5 -165.5t-85.5 -107.5q-57 -40 -147.5 -58.5t-218.5 -18.5q-136 0 -259.5 30t-232.5 103zM129 1591h195l229 -207
l230 207h188l-313 -336h-215z" />
    <glyph glyph-name="uni0162" unicode="&#x162;" horiz-adv-x="1419" 
d="M757 0l-16 -90q13 1 38 1q85 0 132 -25q74 -42 74 -154q0 -104 -67 -155.5t-216 -51.5q-140 0 -247 61l55 105q83 -47 184 -47q87 0 120.5 26t33.5 74q0 54 -42 74q-30 13 -98 13q-31 0 -49 -1l-49 35l26 135h-30v1319h-557v199h1323v-199h-557v-1319h-58z" />
    <glyph glyph-name="uni0163" unicode="&#x163;" horiz-adv-x="856" 
d="M813 -268q0 -104 -67 -155.5t-216 -51.5q-140 0 -247 61l55 105q83 -47 184 -47q87 0 120.5 26t33.5 74q0 54 -42 74q-30 13 -98 13q-31 0 -49 -1l-49 35l28 142q-96 17 -143 69q-35 37 -49 94t-14 141v647h-201v181h207l35 323l158 31v-354h301v-181h-301v-620
q0 -43 5 -71t20 -47q17 -22 50 -33t89 -11h137v-176q-18 0 -34 -1t-51 -1h-87h-3l-16 -88q13 1 38 1q85 0 132 -25q74 -42 74 -154z" />
    <glyph glyph-name="Tcaron" unicode="&#x164;" horiz-adv-x="1419" 
d="M606 1319h-557v199h1323v-199h-557v-1319h-209v1319zM284 1941h195l229 -207l230 207h188l-313 -336h-215z" />
    <glyph glyph-name="tcaron" unicode="&#x165;" horiz-adv-x="856" 
d="M612 1413q41 23 60 36t31 28q12 16 17 36t5 50h-96v217h205v-164q0 -64 -7.5 -107t-25.5 -74q-19 -31 -52 -57t-90 -53zM59 1139h207l35 323l158 31v-354h301v-181h-301v-620q0 -43 5 -71t20 -47q17 -22 50 -33t89 -11h137v-176q-18 0 -34 -1t-51 -1h-87q-101 0 -165 19
t-100 59q-35 37 -49 94t-14 141v647h-201v181z" />
    <glyph glyph-name="Tbar" unicode="&#x166;" horiz-adv-x="1419" 
d="M317 807h289v512h-557v199h1323v-199h-557v-512h287v-168h-287v-639h-209v639h-289v168z" />
    <glyph glyph-name="tbar" unicode="&#x167;" horiz-adv-x="856" 
d="M59 684h201v274h-201v181h207l35 323l158 31v-354h301v-181h-301v-274h301v-162h-301v-184q0 -43 5 -71t20 -47q17 -22 50 -33t89 -11h137v-176q-18 0 -34 -1t-51 -1h-87q-101 0 -165 19t-100 59q-35 37 -49 94t-14 141v211h-201v162z" />
    <glyph glyph-name="Utilde" unicode="&#x168;" horiz-adv-x="1614" 
d="M271 154q-62 75 -85.5 175.5t-23.5 227.5v961h207v-936q0 -101 18.5 -175t64.5 -125q49 -56 136 -85t219 -29q134 0 222 28.5t139 84.5q47 50 66 124t19 177v936h201v-961q0 -171 -43 -283q-55 -143 -186 -216q-154 -85 -420 -85q-204 0 -333 47t-201 134zM393 1706
q63 78 134.5 124t140.5 46q47 0 81.5 -13t76.5 -38q45 -28 70 -40t56 -12q36 0 76.5 29.5t87.5 83.5l117 -94q-65 -83 -136.5 -134t-139.5 -51q-42 0 -75 13t-79 39l-21 12q-36 20 -59.5 29.5t-50.5 9.5q-36 0 -76.5 -26t-79.5 -74z" />
    <glyph glyph-name="utilde" unicode="&#x169;" horiz-adv-x="1280" 
d="M228 110q-50 60 -68.5 150.5t-18.5 226.5v652h199v-656q0 -87 6.5 -137.5t32.5 -90.5q31 -46 93 -69.5t171 -23.5t172 23.5t93 69.5q25 39 30.5 89.5t5.5 144.5v650h195v-645q0 -140 -17.5 -231t-65.5 -152q-52 -67 -151.5 -99t-261.5 -32q-161 0 -261 32t-154 98z
M223 1356q63 78 134.5 124t140.5 46q47 0 81.5 -13t76.5 -38q45 -28 70 -40t56 -12q36 0 76.5 29.5t87.5 83.5l117 -94q-65 -83 -136.5 -134t-139.5 -51q-42 0 -75 13t-79 39l-21 12q-36 20 -59.5 29.5t-50.5 9.5q-36 0 -76.5 -26t-79.5 -74z" />
    <glyph glyph-name="Umacron" unicode="&#x16a;" horiz-adv-x="1614" 
d="M271 154q-62 75 -85.5 175.5t-23.5 227.5v961h207v-936q0 -101 18.5 -175t64.5 -125q49 -56 136 -85t219 -29q134 0 222 28.5t139 84.5q47 50 66 124t19 177v936h201v-961q0 -171 -43 -283q-55 -143 -186 -216q-154 -85 -420 -85q-204 0 -333 47t-201 134zM418 1763h770
v-170h-770v170z" />
    <glyph glyph-name="umacron" unicode="&#x16b;" horiz-adv-x="1280" 
d="M228 110q-50 60 -68.5 150.5t-18.5 226.5v652h199v-656q0 -87 6.5 -137.5t32.5 -90.5q31 -46 93 -69.5t171 -23.5t172 23.5t93 69.5q25 39 30.5 89.5t5.5 144.5v650h195v-645q0 -140 -17.5 -231t-65.5 -152q-52 -67 -151.5 -99t-261.5 -32q-161 0 -261 32t-154 98z
M252 1413h770v-170h-770v170z" />
    <glyph glyph-name="Ubreve" unicode="&#x16c;" horiz-adv-x="1614" 
d="M271 154q-62 75 -85.5 175.5t-23.5 227.5v961h207v-936q0 -101 18.5 -175t64.5 -125q49 -56 136 -85t219 -29q134 0 222 28.5t139 84.5q47 50 66 124t19 177v936h201v-961q0 -171 -43 -283q-55 -143 -186 -216q-154 -85 -420 -85q-204 0 -333 47t-201 134zM516 1679
q-42 42 -67 100.5t-41 135.5l147 30q13 -52 28 -86t42 -58q30 -27 73 -40.5t107 -13.5q123 0 180 54q49 48 70 144l150 -28q-20 -82 -44.5 -139t-66.5 -99q-47 -47 -117.5 -71.5t-171.5 -24.5q-193 0 -289 96z" />
    <glyph glyph-name="ubreve" unicode="&#x16d;" horiz-adv-x="1280" 
d="M228 110q-50 60 -68.5 150.5t-18.5 226.5v652h199v-656q0 -87 6.5 -137.5t32.5 -90.5q31 -46 93 -69.5t171 -23.5t172 23.5t93 69.5q25 39 30.5 89.5t5.5 144.5v650h195v-645q0 -140 -17.5 -231t-65.5 -152q-52 -67 -151.5 -99t-261.5 -32q-161 0 -261 32t-154 98z
M348 1329q-42 42 -67 100.5t-41 135.5l147 30q13 -52 28 -86t42 -58q30 -27 73 -40.5t107 -13.5q123 0 180 54q49 48 70 144l150 -28q-20 -82 -44.5 -139t-66.5 -99q-47 -47 -117.5 -71.5t-171.5 -24.5q-193 0 -289 96z" />
    <glyph glyph-name="Uring" unicode="&#x16e;" horiz-adv-x="1614" 
d="M271 154q-62 75 -85.5 175.5t-23.5 227.5v961h207v-936q0 -101 18.5 -175t64.5 -125q49 -56 136 -85t219 -29q134 0 222 28.5t139 84.5q47 50 66 124t19 177v936h201v-961q0 -171 -43 -283q-55 -143 -186 -216q-154 -85 -420 -85q-204 0 -333 47t-201 134zM606 1657
q-31 33 -46 82t-15 106q0 122 61 192q32 36 82 56t115 20q126 0 194 -76q31 -35 46.5 -84.5t15.5 -107.5q0 -119 -65 -191.5t-191 -72.5q-65 0 -114.5 20t-82.5 56zM949 1845q0 70 -36 112t-110 42q-76 0 -111.5 -41.5t-35.5 -112.5q0 -70 35.5 -112t111.5 -42q74 0 110 42
t36 112z" />
    <glyph glyph-name="uring" unicode="&#x16f;" horiz-adv-x="1280" 
d="M228 110q-50 60 -68.5 150.5t-18.5 226.5v652h199v-656q0 -87 6.5 -137.5t32.5 -90.5q31 -46 93 -69.5t171 -23.5t172 23.5t93 69.5q25 39 30.5 89.5t5.5 144.5v650h195v-645q0 -140 -17.5 -231t-65.5 -152q-52 -67 -151.5 -99t-261.5 -32q-161 0 -261 32t-154 98z
M440 1307q-31 33 -46 82t-15 106q0 122 61 192q32 36 82 56t115 20q126 0 194 -76q31 -35 46.5 -84.5t15.5 -107.5q0 -119 -65 -191.5t-191 -72.5q-65 0 -114.5 20t-82.5 56zM783 1495q0 70 -36 112t-110 42q-76 0 -111.5 -41.5t-35.5 -112.5q0 -70 35.5 -112t111.5 -42
q74 0 110 42t36 112z" />
    <glyph glyph-name="Uhungarumlaut" unicode="&#x170;" horiz-adv-x="1614" 
d="M271 154q-62 75 -85.5 175.5t-23.5 227.5v961h207v-936q0 -101 18.5 -175t64.5 -125q49 -56 136 -85t219 -29q134 0 222 28.5t139 84.5q47 50 66 124t19 177v936h201v-961q0 -171 -43 -283q-55 -143 -186 -216q-154 -85 -420 -85q-204 0 -333 47t-201 134zM654 1937h233
l-319 -332h-172zM1141 1937h232l-316 -332h-174z" />
    <glyph glyph-name="uhungarumlaut" unicode="&#x171;" horiz-adv-x="1280" 
d="M228 110q-50 60 -68.5 150.5t-18.5 226.5v652h199v-656q0 -87 6.5 -137.5t32.5 -90.5q31 -46 93 -69.5t171 -23.5t172 23.5t93 69.5q25 39 30.5 89.5t5.5 144.5v650h195v-645q0 -140 -17.5 -231t-65.5 -152q-52 -67 -151.5 -99t-261.5 -32q-161 0 -261 32t-154 98z
M488 1587h233l-319 -332h-172zM975 1587h232l-316 -332h-174z" />
    <glyph glyph-name="Uogonek" unicode="&#x172;" horiz-adv-x="1614" 
d="M825 -396q-49 45 -49 136q0 71 45.5 133.5t112.5 108.5q-50 -9 -129 -9q-203 0 -332.5 47t-201.5 133q-62 74 -85.5 173.5t-23.5 228.5v963h207v-940q0 -103 18.5 -176.5t64.5 -126.5q50 -58 136 -87.5t219 -29.5q134 0 222 29t139 86q47 53 66 127t19 178v940h201v-963
q0 -95 -12 -171.5t-42 -139.5q-69 -145 -235 -217q-117 -56 -180 -128t-63 -139q0 -47 25 -67q32 -27 112 -27q92 0 184 45l41 -100q-126 -62 -254 -62q-147 0 -205 55z" />
    <glyph glyph-name="uogonek" unicode="&#x173;" horiz-adv-x="1280" 
d="M614 -396q-26 24 -36.5 57.5t-10.5 78.5q0 70 52 141q46 62 106 101q-18 -5 -40 -5h-46q-161 0 -259.5 32.5t-152.5 98.5q-49 60 -67.5 150t-18.5 223v656h199v-658q0 -85 6.5 -137.5t31.5 -92.5q29 -47 92 -71t173 -24q109 0 172 24t93 71q25 39 30.5 89.5t5.5 146.5
v652h195v-648q0 -101 -8 -171.5t-30 -125.5q-25 -60 -66.5 -104t-106.5 -76q-97 -46 -156 -116.5t-59 -135.5q0 -46 28.5 -70t106.5 -24q94 0 186 45l41 -100q-126 -62 -256 -62q-147 0 -205 55z" />
    <glyph glyph-name="Wcircumflex" unicode="&#x174;" horiz-adv-x="2218" 
d="M63 1518h216l368 -1182l377 1182h182l377 -1182l369 1182h202l-481 -1528h-182l-381 1190l-379 -1190h-184zM1002 1941h215l313 -336h-193l-231 207l-227 -207h-191z" />
    <glyph glyph-name="wcircumflex" unicode="&#x175;" horiz-adv-x="1819" 
d="M27 1139h209l294 -860l283 860h197l282 -858l297 858h203l-401 -1149h-199l-283 848l-282 -848h-201zM797 1591h215l313 -336h-193l-231 207l-227 -207h-191z" />
    <glyph glyph-name="Ycircumflex" unicode="&#x176;" horiz-adv-x="1466" 
d="M20 1518h226l489 -756l494 756h215l-608 -939v-579h-205v574zM621 1941h215l313 -336h-193l-231 207l-227 -207h-191z" />
    <glyph glyph-name="ycircumflex" unicode="&#x177;" horiz-adv-x="1114" 
d="M14 1139h213l335 -889l331 889h209l-484 -1235q-48 -133 -126 -189q-80 -59 -230 -59h-51q-29 0 -53 2v162h88q57 0 90 9t52.5 31t33.5 64l34 89zM457 1591h215l313 -336h-193l-231 207l-227 -207h-191z" />
    <glyph glyph-name="Ydieresis" unicode="&#x178;" horiz-adv-x="1466" 
d="M20 1518h226l489 -756l494 756h215l-608 -939v-579h-205v574zM418 1841h182v-229h-182v229zM860 1841h180v-229h-180v229z" />
    <glyph glyph-name="Zacute" unicode="&#x179;" horiz-adv-x="1376" 
d="M86 164l918 1155h-883v199h1143v-181l-914 -1147h936v-190h-1200v164zM817 1941h244l-363 -336h-184z" />
    <glyph glyph-name="zacute" unicode="&#x17a;" horiz-adv-x="1049" 
d="M61 145l650 813h-617v181h877v-150l-652 -819h674v-170h-932v145zM661 1591h244l-363 -336h-184z" />
    <glyph glyph-name="Zdotaccent" unicode="&#x17b;" horiz-adv-x="1376" 
d="M86 164l918 1155h-883v199h1143v-181l-914 -1147h936v-190h-1200v164zM586 1841h201v-238h-201v238z" />
    <glyph glyph-name="zdotaccent" unicode="&#x17c;" horiz-adv-x="1049" 
d="M61 145l650 813h-617v181h877v-150l-652 -819h674v-170h-932v145zM430 1491h201v-238h-201v238z" />
    <glyph glyph-name="Zcaron" unicode="&#x17d;" horiz-adv-x="1376" 
d="M86 164l918 1155h-883v199h1143v-181l-914 -1147h936v-190h-1200v164zM264 1941h195l229 -207l230 207h188l-313 -336h-215z" />
    <glyph glyph-name="zcaron" unicode="&#x17e;" horiz-adv-x="1049" 
d="M61 145l650 813h-617v181h877v-150l-652 -819h674v-170h-932v145zM108 1591h195l229 -207l230 207h188l-313 -336h-215z" />
    <glyph glyph-name="florin" unicode="&#x192;" horiz-adv-x="1133" 
d="M178 930h254l55 256q18 85 39 140.5t59 95.5q44 46 117 71t183 25h80v-189h-70q-61 0 -100.5 -15t-63.5 -43q-22 -26 -34.5 -61t-22.5 -84l-42 -196h333v-180h-371l-232 -1090h-200l232 1090h-216v180z" />
    <glyph glyph-name="Aringacute" unicode="&#x1fa;" horiz-adv-x="1520" 
d="M616 1434q-114 65 -114 231q0 118 63.5 191t192.5 73q85 0 143 -34.5t86.5 -94t28.5 -135.5q0 -79 -28.5 -138.5t-86.5 -90.5l574 -1436h-211l-127 317h-762l-123 -317h-207zM905 1665q0 71 -35.5 113.5t-111.5 42.5q-74 0 -111 -43t-37 -113t36.5 -112t111.5 -42
q76 0 111.5 41.5t35.5 112.5zM1063 508l-307 772l-307 -772h614zM887 2322h244l-363 -336h-184z" />
    <glyph glyph-name="aringacute" unicode="&#x1fb;" horiz-adv-x="1284" 
d="M161 79q-81 81 -81 245q0 123 38 203t124 127t228 67t361 20h61q-1 61 -9.5 102t-35.5 71q-31 33 -87.5 49t-151.5 16q-99 0 -186.5 -27.5t-149.5 -68.5l-104 155q80 51 182 84q132 43 277 43t235 -25.5t140 -80.5q47 -52 65 -136.5t18 -213.5v-406q0 -44 3.5 -68
t14.5 -37t32.5 -17.5t62.5 -4.5v-174q-9 -4 -31 -4h-51q-47 0 -78 7t-54 23q-42 28 -62 99q-54 -75 -155.5 -111t-279.5 -36q-227 0 -326 99zM294 451q-24 -45 -24 -113q0 -63 23 -103.5t78 -61.5t149 -21q133 0 215 36t120 112.5t38 201.5v69h-51q-170 0 -288 -11
q-111 -11 -174 -37.5t-86 -71.5zM446 1307q-31 33 -46 82t-15 106q0 122 61 192q32 36 82 56t115 20q126 0 194 -76q31 -35 46.5 -84.5t15.5 -107.5q0 -119 -65 -191.5t-191 -72.5q-65 0 -114.5 20t-82.5 56zM789 1495q0 70 -36 112t-110 42q-76 0 -111.5 -41.5
t-35.5 -112.5q0 -70 35.5 -112t111.5 -42q74 0 110 42t36 112zM774 2173h244l-363 -336h-184z" />
    <glyph glyph-name="AEacute" unicode="&#x1fc;" horiz-adv-x="2234" 
d="M985 1518h1126v-199h-833v-440h813v-191h-813v-498h842v-190h-1041v319h-639l-204 -319h-205zM1079 498v835l-534 -835h534zM1198 1941h244l-363 -336h-184z" />
    <glyph glyph-name="aeacute" unicode="&#x1fd;" horiz-adv-x="2019" 
d="M994 154l-20 31q-11 -21 -29 -46q-94 -123 -263 -147q-84 -12 -190 -12q-147 0 -237.5 37.5t-132.5 113t-42 193.5q0 122 40.5 202.5t128.5 127.5q87 47 228 67t354 20h61q-1 61 -9.5 102t-35.5 71q-31 33 -87.5 49t-151.5 16q-99 0 -187.5 -27.5t-152.5 -66.5l-100 153
q80 51 182 84q132 43 277 43q142 0 229 -29t132 -88q14 -18 24 -39q61 73 162 114.5t264 41.5q225 0 341 -97q52 -44 81 -105.5t45 -151.5q14 -89 14 -236q0 -27 -2 -81h-840q4 -68 16.5 -123t47.5 -104q40 -58 113.5 -87.5t189.5 -29.5q131 0 216 32q70 25 144 80l109 -139
q-102 -76 -199 -108q-111 -38 -270 -38q-173 0 -281.5 45.5t-168.5 131.5zM1729 668q-7 94 -15.5 142.5t-34.5 86.5q-32 45 -90.5 68.5t-154.5 23.5q-112 0 -183.5 -29.5t-110.5 -87.5q-39 -59 -52 -135l-9 -69h650zM295 453q-25 -44 -25 -115q0 -64 23 -104.5t78 -61
t151 -20.5q132 0 213.5 36.5t119.5 113.5t38 200v69h-51q-177 0 -284 -10q-111 -10 -175 -36.5t-88 -71.5zM1077 1591h244l-363 -336h-184z" />
    <glyph glyph-name="Oslashacute" unicode="&#x1fe;" horiz-adv-x="1718" 
d="M526 20l-59 -104h-199l101 176q-47 32 -87 69q-198 192 -198 599q0 406 199 597q191 185 575 185q176 0 313 -39l58 101h196l-96 -168q60 -36 104 -79q199 -191 199 -597q0 -407 -198 -599q-193 -186 -576 -186q-188 0 -332 45zM417 1196q-67 -74 -98.5 -183.5
t-31.5 -256.5t31 -257t98 -184q27 -29 59 -53l604 1063q-94 25 -221 25q-154 0 -263 -38.5t-178 -115.5zM1302 316q67 74 98.5 183.5t31.5 256.5t-31.5 256.5t-99.5 183.5q-35 38 -78 66l-607 -1069q100 -31 242 -31q304 0 444 154zM987 1941h244l-363 -336h-184z" />
    <glyph glyph-name="oslashacute" unicode="&#x1ff;" horiz-adv-x="1309" 
d="M411 9l-59 -95h-182l100 166q-27 21 -52 48q-126 143 -126 443q0 149 31 259.5t96 184.5q132 150 434 150q139 0 244 -32l57 96h183l-98 -168q30 -23 50 -46q67 -73 97.5 -183.5t30.5 -260.5q0 -149 -30.5 -259.5t-96.5 -183.5q-136 -151 -437 -151q-138 0 -242 32z
M369 872q-42 -51 -61 -127t-19 -178q0 -209 80 -306l12 -14l420 713q-60 19 -148 19q-197 0 -284 -107zM938 261q80 97 80 306q0 207 -80 304l-14 16l-424 -713q66 -20 153 -20q197 0 285 107zM782 1591h244l-363 -336h-184z" />
    <glyph glyph-name="Scommaaccent" unicode="&#x218;" horiz-adv-x="1460" 
d="M74 160l104 159q128 -83 262.5 -120t280.5 -37q227 0 329 63q50 31 73.5 81t23.5 120q0 68 -29 112.5t-87 73.5q-51 25 -123 41t-189 35q-147 24 -246 50.5t-168 69.5q-76 47 -113.5 121.5t-37.5 190.5q0 152 62 245t186.5 135t320.5 42q337 0 553 -139l-113 -170
q-80 54 -196.5 86.5t-243.5 32.5q-132 0 -212 -24t-116.5 -73.5t-36.5 -130.5q0 -63 27 -103.5t81 -67.5q47 -25 116.5 -41.5t187.5 -37.5q158 -27 253.5 -51.5t165.5 -65.5q80 -48 121.5 -125t41.5 -196q0 -154 -65 -255t-203 -151t-357 -50q-192 0 -354 43t-299 137z
M608 -457q48 24 72 44t33.5 44t9.5 62h-109v227h224v-170q0 -66 -7.5 -109t-26.5 -75t-54 -58.5t-93 -54.5z" />
    <glyph glyph-name="scommaaccent" unicode="&#x219;" horiz-adv-x="1098" 
d="M51 113l103 155q93 -59 197 -86.5t204 -27.5q102 0 160 14t86 50t28 104q0 40 -14 66t-47 45q-31 17 -80.5 29t-132.5 25q-123 23 -197 43.5t-127 53.5q-61 38 -91.5 99t-30.5 157q0 161 105 243t341 82q130 0 240.5 -26t193.5 -74l-94 -164q-70 37 -155 58.5t-181 21.5
q-143 0 -200 -36q-52 -34 -52 -105q0 -41 13.5 -66.5t44.5 -43.5q28 -18 75 -30.5t123 -25.5q126 -23 203 -43t132 -52q62 -37 93 -96.5t31 -152.5q0 -99 -27.5 -165.5t-85.5 -107.5q-57 -40 -147.5 -58.5t-218.5 -18.5q-136 0 -259.5 30t-232.5 103zM426 -457q48 24 72 44
t33.5 44t9.5 62h-109v227h224v-170q0 -66 -7.5 -109t-26.5 -75t-54 -58.5t-93 -54.5z" />
    <glyph glyph-name="uni021A" unicode="&#x21a;" horiz-adv-x="1419" 
d="M606 1319h-557v199h1323v-199h-557v-1319h-209v1319zM590 -457q48 24 72 44t33.5 44t9.5 62h-109v227h224v-170q0 -66 -7.5 -109t-26.5 -75t-54 -58.5t-93 -54.5z" />
    <glyph glyph-name="uni021B" unicode="&#x21b;" horiz-adv-x="856" 
d="M59 1139h207l35 323l158 31v-354h301v-181h-301v-620q0 -43 5 -71t20 -47q17 -22 50 -33t89 -11h137v-176q-18 0 -34 -1t-51 -1h-87q-101 0 -165 19t-100 59q-35 37 -49 94t-14 141v647h-201v181zM252 -457q48 24 72 44t33.5 44t9.5 62h-109v227h224v-170
q0 -66 -7.5 -109t-26.5 -75t-54 -58.5t-93 -54.5z" />
    <glyph glyph-name="uni0237" unicode="&#x237;" horiz-adv-x="516" 
d="M4 -180h16q46 0 73.5 8.5t42.5 27.5q14 19 19 49.5t5 82.5v1151h196v-1149q0 -101 -13.5 -164t-47.5 -99q-35 -37 -96 -54t-158 -17h-37v164z" />
    <glyph glyph-name="circumflex" unicode="&#x2c6;" horiz-adv-x="1208" 
d="M496 1591h215l313 -336h-193l-231 207l-227 -207h-191z" />
    <glyph glyph-name="caron" unicode="&#x2c7;" horiz-adv-x="1208" 
d="M182 1591h195l229 -207l230 207h188l-313 -336h-215z" />
    <glyph glyph-name="uni02C9" unicode="&#x2c9;" horiz-adv-x="1208" 
d="M219 1413h770v-170h-770v170z" />
    <glyph glyph-name="breve" unicode="&#x2d8;" horiz-adv-x="1208" 
d="M315 1329q-42 42 -67 100.5t-41 135.5l147 30q13 -52 28 -86t42 -58q30 -27 73 -40.5t107 -13.5q123 0 180 54q49 48 70 144l150 -28q-20 -82 -44.5 -139t-66.5 -99q-47 -47 -117.5 -71.5t-171.5 -24.5q-193 0 -289 96z" />
    <glyph glyph-name="dotaccent" unicode="&#x2d9;" horiz-adv-x="1208" 
d="M504 1491h201v-238h-201v238z" />
    <glyph glyph-name="ring" unicode="&#x2da;" horiz-adv-x="1208" 
d="M407 1307q-31 33 -46 82t-15 106q0 122 61 192q32 36 82 56t115 20q126 0 194 -76q31 -35 46.5 -84.5t15.5 -107.5q0 -119 -65 -191.5t-191 -72.5q-65 0 -114.5 20t-82.5 56zM750 1495q0 70 -36 112t-110 42q-76 0 -111.5 -41.5t-35.5 -112.5q0 -70 35.5 -112t111.5 -42
q74 0 110 42t36 112z" />
    <glyph glyph-name="ogonek" unicode="&#x2db;" horiz-adv-x="1208" 
d="M412 -397q-54 46 -54 145q0 91 66 167q55 63 125 101h182q-101 -58 -155 -120t-54 -115q0 -24 4.5 -40t18.5 -28q15 -14 39.5 -21t64.5 -7q47 0 97 10.5t79 25.5l49 -120q-48 -25 -114.5 -40.5t-134.5 -15.5q-149 0 -213 58z" />
    <glyph glyph-name="tilde" unicode="&#x2dc;" horiz-adv-x="1208" 
d="M184 1356q63 78 134.5 124t140.5 46q47 0 81.5 -13t76.5 -38q45 -28 70 -40t56 -12q36 0 76.5 29.5t87.5 83.5l117 -94q-65 -83 -136.5 -134t-139.5 -51q-42 0 -75 13t-79 39l-21 12q-36 20 -59.5 29.5t-50.5 9.5q-36 0 -76.5 -26t-79.5 -74z" />
    <glyph glyph-name="hungarumlaut" unicode="&#x2dd;" horiz-adv-x="1208" 
d="M455 1587h233l-319 -332h-172zM942 1587h232l-316 -332h-174z" />
    <glyph glyph-name="uni0374" unicode="&#x374;" horiz-adv-x="600" 
d="M129 899l122 619h204l-142 -619h-184z" />
    <glyph glyph-name="uni0375" unicode="&#x375;" horiz-adv-x="600" 
d="M129 -299l122 619h204l-142 -619h-184z" />
    <glyph glyph-name="uni037E" unicode="&#x37e;" horiz-adv-x="559" 
d="M154 1139h249v-262h-249v262zM150 -162q43 24 66 39.5t36 32.5q14 17 19 37.5t5 52.5h-122v262h249v-192q0 -71 -8.5 -120t-28.5 -87q-21 -38 -59.5 -68t-103.5 -61z" />
    <glyph glyph-name="tonos" unicode="&#x384;" horiz-adv-x="1208" 
d="M637 1587h188l-174 -332h-157z" />
    <glyph glyph-name="dieresistonos" unicode="&#x385;" horiz-adv-x="1208" 
d="M608 1585h174l-166 -332h-141zM244 1477h145v-224h-145v224zM821 1477h146v-224h-146v224z" />
    <glyph glyph-name="Alphatonos" unicode="&#x386;" horiz-adv-x="1538" 
d="M667 1528h211l609 -1528h-213l-125 319h-758l-125 -319h-207zM1075 510l-307 770l-308 -770h615zM254 1526h188l-174 -332h-157z" />
    <glyph glyph-name="anoteleia" unicode="&#x387;" horiz-adv-x="518" 
d="M133 836h250v-275h-250v275z" />
    <glyph glyph-name="Epsilontonos" unicode="&#x388;" horiz-adv-x="1726" 
d="M561 1518h1038v-199h-831v-436h811v-197h-811v-496h840v-190h-1047v1518zM254 1521h188l-174 -332h-157z" />
    <glyph glyph-name="Etatonos" unicode="&#x389;" horiz-adv-x="2003" 
d="M561 1518h207v-627h854v627h207v-1518h-207v686h-854v-686h-207v1518zM254 1521h188l-174 -332h-157z" />
    <glyph glyph-name="Iotatonos" unicode="&#x38a;" horiz-adv-x="967" 
d="M567 1518h205v-1518h-205v1518zM254 1521h188l-174 -332h-157z" />
    <glyph glyph-name="Omicrontonos" unicode="&#x38c;" horiz-adv-x="2034" 
d="M602 161q-205 194 -205 599q0 403 205 597q195 185 569 185q375 0 570 -185q204 -193 204 -597q0 -406 -204 -599q-196 -186 -570 -186q-373 0 -569 186zM1738 756q0 289 -138 438t-429 149t-428 -149t-137 -438q0 -290 137 -439t428 -149t429 149.5t138 438.5zM254 1521
h188l-174 -332h-157z" />
    <glyph glyph-name="Upsilontonos" unicode="&#x38e;" horiz-adv-x="1972" 
d="M524 1518h226l489 -756l494 756h215l-608 -939v-579h-205v574zM254 1521h188l-174 -332h-157z" />
    <glyph glyph-name="Omegatonos" unicode="&#x38f;" horiz-adv-x="2064" 
d="M1184 1542q196 0 342.5 -51t243 -142.5t143.5 -218t47 -276.5q0 -248 -118 -408.5t-331 -207.5v-56h457v-182h-610v338q209 45 301 171t92 316q0 246 -142.5 386.5t-424.5 140.5q-283 0 -426.5 -140.5t-143.5 -386.5q0 -190 92.5 -316t300.5 -171v-338h-610v182h457v56
q-211 47 -329 207.5t-118 408.5q0 150 47.5 276.5t143.5 218t242.5 142.5t343.5 51zM254 1521h188l-174 -332h-157z" />
    <glyph glyph-name="iotadieresistonos" unicode="&#x390;" horiz-adv-x="516" 
d="M160 1139h196v-1139h-196v1139zM266 1585h174l-166 -332h-141zM-98 1477h145v-224h-145v224zM479 1477h146v-224h-146v224z" />
    <glyph glyph-name="Alpha" unicode="&#x391;" horiz-adv-x="1518" 
d="M653 1528h211l609 -1528h-213l-125 319h-758l-125 -319h-207zM1061 510l-307 770l-308 -770h615z" />
    <glyph glyph-name="Beta" unicode="&#x392;" horiz-adv-x="1468" 
d="M172 1518h670q178 0 289.5 -40.5t165 -123t53.5 -211.5q0 -139 -45 -227t-146 -119q126 -32 178 -122t52 -255q0 -117 -35.5 -197.5t-105.5 -130.5q-132 -92 -419 -92h-657v1518zM848 877q164 0 234 65q59 56 59 172q0 110 -68.5 162.5t-224.5 52.5h-473v-452h473z
M852 186q172 0 250 59t78 193q0 88 -34.5 142t-107.5 79t-190 25h-473v-498h477z" />
    <glyph glyph-name="Gamma" unicode="&#x393;" horiz-adv-x="1257" 
d="M379 0h-207v1518h1010v-189h-803v-1329z" />
    <glyph glyph-name="uni0394" unicode="&#x394;" horiz-adv-x="1520" 
d="M657 1528h205l611 -1528h-1424zM1192 172l-438 1108l-439 -1108h877z" />
    <glyph glyph-name="Epsilon" unicode="&#x395;" horiz-adv-x="1335" 
d="M172 1518h1038v-199h-831v-436h811v-197h-811v-496h840v-190h-1047v1518z" />
    <glyph glyph-name="Zeta" unicode="&#x396;" horiz-adv-x="1376" 
d="M86 164l918 1155h-883v199h1143v-181l-914 -1147h936v-190h-1200v164z" />
    <glyph glyph-name="Eta" unicode="&#x397;" horiz-adv-x="1612" 
d="M172 1518h207v-627h854v627h207v-1518h-207v686h-854v-686h-207v1518z" />
    <glyph glyph-name="Theta" unicode="&#x398;" horiz-adv-x="1718" 
d="M289 161q-205 194 -205 599q0 403 205 597q195 185 569 185q375 0 570 -185q204 -193 204 -597q0 -406 -204 -599q-196 -186 -570 -186q-373 0 -569 186zM1425 756q0 289 -138 438t-429 149t-428 -149t-137 -438q0 -290 137 -439t428 -149t429 149.5t138 438.5zM561 850
h584v-182h-584v182z" />
    <glyph glyph-name="Iota" unicode="&#x399;" horiz-adv-x="582" 
d="M188 1518h205v-1518h-205v1518z" />
    <glyph glyph-name="Kappa" unicode="&#x39a;" horiz-adv-x="1473" 
d="M655 768l-280 -313v-455h-203v1518h203v-797l715 797h237l-536 -598l610 -920h-236z" />
    <glyph glyph-name="Lambda" unicode="&#x39b;" horiz-adv-x="1513" 
d="M47 1518h217l496 -1268l491 1268h217l-606 -1528h-211z" />
    <glyph glyph-name="Mu" unicode="&#x39c;" horiz-adv-x="1907" 
d="M172 1518h270l512 -1227l514 1227h267v-1518h-203v1171l-496 -1171h-172l-493 1169v-1169h-199v1518z" />
    <glyph glyph-name="Nu" unicode="&#x39d;" horiz-adv-x="1620" 
d="M172 1518h225l850 -1170v1170h201v-1518h-191l-884 1214v-1214h-201v1518z" />
    <glyph glyph-name="Xi" unicode="&#x39e;" horiz-adv-x="1366" 
d="M127 1518h1112v-199h-1112v199zM258 885h852v-197h-852v197zM106 193h1151v-193h-1151v193z" />
    <glyph glyph-name="Omicron" unicode="&#x39f;" horiz-adv-x="1718" 
d="M289 161q-205 194 -205 599q0 403 205 597q195 185 569 185q375 0 570 -185q204 -193 204 -597q0 -406 -204 -599q-196 -186 -570 -186q-373 0 -569 186zM1425 756q0 289 -138 438t-429 149t-428 -149t-137 -438q0 -290 137 -439t428 -149t429 149.5t138 438.5z" />
    <glyph glyph-name="Pi" unicode="&#x3a0;" horiz-adv-x="1491" 
d="M172 1518h1147v-1518h-207v1333h-733v-1333h-207v1518z" />
    <glyph glyph-name="Rho" unicode="&#x3a1;" horiz-adv-x="1475" 
d="M172 1518h682q190 0 308.5 -52t173.5 -155.5t55 -261.5q0 -244 -124 -368q-132 -132 -419 -132h-473v-549h-203v1518zM854 741q167 0 248.5 68.5t81.5 228.5q0 84 -20.5 139.5t-62.5 88.5q-41 31 -102.5 45t-148.5 14h-475v-584h479z" />
    <glyph glyph-name="Sigma" unicode="&#x3a3;" horiz-adv-x="1343" 
d="M86 156l539 608l-516 582v172h1108v-199h-826l488 -555l-508 -574h880v-190h-1165v156z" />
    <glyph glyph-name="Tau" unicode="&#x3a4;" horiz-adv-x="1419" 
d="M606 1319h-557v199h1323v-199h-557v-1319h-209v1319z" />
    <glyph glyph-name="Upsilon" unicode="&#x3a5;" horiz-adv-x="1466" 
d="M20 1518h226l489 -756l494 756h215l-608 -939v-579h-205v574z" />
    <glyph glyph-name="Phi" unicode="&#x3a6;" horiz-adv-x="1851" 
d="M821 1518h207v-106q332 -20 518 -161q221 -168 221 -491q0 -163 -56.5 -287t-164.5 -207q-183 -139 -518 -159v-107h-207v107q-326 16 -514 159q-109 83 -166 207t-57 287q0 162 57 285t166 206q185 141 514 161v106zM329 946q-36 -85 -36 -190t37 -190.5t111 -145.5
q132 -108 380 -128v929q-104 -8 -185 -30q-232 -65 -307 -245zM1412 1095q-137 110 -384 126v-929q248 19 384 128q147 117 147 336t-147 339z" />
    <glyph glyph-name="Chi" unicode="&#x3a7;" horiz-adv-x="1491" 
d="M125 1518h229l398 -568l387 568h229l-507 -723l558 -795h-233l-447 640l-436 -640h-229l556 795z" />
    <glyph glyph-name="Psi" unicode="&#x3a8;" horiz-adv-x="1499" 
d="M645 1518h209v-786q91 7 157.5 27.5t103.5 62.5q36 40 45 93t9 142v461h197v-457q0 -133 -24.5 -224.5t-86.5 -153.5q-63 -62 -164.5 -92.5t-236.5 -37.5v-553h-209v553q-141 7 -242 37t-163 91t-85.5 151.5t-23.5 222.5v463h199v-467q0 -85 10 -138t46 -92
q70 -75 259 -89v786z" />
    <glyph glyph-name="uni03A9" unicode="&#x3a9;" horiz-adv-x="1757" 
d="M879 1542q196 0 342.5 -51t243 -142.5t143.5 -218t47 -276.5q0 -248 -118 -408.5t-331 -207.5v-56h457v-182h-610v338q209 45 301 171t92 316q0 246 -142.5 386.5t-424.5 140.5q-283 0 -426.5 -140.5t-143.5 -386.5q0 -190 92.5 -316t300.5 -171v-338h-610v182h457v56
q-211 47 -329 207.5t-118 408.5q0 150 47.5 276.5t143.5 218t242.5 142.5t343.5 51z" />
    <glyph glyph-name="Iotadieresis" unicode="&#x3aa;" horiz-adv-x="582" 
d="M188 1518h205v-1518h-205v1518zM-14 1858h182v-229h-182v229zM428 1858h180v-229h-180v229z" />
    <glyph glyph-name="Upsilondieresis" unicode="&#x3ab;" horiz-adv-x="1466" 
d="M20 1518h226l489 -756l494 756h215l-608 -939v-579h-205v574zM418 1858h182v-229h-182v229zM860 1858h180v-229h-180v229z" />
    <glyph glyph-name="alphatonos" unicode="&#x3ac;" horiz-adv-x="1384" 
d="M1186 303q0 -46 3 -69t14 -36t32.5 -17.5t62.5 -4.5v-174q-9 -4 -31 -4h-50q-95 0 -141 28t-66 101q-37 -52 -90.5 -83.5t-135 -46.5t-202.5 -15q-266 0 -386 166q-104 141 -104 427q0 283 104 425q58 80 154 121.5t238 41.5q175 0 273.5 -33t146.5 -104l39 127l139 -12
v-838zM903 256q42 48 62 127t20 192q0 115 -19 191t-61 123q-42 46 -110 67t-170 21q-97 0 -161 -26.5t-102 -80.5q-36 -50 -51.5 -123.5t-15.5 -171.5q0 -99 15.5 -174t51.5 -126q39 -56 103 -84.5t160 -28.5q99 0 167.5 23t110.5 71zM692 1587h188l-174 -332h-157z" />
    <glyph glyph-name="epsilontonos" unicode="&#x3ad;" horiz-adv-x="1020" 
d="M92 324q0 128 45 195t154 93q-88 27 -127 87.5t-39 170.5q0 156 95.5 225.5t287.5 69.5q266 0 436 -123l-102 -141q-128 80 -307 80q-79 0 -126.5 -13t-69.5 -42.5t-22 -79.5q0 -39 11 -66.5t37 -46.5q52 -39 194 -39h158v-178h-156q-88 0 -143 -11.5t-85 -35.5
q-28 -22 -38 -51.5t-10 -75.5q0 -70 24 -110t77.5 -57t145.5 -17q99 0 174 21t158 71l107 -139q-101 -75 -209 -105.5t-246 -30.5q-154 0 -247 37t-135 113t-42 199zM586 1587h188l-174 -332h-157z" />
    <glyph glyph-name="etatonos" unicode="&#x3ae;" horiz-adv-x="1294" 
d="M147 1128l158 11l17 -109q46 62 133 95q108 40 286 40q132 0 214 -32.5t126 -96.5q40 -59 55 -142.5t15 -199.5v-1032h-201v993q0 86 -7 137.5t-32 88.5q-29 43 -85.5 65.5t-147.5 22.5q-196 0 -270 -95q-33 -43 -46.5 -103t-13.5 -140v-631h-201v1128zM715 1587h188
l-174 -332h-157z" />
    <glyph glyph-name="iotatonos" unicode="&#x3af;" horiz-adv-x="516" 
d="M160 1139h196v-1139h-196v1139zM326 1587h188l-174 -332h-157z" />
    <glyph glyph-name="upsilondieresistonos" unicode="&#x3b0;" horiz-adv-x="1280" 
d="M228 110q-50 60 -68.5 150.5t-18.5 226.5v652h199v-656q0 -87 6.5 -137.5t32.5 -90.5q31 -46 93 -69.5t171 -23.5t172 23.5t93 69.5q25 39 30.5 89.5t5.5 144.5v650h195v-645q0 -140 -17.5 -231t-65.5 -152q-52 -67 -151.5 -99t-261.5 -32q-161 0 -261 32t-154 98z
M641 1585h174l-166 -332h-141zM277 1477h145v-224h-145v224zM854 1477h146v-224h-146v224z" />
    <glyph glyph-name="alpha" unicode="&#x3b1;" horiz-adv-x="1384" 
d="M1186 303q0 -46 3 -69t14 -36t32.5 -17.5t62.5 -4.5v-174q-9 -4 -31 -4h-50q-95 0 -141 28t-66 101q-37 -52 -90.5 -83.5t-135 -46.5t-202.5 -15q-266 0 -386 166q-104 141 -104 427q0 283 104 425q58 80 154 121.5t238 41.5q175 0 273.5 -33t146.5 -104l39 127l139 -12
v-838zM903 256q42 48 62 127t20 192q0 115 -19 191t-61 123q-42 46 -110 67t-170 21q-97 0 -161 -26.5t-102 -80.5q-36 -50 -51.5 -123.5t-15.5 -171.5q0 -99 15.5 -174t51.5 -126q39 -56 103 -84.5t160 -28.5q99 0 167.5 23t110.5 71z" />
    <glyph glyph-name="beta" unicode="&#x3b2;" horiz-adv-x="1352" 
d="M147 1098q0 225 110 351q130 150 417 150q252 0 369.5 -99t117.5 -302q0 -152 -52 -237.5t-157 -122.5q167 -32 247.5 -124t80.5 -272q0 -115 -24 -195t-85 -133q-65 -58 -183 -86t-302 -28h-129v180h125q127 0 205 20t123 58q40 34 54.5 82t14.5 115q0 72 -21.5 123
t-68.5 82q-49 32 -131.5 47.5t-210.5 15.5v166q165 0 239 62t74 198q0 86 -28 140t-91.5 81t-168.5 27q-169 0 -246.5 -78.5t-77.5 -228.5v-1428h-201v1436z" />
    <glyph glyph-name="gamma" unicode="&#x3b3;" horiz-adv-x="1151" 
d="M14 1139h213l351 -906l350 906h207l-460 -1149v-330h-201v330z" />
    <glyph glyph-name="delta" unicode="&#x3b4;" horiz-adv-x="1309" 
d="M222 126q-130 140 -130 411q0 270 130 409q141 150 431 150h19l-426 352v141h817v-170h-531l503 -425q27 -20 50 -44q132 -138 132 -413q0 -270 -131 -411q-138 -149 -433 -149q-293 0 -431 149zM935 260q81 92 81 270q0 187 -81 282q-88 103 -282 103q-192 0 -280 -103
q-80 -94 -80 -282q0 -179 80 -270q89 -102 280 -102q193 0 282 102z" />
    <glyph glyph-name="epsilon" unicode="&#x3b5;" horiz-adv-x="1020" 
d="M92 324q0 128 45 195t154 93q-88 27 -127 87.5t-39 170.5q0 156 95.5 225.5t287.5 69.5q266 0 436 -123l-102 -141q-128 80 -307 80q-79 0 -126.5 -13t-69.5 -42.5t-22 -79.5q0 -39 11 -66.5t37 -46.5q52 -39 194 -39h158v-178h-156q-88 0 -143 -11.5t-85 -35.5
q-28 -22 -38 -51.5t-10 -75.5q0 -70 24 -110t77.5 -57t145.5 -17q99 0 174 21t158 71l107 -139q-101 -75 -209 -105.5t-246 -30.5q-154 0 -247 37t-135 113t-42 199z" />
    <glyph glyph-name="zeta" unicode="&#x3b6;" horiz-adv-x="1049" 
d="M387 -248l53 103q97 -50 187 -50q86 0 118.5 27t32.5 74q0 44 -35 67q-35 20 -147 31q-271 15 -396 152q-108 116 -108 329q0 118 33.5 223.5t105.5 214.5q71 108 188 228.5t292 267.5h-617v170h877v-145q-210 -174 -344 -308.5t-209 -245.5q-70 -103 -97.5 -194.5
t-27.5 -189.5q0 -142 71 -226q80 -94 257 -112q114 -12 179.5 -40.5t93.5 -76t28 -119.5q0 -120 -65.5 -180.5t-223.5 -60.5q-139 0 -246 61z" />
    <glyph glyph-name="eta" unicode="&#x3b7;" horiz-adv-x="1294" 
d="M147 1128l158 11l17 -109q46 62 133 95q108 40 286 40q132 0 214 -32.5t126 -96.5q40 -59 55 -142.5t15 -199.5v-1032h-201v993q0 86 -7 137.5t-32 88.5q-29 43 -85.5 65.5t-147.5 22.5q-196 0 -270 -95q-33 -43 -46.5 -103t-13.5 -140v-631h-201v1128z" />
    <glyph glyph-name="theta" unicode="&#x3b8;" horiz-adv-x="1518" 
d="M278 207q-66 103 -95 249.5t-29 334.5q0 187 29 332.5t95 248.5q71 111 189 169t293 58q173 0 290 -58t188 -169q66 -103 95 -248.5t29 -332.5q0 -188 -29 -334.5t-95 -249.5q-71 -112 -188 -171t-290 -59q-175 0 -293.5 59t-188.5 171zM1159 879q-5 108 -19.5 194.5
t-52.5 161.5q-92 180 -327 180q-238 0 -330 -180q-38 -75 -53 -162t-20 -194h802zM358 692q5 -104 19.5 -189.5t52.5 -162.5q92 -186 330 -186q235 0 327 186q38 77 52.5 162.5t19.5 189.5h-801z" />
    <glyph glyph-name="iota" unicode="&#x3b9;" horiz-adv-x="516" 
d="M158 1518h200v-242h-200v242zM160 1139h196v-1139h-196v1139z" />
    <glyph glyph-name="kappa" unicode="&#x3ba;" horiz-adv-x="1143" 
d="M147 1139h197v-585l504 585h221l-404 -473l445 -666h-221l-356 521l-189 -215v-306h-197v1139z" />
    <glyph glyph-name="lambda" unicode="&#x3bb;" horiz-adv-x="1145" 
d="M498 1533q84 -59 133 -190l495 -1343h-213l-334 941l-360 -941h-201l465 1174l-55 149q-15 41 -35.5 65t-54.5 35t-90 11h-86v153q32 4 102 4q151 0 234 -58z" />
    <glyph glyph-name="uni03BC" unicode="&#x3bc;" horiz-adv-x="1298" 
d="M386 -4q-43 19 -50 21v-355h-189v1477h201v-652q0 -81 9 -137t35 -96q29 -45 84 -68.5t144 -23.5q190 0 268 99q33 42 45.5 102.5t12.5 144.5v631h201v-1131l-154 -14l-22 125q-46 -65 -148 -103.5t-262 -38.5q-133 0 -175 19z" />
    <glyph glyph-name="nu" unicode="&#x3bd;" horiz-adv-x="1151" 
d="M14 1139h213l351 -912l350 912h207l-453 -1149h-215z" />
    <glyph glyph-name="xi" unicode="&#x3be;" horiz-adv-x="1049" 
d="M387 -248l53 103q97 -50 187 -50q86 0 118.5 27t32.5 74q0 44 -36 67q-37 21 -146 31q-269 11 -393 132q-58 55 -84.5 133.5t-26.5 181.5q0 177 89.5 277t264.5 130q-120 25 -180.5 96t-60.5 195q0 95 44.5 168.5t119.5 101.5h-275v170h877v-170h-273q-150 0 -225.5 -59
t-75.5 -186q0 -60 15.5 -103.5t52.5 -74.5q40 -34 108 -52t172 -22v-144q-61 0 -88 -4q-203 -7 -293 -86q-40 -35 -57.5 -85.5t-17.5 -117.5q0 -151 78.5 -226t253.5 -91q166 -16 237 -73q64 -52 64 -163q0 -120 -65.5 -180.5t-223.5 -60.5q-139 0 -246 61z" />
    <glyph glyph-name="omicron" unicode="&#x3bf;" horiz-adv-x="1309" 
d="M222 128q-130 144 -130 443q0 300 130 444q68 75 174.5 112.5t256.5 37.5q151 0 258 -37.5t175 -112.5q131 -146 131 -444q0 -297 -131 -443q-68 -76 -175 -113.5t-258 -37.5q-150 0 -256.5 37.5t-174.5 113.5zM934 263q80 97 80 304q0 205 -83.5 306.5t-277.5 101.5
t-277 -101.5t-83 -306.5q0 -207 80 -304q87 -105 280 -105q100 0 169 26t112 79z" />
    <glyph glyph-name="pi" unicode="&#x3c0;" horiz-adv-x="1303" 
d="M147 1139h1006v-1139h-201v963h-604v-963h-201v1139z" />
    <glyph glyph-name="rho" unicode="&#x3c1;" horiz-adv-x="1343" 
d="M1148 1000q57 -74 80 -180.5t23 -248.5q0 -137 -24 -243.5t-78 -180.5q-59 -81 -155.5 -123t-237.5 -42q-175 0 -269.5 33t-138.5 104v-457h-201v909q0 300 130 444q68 75 174.5 112.5t257.5 37.5q162 0 269 -42.5t170 -122.5zM981 270q69 99 69 295q0 202 -67 300
q-38 54 -102 82t-160 28q-101 0 -172 -22t-115 -69t-65 -125.5t-21 -193.5q0 -114 19.5 -190.5t63.5 -123.5q43 -47 114 -68t176 -21q184 0 260 108z" />
    <glyph glyph-name="uni03C2" unicode="&#x3c2;" horiz-adv-x="1165" 
d="M434 -248l55 103q43 -24 91.5 -37t95.5 -13q86 0 118.5 27t32.5 74q0 53 -38 70q-38 16 -142 16q-162 0 -270 38.5t-171 114.5q-61 71 -87.5 176.5t-26.5 247.5q0 145 27 252.5t88 182.5q65 79 174.5 120t273.5 41q270 0 424 -170l-145 -135q-49 49 -115 81t-164 32
q-101 0 -171 -25.5t-112 -76.5q-41 -51 -60 -126t-19 -178q0 -106 17 -180t58 -123q42 -52 113 -78t178 -28q80 -7 134 -18t92 -32q43 -25 64.5 -67.5t21.5 -108.5q0 -119 -66 -180t-223 -61q-74 0 -133.5 15.5t-114.5 45.5z" />
    <glyph glyph-name="sigma" unicode="&#x3c3;" horiz-adv-x="1343" 
d="M222 128q-130 144 -130 443q0 300 130 444q68 75 174.5 112.5t256.5 37.5t258 -38q11 -3 20 -7h390v-176h-184q29 -54 48 -116q32 -113 32 -257q0 -297 -131 -443q-68 -76 -175 -113.5t-258 -37.5q-150 0 -256.5 37.5t-174.5 113.5zM934 263q82 99 82 304t-84 306.5
t-279 101.5q-194 0 -277 -101.5t-83 -306.5q0 -207 80 -304q87 -105 280 -105q100 0 169 26t112 79zM1315 149zM1309 129z" />
    <glyph glyph-name="tau" unicode="&#x3c4;" horiz-adv-x="1092" 
d="M20 1139h1051v-178h-425v-961h-201v961h-425v178z" />
    <glyph glyph-name="upsilon" unicode="&#x3c5;" horiz-adv-x="1280" 
d="M228 110q-50 60 -68.5 150.5t-18.5 226.5v652h199v-656q0 -87 6.5 -137.5t32.5 -90.5q31 -46 93 -69.5t171 -23.5t172 23.5t93 69.5q25 39 30.5 89.5t5.5 144.5v650h195v-645q0 -140 -17.5 -231t-65.5 -152q-52 -67 -151.5 -99t-261.5 -32q-161 0 -261 32t-154 98z" />
    <glyph glyph-name="phi" unicode="&#x3c6;" horiz-adv-x="1516" 
d="M309 1067l80 -172q-48 -46 -72 -126.5t-24 -201.5q0 -105 20 -181t65 -126q85 -94 275 -101v1004h205v-1q146 -3 253.5 -38.5t176.5 -108.5t101 -184t32 -262q0 -150 -32 -259.5t-101 -182.5q-135 -143 -434 -149v-316h-201v316q-292 8 -426 149q-69 73 -102 183t-33 259
q0 196 53 316.5t164 181.5zM1135 872q-85 94 -281 100v-814q197 8 281 102q45 50 65 126t20 181q0 104 -20 179.5t-65 125.5z" />
    <glyph glyph-name="chi" unicode="&#x3c7;" horiz-adv-x="1139" 
d="M70 1139h221l286 -400l279 400h215l-390 -546l425 -593h-223l-322 450l-311 -450h-217l425 595z" />
    <glyph glyph-name="psi" unicode="&#x3c8;" horiz-adv-x="1525" 
d="M662 1137h201v-975q109 3 176 25.5t100 67.5q29 39 36 90t7 140v652h201v-648q0 -138 -18.5 -228.5t-71.5 -150.5q-57 -65 -162.5 -97.5t-267.5 -35.5v-315h-201v315q-162 3 -265.5 35t-161.5 96q-54 60 -73.5 149.5t-19.5 223.5v656h201v-658q0 -87 7 -137t36 -88
q33 -43 100.5 -66t175.5 -26v975z" />
    <glyph glyph-name="omega" unicode="&#x3c9;" horiz-adv-x="1815" 
d="M1008 500q0 -196 69 -276q31 -36 74.5 -51t101.5 -15q89 0 144 33.5t80.5 106t25.5 191.5q0 63 -7.5 121.5t-26.5 121.5q-45 145 -150 323l162 98q122 -198 174 -372q24 -82 34.5 -158t10.5 -158q0 -250 -115 -373q-54 -58 -132.5 -86.5t-176.5 -28.5q-159 0 -246 69.5
t-123 219.5q-36 -151 -122 -220t-244 -69q-202 0 -311 115q-115 121 -115 373q0 83 10.5 159t34.5 157q50 173 174 372l162 -98q-105 -175 -149 -323q-20 -64 -28 -122.5t-8 -120.5q0 -119 26 -191.5t80.5 -106t143.5 -33.5q59 0 103 15t75 52q34 41 52 107t18 168v542h199
v-542z" />
    <glyph glyph-name="iotadieresis" unicode="&#x3ca;" horiz-adv-x="516" 
d="M160 1139h196v-1139h-196v1139zM-51 1491h182v-229h-182v229zM391 1491h180v-229h-180v229z" />
    <glyph glyph-name="upsilondieresis" unicode="&#x3cb;" horiz-adv-x="1280" 
d="M228 110q-50 60 -68.5 150.5t-18.5 226.5v652h199v-656q0 -87 6.5 -137.5t32.5 -90.5q31 -46 93 -69.5t171 -23.5t172 23.5t93 69.5q25 39 30.5 89.5t5.5 144.5v650h195v-645q0 -140 -17.5 -231t-65.5 -152q-52 -67 -151.5 -99t-261.5 -32q-161 0 -261 32t-154 98z
M326 1491h182v-229h-182v229zM768 1491h180v-229h-180v229z" />
    <glyph glyph-name="omicrontonos" unicode="&#x3cc;" horiz-adv-x="1309" 
d="M222 128q-130 144 -130 443q0 300 130 444q68 75 174.5 112.5t256.5 37.5q151 0 258 -37.5t175 -112.5q131 -146 131 -444q0 -297 -131 -443q-68 -76 -175 -113.5t-258 -37.5q-150 0 -256.5 37.5t-174.5 113.5zM934 263q80 97 80 304q0 205 -83.5 306.5t-277.5 101.5
t-277 -101.5t-83 -306.5q0 -207 80 -304q87 -105 280 -105q100 0 169 26t112 79zM700 1587h188l-174 -332h-157z" />
    <glyph glyph-name="upsilontonos" unicode="&#x3cd;" horiz-adv-x="1280" 
d="M228 110q-50 60 -68.5 150.5t-18.5 226.5v652h199v-656q0 -87 6.5 -137.5t32.5 -90.5q31 -46 93 -69.5t171 -23.5t172 23.5t93 69.5q25 39 30.5 89.5t5.5 144.5v650h195v-645q0 -140 -17.5 -231t-65.5 -152q-52 -67 -151.5 -99t-261.5 -32q-161 0 -261 32t-154 98z
M694 1587h188l-174 -332h-157z" />
    <glyph glyph-name="omegatonos" unicode="&#x3ce;" horiz-adv-x="1815" 
d="M1008 500q0 -196 69 -276q31 -36 74.5 -51t101.5 -15q89 0 144 33.5t80.5 106t25.5 191.5q0 63 -7.5 121.5t-26.5 121.5q-45 145 -150 323l162 98q122 -198 174 -372q24 -82 34.5 -158t10.5 -158q0 -250 -115 -373q-54 -58 -132.5 -86.5t-176.5 -28.5q-159 0 -246 69.5
t-123 219.5q-36 -151 -122 -220t-244 -69q-202 0 -311 115q-115 121 -115 373q0 83 10.5 159t34.5 157q50 173 174 372l162 -98q-105 -175 -149 -323q-20 -64 -28 -122.5t-8 -120.5q0 -119 26 -191.5t80.5 -106t143.5 -33.5q59 0 103 15t75 52q34 41 52 107t18 168v542h199
v-542zM977 1587h188l-174 -332h-157z" />
    <glyph glyph-name="uni0400" unicode="&#x400;" horiz-adv-x="1335" 
d="M172 1518h1038v-199h-831v-436h811v-197h-811v-496h840v-190h-1047v1518zM289 1939h244l303 -336h-184z" />
    <glyph glyph-name="uni0401" unicode="&#x401;" horiz-adv-x="1335" 
d="M172 1518h1038v-199h-831v-436h811v-197h-811v-496h840v-190h-1047v1518zM403 1839h182v-229h-182v229zM845 1839h180v-229h-180v229z" />
    <glyph glyph-name="uni0402" unicode="&#x402;" horiz-adv-x="1784" 
d="M1255 -180h17q46 0 73 8.5t42 27.5q13 18 17.5 48t4.5 84v608q0 83 -7 135t-30 90q-26 43 -82 64.5t-149 21.5q-103 0 -167.5 -23.5t-100.5 -68.5q-33 -41 -46.5 -98.5t-13.5 -134.5v-582h-207v1319h-557v199h1323v-199h-559v-342q34 59 120 91q101 38 271 38
q131 0 213 -33t128 -97q41 -59 57 -142.5t16 -200.5v-643q0 -98 -16 -162t-52 -101t-98.5 -54t-159.5 -17h-37v164z" />
    <glyph glyph-name="uni0403" unicode="&#x403;" horiz-adv-x="1221" 
d="M172 1518h999v-199h-792v-1319h-207v1518zM737 1939h244l-363 -336h-184z" />
    <glyph glyph-name="uni0404" unicode="&#x404;" horiz-adv-x="1497" 
d="M84 760q0 394 203 592q97 95 237 142.5t316 47.5q174 0 315 -50t244 -149l-142 -149q-77 72 -182 110.5t-225 38.5q-263 0 -397.5 -124.5t-159.5 -346.5h889v-192h-893q18 -243 151 -375.5t400 -132.5q156 0 266 47q88 36 168 111l135 -144q-94 -94 -214 -145
q-151 -64 -355 -64q-381 0 -568.5 198t-187.5 585z" />
    <glyph glyph-name="uni0405" unicode="&#x405;" horiz-adv-x="1460" 
d="M74 160l104 159q128 -83 262.5 -120t280.5 -37q227 0 329 63q50 31 73.5 81t23.5 120q0 68 -29 112.5t-87 73.5q-51 25 -123 41t-189 35q-147 24 -246 50.5t-168 69.5q-76 47 -113.5 121.5t-37.5 190.5q0 152 62 245t186.5 135t320.5 42q337 0 553 -139l-113 -170
q-80 54 -196.5 86.5t-243.5 32.5q-132 0 -212 -24t-116.5 -73.5t-36.5 -130.5q0 -63 27 -103.5t81 -67.5q47 -25 116.5 -41.5t187.5 -37.5q158 -27 253.5 -51.5t165.5 -65.5q80 -48 121.5 -125t41.5 -196q0 -154 -65 -255t-203 -151t-357 -50q-192 0 -354 43t-299 137z" />
    <glyph glyph-name="uni0406" unicode="&#x406;" horiz-adv-x="582" 
d="M188 1518h205v-1518h-205v1518z" />
    <glyph glyph-name="uni0407" unicode="&#x407;" horiz-adv-x="582" 
d="M188 1518h205v-1518h-205v1518zM-14 1839h182v-229h-182v229zM428 1839h180v-229h-180v229z" />
    <glyph glyph-name="uni0408" unicode="&#x408;" horiz-adv-x="848" 
d="M133 -2q-24 0 -35 1q-12 1 -41 1v190h150q101 0 160.5 27t86.5 83.5t27 150.5v1067h205v-1076q0 -124 -29 -209.5t-88 -137.5q-57 -51 -141.5 -74t-198.5 -23h-96z" />
    <glyph glyph-name="uni0409" unicode="&#x409;" horiz-adv-x="2619" 
d="M90 190h45q41 0 65.5 7.5t38.5 24.5q13 15 17 40t4 68v1188h1258v-570h477q192 0 310.5 -50t174 -151.5t55.5 -259.5q0 -242 -129 -364.5t-415 -122.5h-680v1323h-844v-1028q0 -110 -26 -174.5t-83.5 -93.5t-154.5 -29h-30q-7 0 -64 3l-19 1v188zM1999 184q168 0 249 67
t81 226q0 82 -20.5 137.5t-62.5 88.5q-41 31 -103.5 45t-149.5 14h-475v-578h481z" />
    <glyph glyph-name="uni040A" unicode="&#x40a;" horiz-adv-x="2535" 
d="M172 1518h207v-627h850v627h207v-570h477q191 0 309.5 -50t173.5 -151.5t55 -259.5q0 -243 -124 -361q-66 -63 -170 -94.5t-250 -31.5h-678v686h-850v-686h-207v1518zM1915 184q168 0 249 67t81 226q0 82 -20.5 137.5t-62.5 88.5q-41 31 -102.5 45t-150.5 14h-473v-578
h479z" />
    <glyph glyph-name="uni040B" unicode="&#x40b;" horiz-adv-x="1784" 
d="M606 1319h-557v199h1323v-199h-559v-342q34 59 120 91q101 38 271 38q131 0 213 -33t128 -97q41 -59 57 -142.5t16 -200.5v-633h-207v596q0 83 -7 135t-30 90q-26 43 -82 64.5t-151 21.5q-103 0 -167.5 -23.5t-100.5 -68.5q-33 -41 -46.5 -98.5t-13.5 -134.5v-582h-207
v1319z" />
    <glyph glyph-name="uni040C" unicode="&#x40c;" horiz-adv-x="1481" 
d="M174 1518h207v-603h227l490 603h237l-561 -685l635 -833h-242l-549 721h-237v-721h-207v1518zM864 1941h244l-363 -336h-184z" />
    <glyph glyph-name="uni040D" unicode="&#x40d;" horiz-adv-x="1620" 
d="M172 1518h202v-1164l844 1164h230v-1518h-202v1210l-881 -1210h-193v1518zM368 1939h244l303 -336h-184z" />
    <glyph glyph-name="uni040E" unicode="&#x40e;" horiz-adv-x="1434" 
d="M45 1518h221l485 -941l449 941h209l-627 -1270q-34 -72 -64.5 -117.5t-67.5 -73.5q-39 -31 -89 -45t-123 -14h-74q-26 0 -37 1q-12 1 -26 1v184h105q41 0 69 4.5t48 16.5q19 11 32.5 30.5t32.5 59.5l44 93zM424 1677q-42 42 -67 100.5t-41 135.5l147 30q13 -52 28 -86
t42 -58q30 -27 73 -40.5t107 -13.5q123 0 180 54q49 48 70 144l150 -28q-20 -82 -44.5 -139t-66.5 -99q-47 -47 -117.5 -71.5t-171.5 -24.5q-193 0 -289 96z" />
    <glyph glyph-name="uni040F" unicode="&#x40f;" horiz-adv-x="1604" 
d="M698 0h-526v1518h207v-1332h846v1332h207v-1518h-527v-340h-207v340z" />
    <glyph glyph-name="uni0410" unicode="&#x410;" horiz-adv-x="1518" 
d="M653 1528h211l609 -1528h-213l-125 319h-758l-125 -319h-207zM1061 510l-307 770l-308 -770h615z" />
    <glyph glyph-name="uni0411" unicode="&#x411;" horiz-adv-x="1483" 
d="M172 1518h1032v-199h-825v-401h475q192 0 310 -46t172.5 -143.5t54.5 -255.5q0 -240 -124 -354q-65 -60 -168.5 -89.5t-250.5 -29.5h-676v1518zM854 182q84 0 145 14t101 45q84 64 84 222q0 81 -20.5 134.5t-62.5 83.5q-40 29 -101 40.5t-150 11.5h-471v-551h475z" />
    <glyph glyph-name="uni0412" unicode="&#x412;" horiz-adv-x="1468" 
d="M172 1518h670q178 0 289.5 -40.5t165 -123t53.5 -211.5q0 -139 -45 -227t-146 -119q126 -32 178 -122t52 -255q0 -117 -35.5 -197.5t-105.5 -130.5q-132 -92 -419 -92h-657v1518zM848 877q164 0 234 65q59 56 59 172q0 110 -68.5 162.5t-224.5 52.5h-473v-452h473z
M852 186q172 0 250 59t78 193q0 88 -34.5 142t-107.5 79t-190 25h-473v-498h477z" />
    <glyph glyph-name="uni0413" unicode="&#x413;" horiz-adv-x="1221" 
d="M172 1518h999v-199h-792v-1319h-207v1518z" />
    <glyph glyph-name="uni0414" unicode="&#x414;" horiz-adv-x="1794" 
d="M94 190h51q54 0 81 13t36.5 42t9.5 85v1188h1258v-1328h170v-530h-209v340h-1190v-340h-207v530zM1323 184v1139h-844v-1001q0 -53 -7.5 -85t-33.5 -53h885z" />
    <glyph glyph-name="uni0415" unicode="&#x415;" horiz-adv-x="1335" 
d="M172 1518h1038v-199h-831v-436h811v-197h-811v-496h840v-190h-1047v1518z" />
    <glyph glyph-name="uni0416" unicode="&#x416;" horiz-adv-x="2410" 
d="M313 0h-241l633 835l-560 683h238l489 -603h229v603h207v-603h228l492 603h237l-562 -684l636 -834h-242l-551 721h-238v-721h-207v721h-240z" />
    <glyph glyph-name="uni0417" unicode="&#x417;" horiz-adv-x="1384" 
d="M47 123l98 174q240 -129 535 -129q117 0 193.5 12t125.5 41q50 31 73.5 85t23.5 140q0 73 -19 122.5t-65 80.5q-49 33 -138.5 49.5t-228.5 16.5h-334v190h330q116 0 194 12t126 39q49 27 70.5 71.5t21.5 113.5q0 122 -91 166q-45 22 -115 31.5t-171 9.5q-113 0 -255 -28
q-64 -13 -123 -33.5t-105 -45.5l-107 168q99 60 280 100q154 33 324 33q280 0 420 -78q152 -84 152 -280q0 -79 -10.5 -135t-34.5 -97q-24 -40 -62.5 -67.5t-95.5 -48.5q73 -24 120 -55.5t74 -77.5q26 -47 38 -112t12 -157q0 -131 -43 -220t-126 -143q-148 -96 -448 -96
q-195 0 -351.5 35.5t-287.5 112.5z" />
    <glyph glyph-name="uni0418" unicode="&#x418;" horiz-adv-x="1620" 
d="M172 1518h202v-1164l844 1164h230v-1518h-202v1210l-881 -1210h-193v1518z" />
    <glyph glyph-name="uni0419" unicode="&#x419;" horiz-adv-x="1620" 
d="M172 1518h202v-1164l844 1164h230v-1518h-202v1210l-881 -1210h-193v1518zM516 1677q-42 42 -67 100.5t-41 135.5l147 30q13 -52 28 -86t42 -58q30 -27 73 -40.5t107 -13.5q123 0 180 54q49 48 70 144l150 -28q-20 -82 -44.5 -139t-66.5 -99q-47 -47 -117.5 -71.5
t-171.5 -24.5q-193 0 -289 96z" />
    <glyph glyph-name="uni041A" unicode="&#x41a;" horiz-adv-x="1481" 
d="M174 1518h207v-603h227l490 603h237l-561 -685l635 -833h-242l-549 721h-237v-721h-207v1518z" />
    <glyph glyph-name="uni041B" unicode="&#x41b;" horiz-adv-x="1702" 
d="M94 190h47q41 0 65.5 7.5t38.5 24.5q13 15 17 40t4 68v1188h1264v-1518h-207v1323h-850v-1028q0 -110 -26 -174.5t-83.5 -93.5t-154.5 -29h-30q-7 0 -64 3q-10 1 -21 1v188z" />
    <glyph glyph-name="uni041C" unicode="&#x41c;" horiz-adv-x="1907" 
d="M172 1518h270l512 -1227l514 1227h267v-1518h-203v1171l-496 -1171h-172l-493 1169v-1169h-199v1518z" />
    <glyph glyph-name="uni041D" unicode="&#x41d;" horiz-adv-x="1612" 
d="M172 1518h207v-627h854v627h207v-1518h-207v686h-854v-686h-207v1518z" />
    <glyph glyph-name="uni041E" unicode="&#x41e;" horiz-adv-x="1718" 
d="M289 161q-205 194 -205 599q0 403 205 597q195 185 569 185q375 0 570 -185q204 -193 204 -597q0 -406 -204 -599q-196 -186 -570 -186q-373 0 -569 186zM1425 756q0 289 -138 438t-429 149t-428 -149t-137 -438q0 -290 137 -439t428 -149t429 149.5t138 438.5z" />
    <glyph glyph-name="uni041F" unicode="&#x41f;" horiz-adv-x="1604" 
d="M172 1518h1260v-1518h-207v1323h-846v-1323h-207v1518z" />
    <glyph glyph-name="uni0420" unicode="&#x420;" horiz-adv-x="1475" 
d="M172 1518h682q190 0 308.5 -52t173.5 -155.5t55 -261.5q0 -244 -124 -368q-132 -132 -419 -132h-473v-549h-203v1518zM854 741q167 0 248.5 68.5t81.5 228.5q0 84 -20.5 139.5t-62.5 88.5q-41 31 -102.5 45t-148.5 14h-475v-584h479z" />
    <glyph glyph-name="uni0421" unicode="&#x421;" horiz-adv-x="1497" 
d="M84 760q0 396 201 592q194 190 567 190q173 0 308 -49.5t241 -149.5l-150 -149q-160 149 -401 149q-557 0 -557 -585q0 -294 135 -440t424 -146q151 0 255 47q45 19 81 45.5t76 63.5l147 -142q-95 -95 -210 -145q-148 -64 -359 -64q-390 0 -574 196.5t-184 586.5z" />
    <glyph glyph-name="uni0422" unicode="&#x422;" horiz-adv-x="1419" 
d="M606 1319h-557v199h1323v-199h-557v-1319h-209v1319z" />
    <glyph glyph-name="uni0423" unicode="&#x423;" horiz-adv-x="1434" 
d="M45 1518h221l485 -941l449 941h209l-627 -1270q-34 -72 -64.5 -117.5t-67.5 -73.5q-39 -31 -89 -45t-123 -14h-74q-26 0 -37 1q-12 1 -26 1v184h105q41 0 69 4.5t48 16.5q19 11 32.5 30.5t32.5 59.5l44 93z" />
    <glyph glyph-name="uni0424" unicode="&#x424;" horiz-adv-x="1851" 
d="M821 1518h207v-106q332 -20 518 -161q221 -168 221 -491q0 -163 -56.5 -287t-164.5 -207q-183 -139 -518 -159v-107h-207v107q-326 16 -514 159q-109 83 -166 207t-57 287q0 162 57 285t166 206q185 141 514 161v106zM329 946q-36 -85 -36 -190t37 -190.5t111 -145.5
q132 -108 380 -128v929q-104 -8 -185 -30q-232 -65 -307 -245zM1412 1095q-137 110 -384 126v-929q248 19 384 128q147 117 147 336t-147 339z" />
    <glyph glyph-name="uni0425" unicode="&#x425;" horiz-adv-x="1491" 
d="M125 1518h229l398 -568l387 568h229l-507 -723l558 -795h-233l-447 640l-436 -640h-229l556 795z" />
    <glyph glyph-name="uni0426" unicode="&#x426;" horiz-adv-x="1700" 
d="M1397 0h-1225v1518h207v-1332h846v1332h207v-1328h174v-530h-209v340z" />
    <glyph glyph-name="uni0427" unicode="&#x427;" horiz-adv-x="1526" 
d="M1147 623q-40 -71 -153 -114q-138 -54 -347 -54q-159 0 -261.5 34.5t-161.5 100.5q-54 59 -75.5 144t-21.5 202v582h207v-541q0 -83 14.5 -140.5t52.5 -95.5q43 -43 117.5 -64.5t192.5 -21.5q248 0 353 100q45 43 64 105t19 141v517h207v-1518h-207v623z" />
    <glyph glyph-name="uni0428" unicode="&#x428;" horiz-adv-x="2421" 
d="M172 1530h207v-1344h728v1344h207v-1344h728v1344h207v-1530h-2077v1530z" />
    <glyph glyph-name="uni0429" unicode="&#x429;" horiz-adv-x="2515" 
d="M2214 0h-2042v1530h207v-1344h728v1344h207v-1344h728v1344h207v-1340h172v-530h-207v340zM2421 358z" />
    <glyph glyph-name="uni042A" unicode="&#x42a;" horiz-adv-x="1554" 
d="M252 1319h-172v199h379v-570h475q191 0 309 -50t172.5 -151.5t54.5 -259.5q0 -242 -123 -361q-129 -126 -419 -126h-676v1319zM933 184q168 0 249 67t81 226q0 162 -83 226q-41 31 -102.5 45t-148.5 14h-470v-578h474z" />
    <glyph glyph-name="uni042B" unicode="&#x42b;" horiz-adv-x="1911" 
d="M172 1518h207v-570h475q191 0 309 -50t173 -151.5t55 -259.5q0 -241 -124 -361q-129 -126 -419 -126h-676v1518zM1534 1518h207v-1518h-207v1518zM854 184q168 0 249 67t81 226q0 82 -20.5 137.5t-62.5 88.5q-41 31 -102.5 45t-148.5 14h-471v-578h475z" />
    <glyph glyph-name="uni042C" unicode="&#x42c;" horiz-adv-x="1475" 
d="M172 1518h207v-570h475q191 0 309 -50t173 -151.5t55 -259.5q0 -241 -124 -361q-129 -126 -419 -126h-676v1518zM854 184q168 0 249 67t81 226q0 82 -20.5 137.5t-62.5 88.5q-41 31 -102.5 45t-148.5 14h-471v-578h475z" />
    <glyph glyph-name="uni042D" unicode="&#x42d;" horiz-adv-x="1497" 
d="M311 680v192h888q-25 222 -158 346.5t-394 124.5q-122 0 -226.5 -38.5t-182.5 -110.5l-142 149q208 199 559 199q176 0 316 -47.5t238 -142.5q202 -199 202 -592q0 -387 -188 -585t-568 -198q-204 0 -355 64q-120 51 -214 145l137 144q39 -37 79 -64t88 -47
q112 -47 265 -47q513 0 548 508h-892z" />
    <glyph glyph-name="uni042E" unicode="&#x42e;" horiz-adv-x="2271" 
d="M172 1518h207v-641h272q27 313 196 480q188 185 564 185q377 0 571 -185q204 -196 204 -597q0 -398 -207 -597q-197 -188 -568 -188q-375 0 -564 186q-180 177 -198 521h-270v-682h-207v1518zM1979 756q0 288 -138.5 437.5t-429.5 149.5t-428 -149t-137 -438
q0 -290 137 -439t428 -149t429.5 149.5t138.5 438.5z" />
    <glyph glyph-name="uni042F" unicode="&#x42f;" horiz-adv-x="1499" 
d="M1120 584h-421l-337 -584h-221l346 597q-30 6 -78 19q-203 66 -262 244q-30 89 -30 199q0 229 126.5 344t407.5 115h676v-1518h-207v584zM1120 772v557h-461q-83 0 -144.5 -13.5t-102.5 -44.5q-43 -33 -64.5 -86t-21.5 -134q0 -155 87 -220q79 -59 240 -59h467z" />
    <glyph glyph-name="uni0430" unicode="&#x430;" horiz-adv-x="1284" 
d="M161 79q-81 81 -81 245q0 123 38 203t124 127t228 67t361 20h61q-1 61 -9.5 102t-35.5 71q-31 33 -87.5 49t-151.5 16q-99 0 -186.5 -27.5t-149.5 -68.5l-104 155q80 51 182 84q132 43 277 43t235 -25.5t140 -80.5q47 -52 65 -136.5t18 -213.5v-406q0 -44 3.5 -68
t14.5 -37t32.5 -17.5t62.5 -4.5v-174q-9 -4 -31 -4h-51q-47 0 -78 7t-54 23q-42 28 -62 99q-54 -75 -155.5 -111t-279.5 -36q-227 0 -326 99zM294 451q-24 -45 -24 -113q0 -63 23 -103.5t78 -61.5t149 -21q133 0 215 36t120 112.5t38 201.5v69h-51q-170 0 -288 -11
q-111 -11 -174 -37.5t-86 -71.5z" />
    <glyph glyph-name="uni0431" unicode="&#x431;" horiz-adv-x="1309" 
d="M92 598v233q0 233 46.5 383.5t135.5 235.5q81 77 196 108t269 31h170v-186h-161q-111 0 -194.5 -22.5t-140.5 -71.5q-60 -53 -90 -135t-30 -203q48 79 148.5 118t269.5 39q282 0 403 -162q55 -73 79 -178t24 -241q0 -274 -128 -418q-137 -152 -434 -152q-194 0 -318 65
t-184.5 202t-60.5 354zM1014 551q0 133 -35 218.5t-114 129t-210 43.5q-193 0 -277.5 -96t-84.5 -295t84.5 -296t277.5 -97t276 97.5t83 295.5z" />
    <glyph glyph-name="uni0432" unicode="&#x432;" horiz-adv-x="1270" 
d="M147 1139h572q148 0 238 -26t134 -86t44 -163q0 -111 -31.5 -176t-116.5 -90q68 -16 106.5 -50.5t55 -90.5t16.5 -142q0 -96 -27.5 -157t-84.5 -96q-56 -33 -139.5 -47.5t-202.5 -14.5h-564v1139zM723 672q65 0 107 10t67 31q24 20 34.5 47t10.5 65q0 52 -21.5 81.5
t-68.5 42t-129 12.5h-387v-289h387zM727 174q88 0 140.5 14t78 50t25.5 102q0 60 -25.5 95t-79 50t-143.5 15h-387v-326h391z" />
    <glyph glyph-name="uni0433" unicode="&#x433;" horiz-adv-x="1053" 
d="M147 1139h859v-181h-658v-958h-201v1139z" />
    <glyph glyph-name="uni0434" unicode="&#x434;" horiz-adv-x="1528" 
d="M90 176h45q41 0 66 7.5t38 23.5t17 40.5t4 69.5v822h1006v-963h172v-516h-189v340h-973v-340h-186v516zM1065 166v797h-604v-658q0 -52 -9 -85t-30 -54h643z" />
    <glyph glyph-name="uni0435" unicode="&#x435;" horiz-adv-x="1229" 
d="M197 151q-58 75 -81.5 180.5t-23.5 239.5q0 133 24.5 238.5t82.5 181.5q133 174 448 174q168 0 268 -53t150 -152q41 -82 52 -176.5t11 -212.5q0 -37 -2 -77h-841q4 -69 16.5 -123.5t47.5 -103.5q41 -58 114 -87.5t188 -29.5q127 0 207 28t156 84l106 -139
q-94 -75 -203 -110.5t-266 -35.5q-170 0 -280 44.5t-174 129.5zM938 670q-5 81 -15 134.5t-36 92.5q-61 92 -246 92q-112 0 -182.5 -29.5t-110.5 -87.5q-38 -56 -52 -135q-6 -31 -9 -67h651z" />
    <glyph glyph-name="uni0436" unicode="&#x436;" horiz-adv-x="1819" 
d="M1008 0h-197v516h-164l-381 -516h-233l460 616l-419 523h229l346 -437h162v437h197v-437h159l346 437h232l-420 -523l461 -616h-234l-382 516h-162v-516z" />
    <glyph glyph-name="uni0437" unicode="&#x437;" horiz-adv-x="1174" 
d="M43 90l88 158q178 -94 410 -94q101 0 159 6.5t95 26.5q39 20 55 55.5t16 97.5q0 56 -12 89.5t-47 53.5q-36 21 -105.5 30t-187.5 9h-252v178h248q101 0 162 6t96 21q36 15 51 45t15 80q0 44 -16 70t-52 41q-33 13 -86 17.5t-143 4.5q-106 0 -199 -20q-109 -24 -170 -58
l-98 156q85 47 229 77q122 25 266 25q123 0 211 -13.5t145 -43.5q59 -31 87 -83t28 -132t-14 -131t-46.5 -82.5t-90.5 -50.5q57 -15 93 -39.5t56 -60.5q19 -35 26 -84t7 -121q0 -103 -32.5 -171t-96.5 -108q-62 -38 -154 -54t-223 -16q-153 0 -285.5 28.5t-232.5 86.5z" />
    <glyph glyph-name="uni0438" unicode="&#x438;" horiz-adv-x="1309" 
d="M147 1139h195v-809l600 809h217v-1139h-194v856l-635 -856h-183v1139z" />
    <glyph glyph-name="uni0439" unicode="&#x439;" horiz-adv-x="1309" 
d="M147 1139h195v-809l600 809h217v-1139h-194v856l-635 -856h-183v1139zM362 1329q-42 42 -67 100.5t-41 135.5l147 30q13 -52 28 -86t42 -58q30 -27 73 -40.5t107 -13.5q123 0 180 54q49 48 70 144l150 -28q-20 -82 -44.5 -139t-66.5 -99q-47 -47 -117.5 -71.5
t-171.5 -24.5q-193 0 -289 96z" />
    <glyph glyph-name="uni043A" unicode="&#x43a;" horiz-adv-x="1155" 
d="M348 0h-201v1139h201v-439h158l346 439h229l-419 -522l460 -617h-233l-380 516h-161v-516z" />
    <glyph glyph-name="uni043B" unicode="&#x43b;" horiz-adv-x="1417" 
d="M90 176h45q54 0 81.5 13t37.5 42.5t10 85.5v822h1004v-1139h-201v963h-602v-668q0 -83 -13.5 -139t-43.5 -91t-81 -51t-124 -16h-30q-7 0 -64 3l-19 1v174z" />
    <glyph glyph-name="uni043C" unicode="&#x43c;" horiz-adv-x="1548" 
d="M147 1139h252l389 -877l388 877h247v-1139h-198v827l-363 -827h-164l-364 827v-827h-187v1139z" />
    <glyph glyph-name="uni043D" unicode="&#x43d;" horiz-adv-x="1305" 
d="M147 1139h201v-453h606v453h201v-1139h-201v498h-606v-498h-201v1139z" />
    <glyph glyph-name="uni043E" unicode="&#x43e;" horiz-adv-x="1309" 
d="M222 128q-130 144 -130 443q0 300 130 444q68 75 174.5 112.5t256.5 37.5q151 0 258 -37.5t175 -112.5q131 -146 131 -444q0 -297 -131 -443q-68 -76 -175 -113.5t-258 -37.5q-150 0 -256.5 37.5t-174.5 113.5zM934 263q80 97 80 304q0 205 -83.5 306.5t-277.5 101.5
t-277 -101.5t-83 -306.5q0 -207 80 -304q87 -105 280 -105q100 0 169 26t112 79z" />
    <glyph glyph-name="uni043F" unicode="&#x43f;" horiz-adv-x="1303" 
d="M147 1139h1006v-1139h-201v963h-604v-963h-201v1139z" />
    <glyph glyph-name="uni0440" unicode="&#x440;" horiz-adv-x="1343" 
d="M147 1128l158 11l17 -121q46 74 151 110.5t291 36.5q270 0 387 -165q100 -142 100 -429q0 -137 -24 -243.5t-78 -180.5q-59 -81 -155.5 -123t-237.5 -42q-175 0 -269.5 33t-138.5 104v-457h-201v1466zM981 270q68 97 68 295q0 99 -15.5 173.5t-50.5 126.5q-38 54 -102 82
t-160 28q-101 0 -172 -22t-115 -69t-65 -125.5t-21 -193.5q0 -114 19.5 -190.5t63.5 -123.5q43 -47 114 -68t176 -21q184 0 260 108z" />
    <glyph glyph-name="uni0441" unicode="&#x441;" horiz-adv-x="1165" 
d="M206 144q-61 74 -87.5 180.5t-26.5 246.5q0 139 27 247t88 183q65 80 174.5 122t273.5 42q275 0 424 -170l-145 -137q-52 52 -115.5 83.5t-163.5 31.5q-202 0 -286 -107q-40 -51 -58 -125.5t-18 -173.5q0 -101 17.5 -175.5t57.5 -124.5q88 -109 287 -109q90 0 155.5 27.5
t133.5 88.5l133 -127q-85 -82 -183 -123q-102 -44 -247 -44q-310 0 -441 164z" />
    <glyph glyph-name="uni0442" unicode="&#x442;" horiz-adv-x="1139" 
d="M469 958h-420v181h1041v-181h-420v-958h-201v958z" />
    <glyph glyph-name="uni0443" unicode="&#x443;" horiz-adv-x="1114" 
d="M14 1139h213l335 -889l331 889h209l-484 -1235q-48 -133 -126 -189q-80 -59 -230 -59h-51q-29 0 -53 2v162h88q57 0 90 9t52.5 31t33.5 64l34 89z" />
    <glyph glyph-name="uni0444" unicode="&#x444;" horiz-adv-x="2183" 
d="M995 121q-54 -75 -150 -108t-263 -33q-140 0 -235 42.5t-153 124.5q-54 75 -78 182t-24 246q0 282 104 426q58 80 154 122t238 42q175 0 270 -33t137 -104v561h191v-563q48 73 146.5 106t271.5 33q139 0 233 -42.5t152 -122.5q53 -75 76.5 -182.5t23.5 -246.5
q0 -137 -23.5 -243t-77.5 -181q-59 -81 -155.5 -123t-239.5 -42q-173 0 -267 33t-140 104v-457h-191v459zM910 256q44 48 64.5 127t20.5 192q0 115 -19.5 191t-63.5 123q-43 46 -113 67t-174 21q-97 0 -161 -26.5t-102 -80.5q-36 -50 -51.5 -123.5t-15.5 -171.5
q0 -99 15.5 -174t51.5 -126q39 -56 103 -84.5t160 -28.5q101 0 171 23t114 71zM1821 270q35 51 51 124t16 171q0 101 -15 175t-51 125q-39 55 -103 82.5t-160 27.5q-103 0 -173 -22t-114 -69t-65 -125.5t-21 -193.5q0 -114 19.5 -190.5t63.5 -123.5q43 -47 114 -68t176 -21
q96 0 160 27t102 81z" />
    <glyph glyph-name="uni0445" unicode="&#x445;" horiz-adv-x="1139" 
d="M70 1139h221l286 -400l279 400h215l-390 -546l425 -593h-223l-322 450l-311 -450h-217l425 595z" />
    <glyph glyph-name="uni0446" unicode="&#x446;" horiz-adv-x="1415" 
d="M1137 0h-990v1139h201v-967h604v967h201v-963h172v-516h-188v340z" />
    <glyph glyph-name="uni0447" unicode="&#x447;" horiz-adv-x="1288" 
d="M940 418q-39 -62 -137.5 -99.5t-267.5 -37.5q-133 0 -217 32.5t-130 97.5q-42 58 -58.5 142t-16.5 199v387h201v-348q0 -78 10 -133t37 -94q30 -43 87.5 -65t149.5 -22q193 0 274 95q36 42 51 103t15 140v324h201v-1139h-199v418z" />
    <glyph glyph-name="uni0448" unicode="&#x448;" horiz-adv-x="2056" 
d="M147 0v1139h201v-967h578v967h201v-967h578v967h201v-1139h-1759z" />
    <glyph glyph-name="uni0449" unicode="&#x449;" horiz-adv-x="2169" 
d="M1892 0h-1745v1139h201v-967h578v967h201v-967h578v967h201v-963h173v-516h-187v340z" />
    <glyph glyph-name="uni044A" unicode="&#x44a;" horiz-adv-x="1378" 
d="M260 958h-170v181h371v-330h405q414 0 414 -395q0 -196 -97 -300q-105 -114 -321 -114h-602v958zM834 166q124 0 183.5 57.5t59.5 182.5q0 126 -59 179.5t-189 53.5h-368v-473h373z" />
    <glyph glyph-name="uni044B" unicode="&#x44b;" horiz-adv-x="1634" 
d="M147 1139h201v-330h406q413 0 413 -395q0 -196 -97 -300q-105 -114 -320 -114h-603v1139zM1286 1139h201v-1139h-201v1139zM721 166q125 0 184.5 57.5t59.5 182.5q0 126 -59 179.5t-189 53.5h-369v-473h373z" />
    <glyph glyph-name="uni044C" unicode="&#x44c;" horiz-adv-x="1268" 
d="M147 1139h201v-328h406q413 0 413 -397q0 -196 -97 -300q-105 -114 -320 -114h-603v1139zM721 166q125 0 184.5 57.5t59.5 182.5q0 126 -59 179.5t-189 53.5h-369v-473h373z" />
    <glyph glyph-name="uni044D" unicode="&#x44d;" horiz-adv-x="1165" 
d="M250 492v178h622q-5 45 -13 80q-17 80 -59.5 131.5t-112.5 76.5q-69 25 -175 25q-166 0 -287 -125l-135 137q71 80 174.5 125t251.5 45q162 0 270.5 -41t174.5 -120q60 -75 86 -182t26 -251q0 -143 -26 -250t-86 -181q-65 -79 -172.5 -119.5t-268.5 -40.5q-144 0 -247 44
q-95 38 -187 123l125 125q66 -60 137 -87t164 -27q106 0 177 24.5t112 74.5q37 45 52.5 104t20.5 131h-624z" />
    <glyph glyph-name="uni044E" unicode="&#x44e;" horiz-adv-x="1731" 
d="M147 1139h201v-459h180q8 98 35 183.5t87 152.5q66 75 170.5 112t254.5 37q151 0 258 -37t175 -112q66 -73 97.5 -183.5t31.5 -261.5q0 -150 -31.5 -260.5t-97.5 -183.5q-68 -75 -175 -112.5t-258 -37.5q-149 0 -254 37.5t-171 112.5q-61 69 -89.5 163t-35.5 210h-177
v-500h-201v1139zM1436 567q0 140 -34.5 229t-113.5 134t-213 45q-132 0 -210.5 -45t-113 -134t-34.5 -229q0 -139 34.5 -228.5t113 -135t210.5 -45.5q133 0 212.5 45.5t114 135t34.5 228.5z" />
    <glyph glyph-name="uni044F" unicode="&#x44f;" horiz-adv-x="1296" 
d="M948 399h-381l-229 -399h-213l239 416q-91 23 -150 72q-105 90 -105 282q0 190 103.5 279.5t315.5 89.5h621v-1139h-201v399zM948 569v394h-411q-78 0 -127 -18t-74 -61.5t-25 -119.5q0 -75 24.5 -117.5t72.5 -60t124 -17.5h416z" />
    <glyph glyph-name="uni0450" unicode="&#x450;" horiz-adv-x="1229" 
d="M197 151q-58 75 -81.5 180.5t-23.5 239.5q0 133 24.5 238.5t82.5 181.5q133 174 448 174q168 0 268 -53t150 -152q41 -82 52 -176.5t11 -212.5q0 -37 -2 -77h-841q4 -69 16.5 -123.5t47.5 -103.5q41 -58 114 -87.5t188 -29.5q127 0 207 28t156 84l106 -139
q-94 -75 -203 -110.5t-266 -35.5q-170 0 -280 44.5t-174 129.5zM938 670q-5 81 -15 134.5t-36 92.5q-61 92 -246 92q-112 0 -182.5 -29.5t-110.5 -87.5q-38 -56 -52 -135q-6 -31 -9 -67h651zM229 1591h244l303 -336h-184z" />
    <glyph glyph-name="uni0451" unicode="&#x451;" horiz-adv-x="1229" 
d="M197 151q-58 75 -81.5 180.5t-23.5 239.5q0 133 24.5 238.5t82.5 181.5q133 174 448 174q168 0 268 -53t150 -152q41 -82 52 -176.5t11 -212.5q0 -37 -2 -77h-841q4 -69 16.5 -123.5t47.5 -103.5q41 -58 114 -87.5t188 -29.5q127 0 207 28t156 84l106 -139
q-94 -75 -203 -110.5t-266 -35.5q-170 0 -280 44.5t-174 129.5zM938 670q-5 81 -15 134.5t-36 92.5q-61 92 -246 92q-112 0 -182.5 -29.5t-110.5 -87.5q-38 -56 -52 -135q-6 -31 -9 -67h651zM299 1491h182v-229h-182v229zM741 1491h180v-229h-180v229z" />
    <glyph glyph-name="uni0452" unicode="&#x452;" horiz-adv-x="1307" 
d="M807 -180h16q82 0 112 33q28 31 28 118v666q0 80 -8.5 133.5t-33.5 91.5q-59 88 -231 88q-191 0 -268 -96q-34 -42 -47.5 -101.5t-13.5 -140.5v-612h-201v1249h-170v181h170v159h201v-159h280v-181h-280v-227q39 57 124 87q106 38 269 38q132 0 214.5 -33t126.5 -97
q40 -59 54.5 -142t14.5 -201v-727q0 -86 -15.5 -141.5t-52.5 -86.5q-40 -33 -100.5 -48t-151.5 -15h-37v164z" />
    <glyph glyph-name="uni0453" unicode="&#x453;" horiz-adv-x="1053" 
d="M147 1139h859v-181h-658v-958h-201v1139zM663 1591h244l-363 -336h-184z" />
    <glyph glyph-name="uni0454" unicode="&#x454;" horiz-adv-x="1165" 
d="M206 140q-61 74 -87.5 181.5t-26.5 249.5q0 143 27 250.5t88 182.5q65 79 174.5 120t273.5 41q275 0 424 -170l-137 -137q-53 55 -108 85q-77 40 -179 40q-104 0 -174.5 -25.5t-113.5 -76.5q-43 -52 -61 -131q-10 -49 -13 -80h625v-178h-627q5 -72 21 -130.5t54 -104.5
q42 -50 113 -74.5t176 -24.5q93 0 163.5 27t133.5 87l125 -125q-85 -82 -183 -123q-102 -44 -247 -44q-161 0 -269 40.5t-172 119.5z" />
    <glyph glyph-name="uni0455" unicode="&#x455;" horiz-adv-x="1098" 
d="M51 113l103 155q93 -59 197 -86.5t204 -27.5q102 0 160 14t86 50t28 104q0 40 -14 66t-47 45q-31 17 -80.5 29t-132.5 25q-123 23 -197 43.5t-127 53.5q-61 38 -91.5 99t-30.5 157q0 161 105 243t341 82q130 0 240.5 -26t193.5 -74l-94 -164q-70 37 -155 58.5t-181 21.5
q-143 0 -200 -36q-52 -34 -52 -105q0 -41 13.5 -66.5t44.5 -43.5q28 -18 75 -30.5t123 -25.5q126 -23 203 -43t132 -52q62 -37 93 -96.5t31 -152.5q0 -99 -27.5 -165.5t-85.5 -107.5q-57 -40 -147.5 -58.5t-218.5 -18.5q-136 0 -259.5 30t-232.5 103z" />
    <glyph glyph-name="uni0456" unicode="&#x456;" horiz-adv-x="516" 
d="M158 1518h200v-242h-200v242zM160 1139h196v-1139h-196v1139z" />
    <glyph glyph-name="uni0457" unicode="&#x457;" horiz-adv-x="516" 
d="M-18 1509h163v-231h-163v231zM373 1509h164v-231h-164v231zM160 1139h196v-1139h-196v1139z" />
    <glyph glyph-name="uni0458" unicode="&#x458;" horiz-adv-x="516" 
d="M158 1518h200v-242h-200v242zM4 -180h16q46 0 73.5 8.5t42.5 27.5q14 19 19 49.5t5 82.5v1151h196v-1149q0 -101 -13.5 -164t-47.5 -99q-35 -37 -96 -54t-158 -17h-37v164z" />
    <glyph glyph-name="uni0459" unicode="&#x459;" horiz-adv-x="2171" 
d="M90 176h45q54 0 81.5 13t37.5 42.5t10 85.5v822h991v-330h406q212 0 312 -101t100 -294q0 -195 -99 -300q-106 -114 -319 -114h-601v963h-589v-668q0 -83 -13.5 -139t-43.5 -91t-81 -51t-124 -16h-30q-7 0 -64 3l-19 1v174zM1628 166q123 0 182.5 57.5t59.5 182.5
q0 126 -59 179.5t-189 53.5h-367v-473h373z" />
    <glyph glyph-name="uni045A" unicode="&#x45a;" horiz-adv-x="2058" 
d="M147 1139h201v-453h602v453h201v-330h397q210 0 311 -102t101 -293q0 -196 -97 -300q-106 -114 -319 -114h-594v498h-602v-498h-201v1139zM1516 166q122 0 181.5 57.5t59.5 182.5q0 127 -58.5 180t-187.5 53h-360v-473h365z" />
    <glyph glyph-name="uni045B" unicode="&#x45b;" horiz-adv-x="1307" 
d="M-10 1430h170v159h201v-159h280v-181h-280v-227q39 57 124 87q106 38 269 38q133 0 215.5 -33t126.5 -97q40 -59 54.5 -142t14.5 -201v-674h-201v637q0 80 -8.5 133.5t-33.5 91.5q-29 43 -85 65.5t-147 22.5q-191 0 -268 -96q-34 -42 -47.5 -101.5t-13.5 -140.5v-612
h-201v1249h-170v181z" />
    <glyph glyph-name="uni045C" unicode="&#x45c;" horiz-adv-x="1155" 
d="M348 0h-201v1139h201v-439h158l346 439h229l-419 -522l460 -617h-233l-380 516h-161v-516zM760 1591h244l-363 -336h-184z" />
    <glyph glyph-name="uni045D" unicode="&#x45d;" horiz-adv-x="1309" 
d="M147 1139h195v-809l600 809h217v-1139h-194v856l-635 -856h-183v1139zM229 1591h244l303 -336h-184z" />
    <glyph glyph-name="uni045E" unicode="&#x45e;" horiz-adv-x="1114" 
d="M14 1139h213l335 -889l331 889h209l-484 -1235q-48 -133 -126 -189q-80 -59 -230 -59h-51q-29 0 -53 2v162h88q57 0 90 9t52.5 31t33.5 64l34 89zM274 1329q-42 42 -67 100.5t-41 135.5l147 30q13 -52 28 -86t42 -58q30 -27 73 -40.5t107 -13.5q123 0 180 54
q49 48 70 144l150 -28q-20 -82 -44.5 -139t-66.5 -99q-47 -47 -117.5 -71.5t-171.5 -24.5q-193 0 -289 96z" />
    <glyph glyph-name="uni045F" unicode="&#x45f;" horiz-adv-x="1303" 
d="M556 0h-409v1139h201v-967h604v967h201v-1139h-409v-340h-188v340z" />
    <glyph glyph-name="uni0462" unicode="&#x462;" horiz-adv-x="1475" 
d="M1391 487q0 -241 -124 -361q-129 -126 -419 -126h-676v1214h-178v156h178v148h207v-148h453v-156h-453v-266h475q191 0 309 -50t173 -151.5t55 -259.5zM1184 477q0 82 -20.5 137.5t-62.5 88.5q-41 31 -102.5 45t-148.5 14h-471v-578h475q168 0 249 67t81 226z" />
    <glyph glyph-name="uni0463" unicode="&#x463;" horiz-adv-x="1268" 
d="M1167 414q0 -196 -97 -300q-105 -114 -320 -114h-603v1214h-153v156h153v204h201v-204h434v-156h-434v-403h406q413 0 413 -397zM966 406q0 126 -59.5 179.5t-189.5 53.5h-369v-473h373q125 0 185 57.5t60 182.5z" />
    <glyph glyph-name="uni0472" unicode="&#x472;" horiz-adv-x="1718" 
d="M1632 760q0 -406 -204 -599q-196 -186 -570 -186q-373 0 -569 186q-205 194 -205 599q0 403 205 597q195 185 569 185q375 0 570 -185q204 -193 204 -597zM296 840q89 38 171 59.5t163 21.5q73 0 135 -19.5t141 -55.5q62 -28 103.5 -41.5t81.5 -13.5q70 0 145 26t180 76
q-30 222 -167 336t-391 114q-269 0 -406.5 -127.5t-155.5 -375.5zM1424 697q-91 -44 -173.5 -68t-171.5 -24q-73 0 -138 19.5t-149 55.5q-66 27 -103.5 39.5t-72.5 12.5q-62 0 -123.5 -18.5t-156.5 -56.5l-37 -15q24 -233 161 -353.5t398 -120.5q276 0 414 134t152 395z" />
    <glyph glyph-name="uni0473" unicode="&#x473;" horiz-adv-x="1309" 
d="M1217 571q0 -297 -131 -443q-68 -76 -175 -113.5t-258 -37.5q-150 0 -256.5 37.5t-174.5 113.5q-130 144 -130 443q0 300 130 444q68 75 174.5 112.5t256.5 37.5q151 0 258 -37.5t175 -112.5q131 -146 131 -444zM296 644q110 59 203 59q49 0 90.5 -17t97.5 -49
q42 -25 69.5 -37t55.5 -12q43 0 89.5 19.5t107.5 56.5q-17 155 -101.5 233t-254.5 78q-175 0 -259 -82.5t-98 -248.5zM934 263q65 77 77 224q-53 -31 -103.5 -47.5t-103.5 -16.5q-50 0 -93 17t-102 50q-44 24 -69.5 35t-49.5 11q-43 0 -85 -16.5t-107 -51.5q16 -133 75 -205
q87 -105 280 -105q100 0 169 26t112 79z" />
    <glyph glyph-name="uni0474" unicode="&#x474;" horiz-adv-x="1572" 
d="M1572 1520v-172h-60q-47 0 -75.5 -12t-47 -39t-39.5 -79l-488 -1228h-211l-604 1528h217l496 -1268l379 975q41 105 80.5 166t101.5 95t161 34h90z" />
    <glyph glyph-name="uni0475" unicode="&#x475;" horiz-adv-x="1250" 
d="M14 1139h213l351 -912l236 615q41 108 78 168t97.5 93.5t158.5 33.5h90v-172h-60q-48 0 -76 -11.5t-46.5 -38.5t-39.5 -80l-334 -845h-215z" />
    <glyph glyph-name="uni0490" unicode="&#x490;" horiz-adv-x="1221" 
d="M172 1518h791v340h208v-539h-792v-1319h-207v1518z" />
    <glyph glyph-name="uni0491" unicode="&#x491;" horiz-adv-x="1053" 
d="M147 1139h668v340h191v-521h-658v-958h-201v1139z" />
    <glyph glyph-name="Wgrave" unicode="&#x1e80;" horiz-adv-x="2218" 
d="M63 1518h216l368 -1182l377 1182h182l377 -1182l369 1182h202l-481 -1528h-182l-381 1190l-379 -1190h-184zM737 1941h244l303 -336h-184z" />
    <glyph glyph-name="wgrave" unicode="&#x1e81;" horiz-adv-x="1819" 
d="M27 1139h209l294 -860l283 860h197l282 -858l297 858h203l-401 -1149h-199l-283 848l-282 -848h-201zM530 1591h244l303 -336h-184z" />
    <glyph glyph-name="Wacute" unicode="&#x1e82;" horiz-adv-x="2218" 
d="M63 1518h216l368 -1182l377 1182h182l377 -1182l369 1182h202l-481 -1528h-182l-381 1190l-379 -1190h-184zM1243 1941h244l-363 -336h-184z" />
    <glyph glyph-name="wacute" unicode="&#x1e83;" horiz-adv-x="1819" 
d="M27 1139h209l294 -860l283 860h197l282 -858l297 858h203l-401 -1149h-199l-283 848l-282 -848h-201zM1036 1591h244l-363 -336h-184z" />
    <glyph glyph-name="Wdieresis" unicode="&#x1e84;" horiz-adv-x="2218" 
d="M63 1518h216l368 -1182l377 1182h182l377 -1182l369 1182h202l-481 -1528h-182l-381 1190l-379 -1190h-184zM797 1841h182v-229h-182v229zM1239 1841h180v-229h-180v229z" />
    <glyph glyph-name="wdieresis" unicode="&#x1e85;" horiz-adv-x="1819" 
d="M27 1139h209l294 -860l283 860h197l282 -858l297 858h203l-401 -1149h-199l-283 848l-282 -848h-201zM594 1491h182v-229h-182v229zM1036 1491h180v-229h-180v229z" />
    <glyph glyph-name="uni1E9E" unicode="&#x1e9e;" horiz-adv-x="1904" 
d="M518 160l104 159q128 -83 262.5 -120t280.5 -37q227 0 329 63q50 31 73.5 81t23.5 120q0 68 -29 113t-87 73q-52 25 -106.5 39.5t-165.5 36.5q-138 28 -227.5 53.5t-156.5 66.5q-76 47 -113.5 121.5t-37.5 190.5q0 58 21 117t60 103h-92q-101 0 -164 -29t-94 -94.5
t-31 -177.5v-1039h-206v1051q0 232 119 349.5t348 117.5h578q189 0 311 -27.5t216 -87.5l-113 -170q-82 53 -186 82t-228 29q-118 0 -191.5 -22t-108.5 -70t-35 -128q0 -63 27 -103t81 -68q48 -25 108 -41.5t166 -37.5q148 -29 228 -52t151 -65q80 -48 121.5 -125t41.5 -196
q0 -154 -65 -255t-203 -151t-357 -50q-192 0 -354 43t-299 137z" />
    <glyph glyph-name="Ygrave" unicode="&#x1ef2;" horiz-adv-x="1466" 
d="M20 1518h226l489 -756l494 756h215l-608 -939v-579h-205v574zM364 1941h244l303 -336h-184z" />
    <glyph glyph-name="ygrave" unicode="&#x1ef3;" horiz-adv-x="1114" 
d="M14 1139h213l335 -889l331 889h209l-484 -1235q-48 -133 -126 -189q-80 -59 -230 -59h-51q-29 0 -53 2v162h88q57 0 90 9t52.5 31t33.5 64l34 89zM200 1591h244l303 -336h-184z" />
    <glyph glyph-name="uni2010" unicode="&#x2010;" horiz-adv-x="911" 
d="M98 735h711v-186h-711v186z" />
    <glyph glyph-name="endash" unicode="&#x2013;" horiz-adv-x="1460" 
d="M98 735h1264v-186h-1264v186z" />
    <glyph glyph-name="emdash" unicode="&#x2014;" horiz-adv-x="1909" 
d="M98 735h1712v-186h-1712v186z" />
    <glyph glyph-name="uni2015" unicode="&#x2015;" horiz-adv-x="1909" 
d="M98 735h1712v-186h-1712v186z" />
    <glyph glyph-name="quoteleft" unicode="&#x2018;" horiz-adv-x="518" 
d="M133 1174q0 76 9 127.5t31 89.5q23 39 61.5 70.5t101.5 62.5l53 -107q-40 -21 -64 -38t-38 -36t-19.5 -42t-5.5 -58h121v-274h-250v205z" />
    <glyph glyph-name="quoteright" unicode="&#x2019;" horiz-adv-x="518" 
d="M129 1069q40 22 64 39t39 35q14 17 19 40t5 58h-123v277h250v-203q0 -77 -8.5 -129.5t-28.5 -90.5q-22 -39 -61 -70.5t-103 -61.5z" />
    <glyph glyph-name="quotesinglbase" unicode="&#x201a;" horiz-adv-x="518" 
d="M129 -147q40 21 64 38.5t39 36.5q14 19 19 41.5t5 59.5h-123v272h250v-205q0 -70 -8.5 -121.5t-28.5 -91.5q-21 -41 -60 -72.5t-104 -62.5z" />
    <glyph glyph-name="quotedblleft" unicode="&#x201c;" horiz-adv-x="918" 
d="M133 1174q0 74 9 125.5t30 89.5q20 37 58.5 67t103.5 62l51 -105q-42 -22 -65 -38t-36 -34q-13 -19 -18.5 -41.5t-5.5 -56.5h119v-268h-246v199zM541 1174q0 77 7.5 127.5t28.5 87.5q20 37 58 67t102 62l54 -105q-43 -22 -66.5 -38t-36.5 -34q-14 -19 -19 -41t-5 -57h118
v-268h-241v199z" />
    <glyph glyph-name="quotedblright" unicode="&#x201d;" horiz-adv-x="918" 
d="M129 1077q52 27 78 49t36.5 50t10.5 73h-121v269h246v-201q0 -74 -8.5 -124.5t-29.5 -88.5t-59 -67.5t-102 -61.5zM530 1077q43 23 66 39t37 34q14 19 20 42.5t6 56.5h-118v269h241v-201q0 -75 -8.5 -125t-28.5 -88q-21 -38 -58.5 -67.5t-100.5 -61.5z" />
    <glyph glyph-name="quotedblbase" unicode="&#x201e;" horiz-adv-x="918" 
d="M129 -143q71 35 101 72q14 17 19 40t5 60h-121v266h246v-199q0 -69 -9 -120t-29 -90q-22 -40 -60.5 -71.5t-100.5 -60.5zM530 -143q72 33 103 72q14 18 20 41t6 59h-118v266h241v-199q0 -70 -8.5 -121t-28.5 -89q-22 -40 -60 -71.5t-99 -60.5z" />
    <glyph glyph-name="dagger" unicode="&#x2020;" horiz-adv-x="1139" 
d="M471 928h-358v188h358v473h197v-473h358v-188h-358v-1268h-197v1268z" />
    <glyph glyph-name="daggerdbl" unicode="&#x2021;" horiz-adv-x="1139" 
d="M471 176h-358v189h358v563h-358v188h358v473h197v-473h358v-188h-358v-563h358v-189h-358v-516h-197v516z" />
    <glyph glyph-name="bullet" unicode="&#x2022;" horiz-adv-x="725" 
d="M199 807h327v-369h-327v369z" />
    <glyph glyph-name="ellipsis" unicode="&#x2026;" horiz-adv-x="1485" 
d="M133 270h250v-270h-250v270zM616 270h250v-270h-250v270zM1102 270h250v-270h-250v270z" />
    <glyph glyph-name="perthousand" unicode="&#x2030;" horiz-adv-x="3289" 
d="M186 703q-102 122 -102 352q0 226 102 353q108 134 328 134q215 0 323 -134q101 -126 101 -353q0 -231 -101 -352q-110 -134 -323 -134q-218 0 -328 134zM1501 1520h189l-848 -1520h-189zM707 821q53 80 53 234q0 152 -53 231q-60 90 -193 90q-70 0 -117.5 -23t-77.5 -67
q-55 -78 -55 -231t54 -234q61 -92 196 -92q132 0 193 92zM1509 113q-102 122 -102 354q0 227 102 352q110 135 324 135q215 0 325 -135q103 -127 103 -352q0 -230 -103 -354q-110 -133 -325 -133q-214 0 -324 133zM2453 113q-102 122 -102 354q0 227 102 352
q110 135 326 135q213 0 323 -135q103 -127 103 -352q0 -230 -103 -354q-110 -133 -323 -133q-216 0 -326 133zM2027 232q52 85 52 235q0 147 -52 229q-58 90 -194 90q-132 0 -192 -90q-54 -81 -54 -229q0 -151 54 -235q60 -93 192 -93q136 0 194 93zM2972 232q53 82 53 235
q0 150 -53 229q-60 90 -193 90q-131 0 -193 -90q-55 -78 -55 -229t54 -235q29 -46 76.5 -69.5t117.5 -23.5q133 0 193 93z" />
    <glyph glyph-name="guilsinglleft" unicode="&#x2039;" horiz-adv-x="899" 
d="M178 567l309 572h181l-295 -572l295 -567h-181z" />
    <glyph glyph-name="guilsinglright" unicode="&#x203a;" horiz-adv-x="899" 
d="M526 569l-297 570h185l309 -570l-309 -569h-185z" />
    <glyph glyph-name="uni203D" unicode="&#x203d;" horiz-adv-x="1380" 
d="M1221 1169q0 -78 -18.5 -135.5t-55.5 -102.5q-35 -42 -85 -77.5t-124 -75.5q-77 -39 -115.5 -68.5t-57.5 -66.5q-13 -25 -18.5 -57t-5.5 -76q0 -48 4 -96h-202l-20 925q-143 -26 -271 -90l-84 174q101 56 247 87.5t294 31.5q143 0 241.5 -22.5t158.5 -68.5
q59 -45 85.5 -114.5t26.5 -167.5zM1018 1153q0 51 -12.5 86.5t-43.5 61.5q-62 48 -225 52l-11 -491l56 31q76 40 119 67t68 53q26 27 37.5 60t11.5 80zM522 242h250v-242h-250v242z" />
    <glyph glyph-name="fraction" unicode="&#x2044;" horiz-adv-x="1032" 
d="M850 1518h182l-852 -1518h-180z" />
    <glyph glyph-name="uni2070" unicode="&#x2070;" horiz-adv-x="1126" 
d="M259 694q-43 62 -62 150.5t-19 204.5q0 238 81 353q94 132 304 132q208 0 303 -132q82 -115 82 -353q0 -116 -19.5 -204.5t-62.5 -150.5q-46 -66 -120.5 -100.5t-182.5 -34.5q-211 0 -304 135zM751 792q22 44 31 107.5t9 149.5q0 85 -9 147.5t-31 105.5
q-25 46 -70.5 69.5t-117.5 23.5t-117.5 -23.5t-70.5 -69.5q-23 -42 -31 -103t-8 -150q0 -91 8 -152.5t31 -104.5q25 -48 70.5 -72t117.5 -24t117.5 24t70.5 72z" />
    <glyph glyph-name="uni2074" unicode="&#x2074;" horiz-adv-x="1044" 
d="M141 899l420 619h170l-418 -615h302l28 285h121v-285h158v-127h-158v-205h-150v205h-473v123z" />
    <glyph glyph-name="uni2075" unicode="&#x2075;" horiz-adv-x="1026" 
d="M147 653l82 123q70 -38 131.5 -59t137.5 -21q59 0 102 8t71 29q31 22 46.5 59t15.5 97q0 58 -15 95.5t-44 59.5q-27 20 -67.5 27.5t-98.5 7.5q-62 0 -105 -8t-81 -27l-125 33l24 441h594v-136h-461l-12 -206q79 30 203 30q79 0 139.5 -12t103.5 -45q101 -77 101 -260
q0 -102 -26.5 -167t-78.5 -101q-48 -33 -117 -46.5t-159 -13.5q-112 0 -198.5 25t-162.5 67z" />
    <glyph glyph-name="uni2076" unicode="&#x2076;" horiz-adv-x="1077" 
d="M172 969q0 149 27.5 251.5t89.5 167.5q63 66 167.5 98t260.5 32h55v-136h-59q-108 0 -179 -16t-114 -50q-41 -32 -62 -80t-30 -116q38 53 105.5 76t168.5 23q177 0 254 -86q68 -76 68 -236q0 -164 -79 -247q-86 -91 -282 -91q-199 0 -295 97t-96 313zM732 741
q21 26 29.5 62.5t8.5 89.5q0 51 -8.5 88t-30.5 63q-50 56 -166 56q-111 0 -171 -45.5t-60 -139.5q0 -125 56.5 -178t172.5 -53q123 0 169 57z" />
    <glyph glyph-name="uni2077" unicode="&#x2077;" horiz-adv-x="879" 
d="M598 1378h-494v140h668v-127l-356 -820h-168z" />
    <glyph glyph-name="uni2078" unicode="&#x2078;" horiz-adv-x="1096" 
d="M162 846q0 97 36.5 158.5t120.5 91.5q-69 26 -96.5 75t-27.5 127q0 117 72 174q83 66 280 66q196 0 282 -67q74 -59 74 -173q0 -79 -28.5 -128.5t-102.5 -75.5q88 -28 125 -89t37 -159q0 -138 -89 -209q-97 -78 -298 -78q-385 0 -385 287zM748 1280q0 66 -45.5 99.5
t-155.5 33.5q-111 0 -155 -32t-44 -101q0 -73 44 -106t155 -33t156 33.5t45 105.5zM776 856q0 88 -55 131t-174 43q-118 0 -171.5 -43t-53.5 -131t53.5 -131t171.5 -43q119 0 174 43t55 131z" />
    <glyph glyph-name="uni2079" unicode="&#x2079;" horiz-adv-x="1077" 
d="M311 705h62q204 0 293 70q41 32 62 81t30 119q-39 -53 -106.5 -78t-170.5 -25q-171 0 -253 87q-37 39 -52.5 98t-15.5 141q0 166 79 246q88 90 283 90q200 0 294.5 -97t94.5 -313q0 -149 -27 -252t-88 -169q-63 -68 -166.5 -100t-258.5 -32h-60v134zM750 1171
q0 126 -55.5 179t-172.5 53q-63 0 -103.5 -14t-64.5 -41q-23 -25 -32 -63t-9 -89q0 -102 42 -151q47 -56 165 -56q110 0 170 45t60 137z" />
    <glyph glyph-name="uni207A" unicode="&#x207a;" horiz-adv-x="1007" 
d="M427 722v282h-285v144h285v280h153v-280h285v-144h-285v-282h-153z" />
    <glyph glyph-name="uni207B" unicode="&#x207b;" horiz-adv-x="1007" 
d="M140 997v158h727v-158h-727z" />
    <glyph glyph-name="uni207C" unicode="&#x207c;" horiz-adv-x="1007" 
d="M140 1155v156h727v-156h-727zM140 840v158h727v-158h-727z" />
    <glyph glyph-name="uni207D" unicode="&#x207d;" horiz-adv-x="561" 
d="M295 1043q0 -157 32.5 -285t80.5 -215t98 -139l-119 -78q-63 60 -121 159.5t-97 242t-39 314.5q0 163 39 306t98 247t120 163l118 -78q-210 -249 -210 -637z" />
    <glyph glyph-name="uni207E" unicode="&#x207e;" horiz-adv-x="561" 
d="M266 1041q0 157 -32.5 285t-80.5 215t-98 139l119 78q63 -60 121 -159.5t97 -242t39 -314.5q0 -163 -39 -306t-98 -247t-120 -163l-118 78q210 249 210 637z" />
    <glyph glyph-name="uni207F" unicode="&#x207f;" horiz-adv-x="1139" 
d="M170 1502l126 8l13 -86q40 51 106 75q88 32 228 32q105 0 169.5 -26t100.5 -77q32 -46 44 -112t12 -160v-552h-158v521q0 69 -5.5 109.5t-25.5 70.5q-23 34 -68.5 52t-118.5 18q-155 0 -215 -76q-26 -33 -37 -81t-11 -112v-502h-160v898z" />
    <glyph glyph-name="uni2080" unicode="&#x2080;" horiz-adv-x="1126" 
d="M259 123q-43 62 -62 150.5t-19 204.5q0 238 81 353q94 132 304 132q208 0 303 -132q82 -115 82 -353q0 -116 -19.5 -204.5t-62.5 -150.5q-46 -66 -120.5 -100.5t-182.5 -34.5q-211 0 -304 135zM751 221q22 44 31 107.5t9 149.5q0 85 -9 147.5t-31 105.5
q-25 46 -70.5 69.5t-117.5 23.5t-117.5 -23.5t-70.5 -69.5q-23 -42 -31 -103t-8 -150q0 -91 8 -152.5t31 -104.5q25 -48 70.5 -72t117.5 -24t117.5 24t70.5 72z" />
    <glyph glyph-name="uni2081" unicode="&#x2081;" horiz-adv-x="696" 
d="M307 807h-182v140h340v-947h-158v807z" />
    <glyph glyph-name="uni2082" unicode="&#x2082;" horiz-adv-x="942" 
d="M129 117l301 285q70 67 102.5 100.5t51.5 62.5q20 31 28.5 61t8.5 69q0 68 -41.5 99.5t-143.5 31.5q-71 0 -136 -15.5t-110 -40.5l-69 121q67 35 144.5 52.5t189.5 17.5q163 0 242 -59t79 -191q0 -57 -12 -101t-40 -86q-26 -40 -67.5 -84.5t-107.5 -107.5l-209 -201h446
v-131h-657v117z" />
    <glyph glyph-name="uni2083" unicode="&#x2083;" horiz-adv-x="979" 
d="M102 82l80 117q69 -41 134.5 -58.5t144.5 -17.5q78 0 123 14.5t66.5 51t21.5 102.5q0 45 -10 74.5t-35 48.5q-27 19 -72 28t-115 9h-141v127h137q62 0 100 5.5t62 19.5t34.5 38t10.5 64q0 46 -18.5 72t-58.5 36.5t-109 10.5q-71 0 -138.5 -17t-119.5 -47l-76 117
q66 41 160.5 63.5t193.5 22.5q172 0 249 -54.5t77 -172.5q0 -87 -31 -138t-98 -73q81 -23 118 -83.5t37 -166.5q0 -105 -38.5 -168t-116.5 -91t-201 -28q-113 0 -198 22t-173 72z" />
    <glyph glyph-name="uni2084" unicode="&#x2084;" horiz-adv-x="1044" 
d="M141 328l420 619h170l-418 -615h302l28 285h121v-285h158v-127h-158v-205h-150v205h-473v123z" />
    <glyph glyph-name="uni2085" unicode="&#x2085;" horiz-adv-x="1026" 
d="M147 82l82 123q70 -38 131.5 -59t137.5 -21q59 0 102 8t71 29q31 22 46.5 59t15.5 97q0 58 -15 95.5t-44 59.5q-27 20 -67.5 27.5t-98.5 7.5q-62 0 -105 -8t-81 -27l-125 33l24 441h594v-136h-461l-12 -206q79 30 203 30q79 0 139.5 -12t103.5 -45q101 -77 101 -260
q0 -102 -26.5 -167t-78.5 -101q-48 -33 -117 -46.5t-159 -13.5q-112 0 -198.5 25t-162.5 67z" />
    <glyph glyph-name="uni2086" unicode="&#x2086;" horiz-adv-x="1077" 
d="M172 398q0 149 27.5 251.5t89.5 167.5q63 66 167.5 98t260.5 32h55v-136h-59q-108 0 -179 -16t-114 -50q-41 -32 -62 -80t-30 -116q38 53 105.5 76t168.5 23q177 0 254 -86q68 -76 68 -236q0 -164 -79 -247q-86 -91 -282 -91q-199 0 -295 97t-96 313zM732 170
q21 26 29.5 62.5t8.5 89.5q0 51 -8.5 88t-30.5 63q-50 56 -166 56q-111 0 -171 -45.5t-60 -139.5q0 -125 56.5 -178t172.5 -53q123 0 169 57z" />
    <glyph glyph-name="uni2087" unicode="&#x2087;" horiz-adv-x="879" 
d="M598 807h-494v140h668v-127l-356 -820h-168z" />
    <glyph glyph-name="uni2088" unicode="&#x2088;" horiz-adv-x="1096" 
d="M162 275q0 97 36.5 158.5t120.5 91.5q-69 26 -96.5 75t-27.5 127q0 117 72 174q83 66 280 66q196 0 282 -67q74 -59 74 -173q0 -79 -28.5 -128.5t-102.5 -75.5q88 -28 125 -89t37 -159q0 -138 -89 -209q-97 -78 -298 -78q-385 0 -385 287zM748 709q0 66 -45.5 99.5
t-155.5 33.5q-111 0 -155 -32t-44 -101q0 -73 44 -106t155 -33t156 33.5t45 105.5zM776 285q0 88 -55 131t-174 43q-118 0 -171.5 -43t-53.5 -131t53.5 -131t171.5 -43q119 0 174 43t55 131z" />
    <glyph glyph-name="uni2089" unicode="&#x2089;" horiz-adv-x="1077" 
d="M311 134h62q204 0 293 70q41 32 62 81t30 119q-39 -53 -106.5 -78t-170.5 -25q-171 0 -253 87q-37 39 -52.5 98t-15.5 141q0 166 79 246q88 90 283 90q200 0 294.5 -97t94.5 -313q0 -149 -27 -252t-88 -169q-63 -68 -166.5 -100t-258.5 -32h-60v134zM750 600
q0 126 -55.5 179t-172.5 53q-63 0 -103.5 -14t-64.5 -41q-23 -25 -32 -63t-9 -89q0 -102 42 -151q47 -56 165 -56q110 0 170 45t60 137z" />
    <glyph glyph-name="uni208A" unicode="&#x208a;" horiz-adv-x="1007" 
d="M427 148v282h-285v144h285v280h153v-280h285v-144h-285v-282h-153z" />
    <glyph glyph-name="uni208B" unicode="&#x208b;" horiz-adv-x="1007" 
d="M140 423v158h727v-158h-727z" />
    <glyph glyph-name="uni208C" unicode="&#x208c;" horiz-adv-x="1007" 
d="M140 581v156h727v-156h-727zM140 266v158h727v-158h-727z" />
    <glyph glyph-name="uni208D" unicode="&#x208d;" horiz-adv-x="561" 
d="M295 470q0 -157 32.5 -285t80.5 -215t98 -139l-119 -78q-63 60 -121 159.5t-97 242t-39 314.5q0 163 39 306t98 247t120 163l118 -78q-210 -249 -210 -637z" />
    <glyph glyph-name="uni208E" unicode="&#x208e;" horiz-adv-x="561" 
d="M266 468q0 157 -32.5 285t-80.5 215t-98 139l119 78q63 -60 121 -159.5t97 -242t39 -314.5q0 -163 -39 -306t-98 -247t-120 -163l-118 78q210 249 210 637z" />
    <glyph glyph-name="Euro" unicode="&#x20ac;" horiz-adv-x="1386" 
d="M74 686h228q-1 25 -1 78q0 49 1 72h-228v170h242q6 49 15 91q31 147 99.5 245t177.5 149t266 51q140 0 226 -20q83 -19 162 -62l-95 -172q-61 34 -128.5 50t-157.5 16q-118 0 -194 -40t-120 -119q-43 -75 -58 -185q-1 -1 -1 -4h512v-170h-525q-1 -22 -1 -68q0 -55 1 -82
h525v-170h-511l1 -5q16 -115 59 -192t117 -119t191 -42q84 0 154 16t138 57l101 -157q-83 -53 -177 -76t-227 -23q-158 0 -267.5 53.5t-176.5 157.5q-65 99 -94 247q-6 33 -13 83h-241v170z" />
    <glyph glyph-name="uni20B9" unicode="&#x20b9;" horiz-adv-x="1277" 
d="M1157 1325h-292q67 -65 88 -177h204v-193h-204q-23 -154 -116 -244q-48 -46 -111.5 -75t-131.5 -38l344 -598h-221l-339 584h-233v190h281q85 0 142.5 11t97.5 41q56 42 76 129h-597v193h597q-19 86 -76 127q-40 28 -99 39t-147 11h-275v193h1012v-193z" />
    <glyph glyph-name="uni20BA" unicode="&#x20ba;" horiz-adv-x="1219" 
d="M1159 542q-15 -186 -106 -313t-237.5 -189t-330.5 -62q-126 0 -253 31v459l-172 -96v178l172 96v170l-172 -96v178l172 96v524h207v-409l326 182v-178l-326 -182v-170l326 182v-178l-326 -182v-393q59 -12 113 -12q117 0 207.5 44t145.5 130t65 209z" />
    <glyph glyph-name="uni20BC" unicode="&#x20bc;" horiz-adv-x="1583" 
d="M1438 332v-332h-198v318q0 338 -83 519.5t-266 218.5v-1056h-198v1058q-124 -23 -201 -112.5t-112.5 -244.5t-35.5 -383v-318h-198v332q0 413 131 642t416 262v282h198v-283q281 -34 414 -263.5t133 -639.5z" />
    <glyph glyph-name="uni20BD" unicode="&#x20bd;" horiz-adv-x="1360" 
d="M439 381h433v-192h-433v-189h-203v189h-209v192h209v188h-213v192h213v757h522q191 0 309 -49.5t173 -150.5t55 -259q0 -252 -136.5 -371t-406.5 -119h-313v-188zM439 761h319q167 0 248.5 67t81.5 220q0 109 -35 169t-107 84t-192 24h-315v-564z" />
    <glyph glyph-name="uni2105" unicode="&#x2105;" horiz-adv-x="2269" 
d="M212 757q-46 57 -66 137.5t-20 187.5q0 216 87 326q100 125 340 125q208 0 323 -130l-111 -104q-40 40 -88.5 64t-123.5 24q-153 0 -217 -81q-58 -73 -58 -228q0 -77 13 -134t44 -94q69 -83 218 -83q68 0 118 21t102 67l101 -96q-65 -62 -139 -93q-79 -34 -188 -34
q-234 0 -335 125zM1441 1518h205l-850 -1518h-205zM1387 114q-99 111 -99 337t99 337q102 114 328 114q227 0 329 -114q99 -111 99 -337q0 -228 -99 -337q-52 -57 -133 -85.5t-196 -28.5q-227 0 -328 114zM1929 216q60 74 60 232q0 155 -63.5 232t-210.5 77t-210.5 -77
t-63.5 -232q0 -79 14.5 -137t46.5 -95q68 -79 213 -79q150 0 214 79z" />
    <glyph glyph-name="uni2113" unicode="&#x2113;" horiz-adv-x="1102" 
d="M530 344q0 -72 15 -113.5t46.5 -59t84.5 -17.5q72 0 123 36q26 17 45.5 39t23.5 27l78 -102q-51 -66 -113 -109q-90 -61 -219 -61q-72 0 -124.5 16.5t-85.5 53.5q-72 80 -72 265v184l-125 -116l-70 119l195 178v463q0 186 73.5 285.5t217.5 99.5q126 0 186.5 -74.5
t60.5 -202.5q0 -138 -67 -256.5t-205 -246.5l-68 -64v-344zM535 870q106 97 153 187t47 190q0 79 -22 113.5t-70 34.5q-58 0 -84 -50q-29 -56 -29 -198v-282z" />
    <glyph glyph-name="uni2116" unicode="&#x2116;" horiz-adv-x="2775" 
d="M1657 1063q0 238 110 358.5t340 120.5q231 0 343 -120.5t112 -358.5q0 -239 -112 -360t-343 -121q-230 0 -340 120.5t-110 360.5zM172 1518h225l854 -1158v1158h197v-1518h-191l-888 1204v-1204h-197v1518zM2394 1059q0 160 -70.5 241.5t-216.5 81.5q-145 0 -213.5 -81
t-68.5 -242t68.5 -242.5t213.5 -81.5q287 0 287 324zM1712 438h793v-155h-793v155z" />
    <glyph glyph-name="uni2117" unicode="&#x2117;" horiz-adv-x="1692" 
d="M273 197q-94 103 -141.5 247t-47.5 316t47.5 316t141.5 247q97 107 239.5 164t329.5 57q186 0 330.5 -57t241.5 -164q94 -103 142 -247t48 -316t-48 -316t-142 -247q-97 -107 -241.5 -164.5t-330.5 -57.5q-187 0 -329.5 57t-239.5 165zM1354 260q81 91 121.5 218.5
t40.5 281.5q0 153 -40.5 280.5t-121.5 219.5q-84 94 -213 145t-299 51q-337 0 -509 -196q-80 -91 -119.5 -218.5t-39.5 -281.5q0 -155 39.5 -282t119.5 -218q83 -95 210 -146t299 -51q170 0 299 51t213 146zM477 1249h438q188 0 269 -75q73 -69 73 -221q0 -73 -17.5 -127.5
t-56.5 -93.5q-47 -47 -114.5 -63t-187.5 -16h-273v-391h-131v987zM913 770q75 0 120.5 16.5t68 55.5t22.5 108q0 68 -21.5 107t-67.5 55t-124 16h-303v-358h305z" />
    <glyph glyph-name="trademark" unicode="&#x2122;" horiz-adv-x="2236" 
d="M440 1374h-317v144h788v-144h-317v-788h-154v788zM1006 1518h172l303 -727l301 727h174v-932h-152v661l-272 -661h-107l-274 661v-661h-145v932z" />
    <glyph glyph-name="uni2126" unicode="&#x2126;" horiz-adv-x="1757" 
d="M879 1542q196 0 342.5 -51t243 -142.5t143.5 -218t47 -276.5q0 -248 -118 -408.5t-331 -207.5v-56h457v-182h-610v338q209 45 301 171t92 316q0 246 -142.5 386.5t-424.5 140.5q-283 0 -426.5 -140.5t-143.5 -386.5q0 -190 92.5 -316t300.5 -171v-338h-610v182h457v56
q-211 47 -329 207.5t-118 408.5q0 150 47.5 276.5t143.5 218t242.5 142.5t343.5 51z" />
    <glyph glyph-name="estimated" unicode="&#x212e;" horiz-adv-x="1343" 
d="M369 592q0 -159 6 -229q4 -46 12.5 -78t24.5 -58q46 -75 129 -117t194 -42q138 0 246.5 51.5t173.5 140.5h25l53 -63q-86 -105 -219 -163.5t-287 -58.5q-148 0 -262 46t-193 132q-76 83 -115.5 197t-39.5 250q0 131 40 243.5t116 195.5q77 85 188 131.5t252 46.5
q136 0 242.5 -51.5t180.5 -139.5q66 -79 101 -175t35 -183v-76h-903zM999 672l-1 43q-4 127 -11 194t-29 113q-29 59 -93.5 87t-180.5 28q-107 0 -171.5 -24t-97.5 -77q-26 -43 -36.5 -108t-10.5 -165q0 -59 1 -91h630z" />
    <glyph glyph-name="uni2153" unicode="&#x2153;" horiz-adv-x="2025" 
d="M1211 1518h182l-852 -1518h-180zM1140 82l80 117q69 -41 134.5 -58.5t144.5 -17.5q78 0 123 14.5t66.5 51t21.5 102.5q0 45 -10 74.5t-35 48.5q-27 19 -72 28t-115 9h-141v127h137q62 0 100 5.5t62 19.5t34.5 38t10.5 64q0 46 -18.5 72t-58.5 36.5t-109 10.5
q-71 0 -138.5 -17t-119.5 -47l-76 117q66 41 160.5 63.5t193.5 22.5q172 0 249 -54.5t77 -172.5q0 -87 -31 -138t-98 -73q81 -23 118 -83.5t37 -166.5q0 -105 -38.5 -168t-116.5 -91t-201 -28q-113 0 -198 22t-173 72zM287 1378h-182v140h340v-947h-158v807z" />
    <glyph glyph-name="uni2154" unicode="&#x2154;" horiz-adv-x="2255" 
d="M1466 1518h182l-852 -1518h-180zM1369 82l80 117q69 -41 134.5 -58.5t144.5 -17.5q78 0 123 14.5t66.5 51t21.5 102.5q0 45 -10 74.5t-35 48.5q-27 19 -72 28t-115 9h-141v127h137q62 0 100 5.5t62 19.5t34.5 38t10.5 64q0 46 -18.5 72t-58.5 36.5t-109 10.5
q-71 0 -138.5 -17t-119.5 -47l-76 117q66 41 160.5 63.5t193.5 22.5q172 0 249 -54.5t77 -172.5q0 -87 -31 -138t-98 -73q81 -23 118 -83.5t37 -166.5q0 -105 -38.5 -168t-116.5 -91t-201 -28q-113 0 -198 22t-173 72zM163 688l301 285q70 67 102.5 100.5t51.5 62.5
q20 31 28.5 61t8.5 69q0 68 -41.5 99.5t-143.5 31.5q-71 0 -136 -15.5t-110 -40.5l-69 121q67 35 144.5 52.5t189.5 17.5q163 0 242 -59t79 -191q0 -57 -12 -101t-40 -86q-26 -40 -67.5 -84.5t-107.5 -107.5l-209 -201h446v-131h-657v117z" />
    <glyph glyph-name="oneeighth" unicode="&#x215b;" horiz-adv-x="2094" 
d="M1211 1518h182l-852 -1518h-180zM1165 275q0 97 36.5 158.5t120.5 91.5q-69 26 -96.5 75t-27.5 127q0 117 72 174q83 66 280 66q196 0 282 -67q74 -59 74 -173q0 -79 -28.5 -128.5t-102.5 -75.5q88 -28 125 -89t37 -159q0 -138 -89 -209q-97 -78 -298 -78
q-385 0 -385 287zM1751 709q0 66 -45.5 99.5t-155.5 33.5q-111 0 -155 -32t-44 -101q0 -73 44 -106t155 -33t156 33.5t45 105.5zM1779 285q0 88 -55 131t-174 43q-118 0 -171.5 -43t-53.5 -131t53.5 -131t171.5 -43q119 0 174 43t55 131zM287 1378h-182v140h340v-947h-158
v807z" />
    <glyph glyph-name="threeeighths" unicode="&#x215c;" horiz-adv-x="2378" 
d="M1494 1518h182l-852 -1518h-180zM1448 275q0 97 36.5 158.5t120.5 91.5q-69 26 -96.5 75t-27.5 127q0 117 72 174q83 66 280 66q196 0 282 -67q74 -59 74 -173q0 -79 -28.5 -128.5t-102.5 -75.5q88 -28 125 -89t37 -159q0 -138 -89 -209q-97 -78 -298 -78
q-385 0 -385 287zM2034 709q0 66 -45.5 99.5t-155.5 33.5q-111 0 -155 -32t-44 -101q0 -73 44 -106t155 -33t156 33.5t45 105.5zM2062 285q0 88 -55 131t-174 43q-118 0 -171.5 -43t-53.5 -131t53.5 -131t171.5 -43q119 0 174 43t55 131zM120 653l80 117q69 -41 134.5 -58.5
t144.5 -17.5q78 0 123 14.5t66.5 51t21.5 102.5q0 45 -10 74.5t-35 48.5q-27 19 -72 28t-115 9h-141v127h137q62 0 100 5.5t62 19.5t34.5 38t10.5 64q0 46 -18.5 72t-58.5 36.5t-109 10.5q-71 0 -138.5 -17t-119.5 -47l-76 117q66 41 160.5 63.5t193.5 22.5q172 0 249 -54.5
t77 -172.5q0 -87 -31 -138t-98 -73q81 -23 118 -83.5t37 -166.5q0 -105 -38.5 -168t-116.5 -91t-201 -28q-113 0 -198 22t-173 72z" />
    <glyph glyph-name="fiveeighths" unicode="&#x215d;" horiz-adv-x="2417" 
d="M1541 1518h182l-852 -1518h-180zM1488 275q0 97 36.5 158.5t120.5 91.5q-69 26 -96.5 75t-27.5 127q0 117 72 174q83 66 280 66q196 0 282 -67q74 -59 74 -173q0 -79 -28.5 -128.5t-102.5 -75.5q88 -28 125 -89t37 -159q0 -138 -89 -209q-97 -78 -298 -78
q-385 0 -385 287zM2074 709q0 66 -45.5 99.5t-155.5 33.5q-111 0 -155 -32t-44 -101q0 -73 44 -106t155 -33t156 33.5t45 105.5zM2102 285q0 88 -55 131t-174 43q-118 0 -171.5 -43t-53.5 -131t53.5 -131t171.5 -43q119 0 174 43t55 131zM159 653l82 123q70 -38 131.5 -59
t137.5 -21q59 0 102 8t71 29q31 22 46.5 59t15.5 97q0 58 -15 95.5t-44 59.5q-27 20 -67.5 27.5t-98.5 7.5q-62 0 -105 -8t-81 -27l-125 33l24 441h594v-136h-461l-12 -206q79 30 203 30q79 0 139.5 -12t103.5 -45q101 -77 101 -260q0 -102 -26.5 -167t-78.5 -101
q-48 -33 -117 -46.5t-159 -13.5q-112 0 -198.5 25t-162.5 67z" />
    <glyph glyph-name="seveneighths" unicode="&#x215e;" horiz-adv-x="2231" 
d="M1348 1518h182l-852 -1518h-180zM1301 275q0 97 36.5 158.5t120.5 91.5q-69 26 -96.5 75t-27.5 127q0 117 72 174q83 66 280 66q196 0 282 -67q74 -59 74 -173q0 -79 -28.5 -128.5t-102.5 -75.5q88 -28 125 -89t37 -159q0 -138 -89 -209q-97 -78 -298 -78
q-385 0 -385 287zM1887 709q0 66 -45.5 99.5t-155.5 33.5q-111 0 -155 -32t-44 -101q0 -73 44 -106t155 -33t156 33.5t45 105.5zM1915 285q0 88 -55 131t-174 43q-118 0 -171.5 -43t-53.5 -131t53.5 -131t171.5 -43q119 0 174 43t55 131zM644 1378h-494v140h668v-127
l-356 -820h-168z" />
    <glyph glyph-name="partialdiff" unicode="&#x2202;" horiz-adv-x="1309" 
d="M221 129q-129 143 -129 418q0 276 113 414q125 155 395 155q148 0 234.5 -28t138.5 -89q-33 140 -122 273t-241 266l185 78q95 -79 170.5 -172t130.5 -210q121 -260 121 -636q0 -218 -60.5 -354.5t-185 -201.5t-320.5 -65q-295 0 -430 152zM1014 551q0 198 -84.5 294.5
t-278.5 96.5q-190 0 -274 -97t-84 -294t84.5 -295t273.5 -98q193 0 278 97.5t85 295.5z" />
    <glyph glyph-name="uni2206" unicode="&#x2206;" horiz-adv-x="1520" 
d="M657 1528h205l611 -1528h-1424zM1192 172l-438 1108l-439 -1108h877z" />
    <glyph glyph-name="product" unicode="&#x220f;" horiz-adv-x="1491" 
d="M172 1518h1147v-1872h-205v1687h-739v-1687h-203v1872z" />
    <glyph glyph-name="summation" unicode="&#x2211;" horiz-adv-x="1343" 
d="M86 -182l539 782l-516 746v172h1108v-193h-857l498 -725l-514 -756h907v-182h-1165v156z" />
    <glyph glyph-name="minus" unicode="&#x2212;" horiz-adv-x="1440" 
d="M211 817h1018v-190h-1018v190z" />
    <glyph glyph-name="uni2215" unicode="&#x2215;" horiz-adv-x="1032" 
d="M850 1518h182l-852 -1518h-180z" />
    <glyph glyph-name="uni2219" unicode="&#x2219;" horiz-adv-x="725" 
d="M199 807h327v-369h-327v369z" />
    <glyph glyph-name="radical" unicode="&#x221a;" horiz-adv-x="1370" 
d="M115 858h207l241 -616l498 1276h196l-595 -1528h-207z" />
    <glyph glyph-name="infinity" unicode="&#x221e;" horiz-adv-x="1778" 
d="M131 705q0 160 96 248.5t277 88.5q83 0 156.5 -35t142.5 -98q45 -39 89 -88q53 58 106 104t119 80q73 37 159 37q167 0 263 -76q108 -85 108 -261q0 -89 -28.5 -154t-80.5 -105q-50 -39 -117 -58t-145 -19q-84 0 -157 34.5t-143 97.5q-41 37 -88 89q-56 -60 -108 -104.5
t-117 -78.5q-74 -38 -159 -38q-184 0 -278.5 87.5t-94.5 248.5zM508 885q-105 0 -160 -46t-55 -134t54 -133.5t161 -45.5q61 0 118 34.5t120 98.5l42 44q-23 26 -45 48q-61 64 -117.5 99t-117.5 35zM1274 526q96 0 150 40q61 43 61 139t-61 141q-55 39 -150 39
q-61 0 -118 -34.5t-121 -99.5l-43 -45l45 -47q65 -65 120.5 -99t116.5 -34z" />
    <glyph glyph-name="integral" unicode="&#x222b;" horiz-adv-x="819" 
d="M-23 -174h111q105 0 150 58q36 47 36 143v1214q0 89 17.5 155t57.5 112q44 50 114 76t174 26h75q38 0 56 -2v-166h-106q-105 0 -151 -56q-38 -45 -38 -143v-1216q0 -89 -17.5 -156.5t-56.5 -113.5q-87 -101 -288 -101q-103 0 -134 4v166z" />
    </font>
</defs>
</svg>
